<?xml version="1.0" encoding="UTF-8"?>
<!DOCTYPE svg PUBLIC "-//W3C//DTD SVG 1.1//EN" "http://www.w3.org/Graphics/SVG/1.1/DTD/svg11.dtd">
<!-- Creator: CorelDRAW 2020 (64-Bit) -->
<svg xmlns="http://www.w3.org/2000/svg" xml:space="preserve" width="90px" height="90px" version="1.1" style="shape-rendering:geometricPrecision; text-rendering:geometricPrecision; image-rendering:optimizeQuality; fill-rule:evenodd; clip-rule:evenodd"
viewBox="0 0 1.43 1.42"
 xmlns:xlink="http://www.w3.org/1999/xlink"
 xmlns:xodm="http://www.corel.com/coreldraw/odm/2003">
 <defs>
  <style type="text/css">
   <![CDATA[
    .fil0 {fill:#ECECEC}
    .fil1 {fill:white}
    .fil2 {fill:#F28A2E;fill-rule:nonzero}
   ]]>
  </style>
 </defs>
 <rect class="fil0" x="-84.34" y="-37.81" width="78.69" height="55.64"/>
 <g id="Capa_x0020_1">
  <metadata id="CorelCorpID_0Corel-Layer"/>
  <path class="fil1" d="M0.71 0c-0.39,0 -0.7,0.32 -0.7,0.71 0,0.39 0.31,0.71 0.7,0.71 0.39,0 0.71,-0.32 0.71,-0.71 0,-0.39 -0.32,-0.71 -0.71,-0.71z"/>
  <path class="fil2" d="M0 0.71l0 0c0,0.25 0.12,0.46 0.31,0.59 0.02,-0.08 0.05,-0.18 0.08,-0.27 -0.04,-0.01 -0.11,-0.06 -0.05,-0.31 0,-0.04 -0.01,-0.11 -0.03,-0.18 0.02,0.07 0.03,0.14 0.04,0.18 0.02,0.04 0.06,0.12 0.07,0.2 0.01,-0.03 0.02,-0.05 0.03,-0.08 -0.03,-0.01 -0.08,-0.07 -0.03,-0.27 0,-0.05 -0.01,-0.1 -0.02,-0.16 0.02,0.06 0.03,0.12 0.04,0.16 0.01,0.03 0.04,0.11 0.06,0.17 0.01,-0.02 0.02,-0.05 0.04,-0.08 -0.03,-0.01 -0.09,-0.04 -0.03,-0.25 0,-0.04 -0.01,-0.09 -0.02,-0.15 0.02,0.07 0.03,0.12 0.03,0.16 0.02,0.03 0.05,0.12 0.05,0.18 0.02,-0.04 0.04,-0.07 0.06,-0.11 -0.03,0 -0.08,-0.03 -0.03,-0.21 0,-0.03 -0.01,-0.08 -0.02,-0.13 0.01,0.05 0.02,0.09 0.03,0.13 0.01,0.03 0.05,0.11 0.05,0.17 0.02,-0.03 0.04,-0.07 0.07,-0.1 -0.02,-0.01 -0.07,-0.04 -0.02,-0.19 0,-0.03 0,-0.07 -0.01,-0.11 0.01,0.05 0.02,0.09 0.02,0.11 0.01,0.03 0.04,0.11 0.03,0.16 0.03,-0.03 0.05,-0.06 0.07,-0.08l0 0 0.02 -0.02c-0.03,0.04 -0.06,0.08 -0.08,0.11 0.04,-0.02 0.09,-0.04 0.11,-0.05 0.03,-0.02 0.06,-0.04 0.1,-0.06 -0.04,0.02 -0.07,0.05 -0.09,0.07 -0.1,0.15 -0.15,0.11 -0.16,0.1 -0.02,0.03 -0.03,0.05 -0.05,0.08 0.04,-0.03 0.1,-0.06 0.12,-0.07 0.03,-0.02 0.07,-0.05 0.11,-0.07 -0.04,0.03 -0.07,0.05 -0.1,0.08 -0.09,0.17 -0.15,0.15 -0.17,0.13 -0.02,0.03 -0.04,0.06 -0.05,0.1 0.05,-0.04 0.12,-0.07 0.15,-0.08 0.03,-0.02 0.07,-0.05 0.13,-0.08 -0.06,0.03 -0.1,0.06 -0.12,0.09 -0.11,0.18 -0.17,0.17 -0.2,0.15 -0.01,0.03 -0.03,0.06 -0.04,0.08 0,0 0,0.01 0,0.01 0.06,-0.05 0.14,-0.08 0.17,-0.1 0.04,-0.02 0.08,-0.06 0.14,-0.1 -0.06,0.04 -0.1,0.08 -0.13,0.11 -0.11,0.21 -0.18,0.2 -0.21,0.18 -0.02,0.04 -0.03,0.07 -0.04,0.11 0.06,-0.05 0.15,-0.09 0.19,-0.11 0.04,-0.03 0.09,-0.07 0.16,-0.11 -0.06,0.04 -0.11,0.08 -0.14,0.11 -0.12,0.23 -0.2,0.23 -0.24,0.21 -0.02,0.07 -0.04,0.15 -0.05,0.21 0.05,0.03 0.1,0.05 0.15,0.07 0.01,-0.03 0.05,-0.09 0.1,-0.15 -0.03,-0.01 -0.07,-0.06 0.03,-0.21 0.01,-0.03 0.02,-0.08 0.02,-0.13 0,0.05 0,0.1 -0.01,0.13 0,0.03 0.01,0.1 0,0.16 0.02,-0.03 0.05,-0.06 0.08,-0.08 -0.02,-0.02 -0.03,-0.07 0.07,-0.18 0.02,-0.03 0.03,-0.06 0.05,-0.11 -0.01,0.05 -0.03,0.08 -0.04,0.11 0,0.03 -0.01,0.08 -0.02,0.13 0.02,-0.02 0.04,-0.03 0.07,-0.05 -0.02,-0.02 -0.03,-0.06 0.08,-0.15 0.01,-0.02 0.03,-0.05 0.05,-0.09 -0.02,0.04 -0.03,0.07 -0.04,0.09 -0.01,0.03 -0.02,0.08 -0.04,0.12 0.02,-0.01 0.04,-0.02 0.07,-0.03 -0.01,-0.01 -0.03,-0.05 0.08,-0.13 0.02,-0.01 0.04,-0.04 0.06,-0.07 -0.02,0.03 -0.04,0.06 -0.05,0.08 -0.01,0.02 -0.03,0.07 -0.06,0.1 0.03,0 0.06,-0.01 0.09,-0.02 0,0 0.01,0 0.01,0l0 0c0,-0.01 -0.02,-0.04 0.06,-0.08l0 0c0.01,-0.01 0.02,-0.03 0.03,-0.04 -0.01,0.02 -0.02,0.04 -0.03,0.05 -0.01,0.01 -0.02,0.05 -0.04,0.06 0.03,0 0.07,-0.01 0.11,-0.01l0 0c-0.04,0 -0.08,0.01 -0.11,0.02 0.02,0 0.05,0.01 0.06,0.02 0.01,0 0.03,0 0.05,0.01 -0.02,-0.01 -0.04,-0.01 -0.05,-0.01 -0.08,0.02 -0.09,0 -0.1,-0.01 -0.03,0.01 -0.06,0.02 -0.09,0.03 0.04,0.01 0.08,0.02 0.1,0.03 0.03,0 0.06,0.01 0.09,0.01 -0.03,0 -0.07,0 -0.09,0 -0.11,0.03 -0.14,0.01 -0.15,-0.01 -0.02,0.01 -0.04,0.02 -0.06,0.04 0.04,0 0.1,0.01 0.12,0.01 0.02,0 0.06,0 0.1,0.01 -0.05,0 -0.08,0 -0.11,0 -0.12,0.06 -0.15,0.03 -0.16,0.01 -0.02,0.02 -0.04,0.03 -0.06,0.05 0.05,-0.01 0.1,0 0.12,0 0.03,0 0.07,-0.01 0.12,-0.01 -0.04,0 -0.08,0.01 -0.11,0.02 -0.12,0.07 -0.17,0.06 -0.18,0.04 -0.03,0.03 -0.05,0.05 -0.07,0.07 0.05,-0.01 0.11,-0.02 0.13,-0.02 0.03,-0.01 0.07,-0.02 0.12,-0.03 -0.05,0.01 -0.09,0.03 -0.12,0.04 -0.1,0.1 -0.15,0.1 -0.18,0.09 -0.03,0.04 -0.05,0.08 -0.06,0.1 0.06,0.02 0.11,0.02 0.17,0.02 0.4,0 0.72,-0.32 0.72,-0.71 0,-0.38 -0.29,-0.68 -0.66,-0.71l-0.12 0c-0.36,0.03 -0.65,0.33 -0.65,0.71z"/>
 </g>
</svg>
