<?xml version="1.0" encoding="UTF-8"?>
<!DOCTYPE svg PUBLIC "-//W3C//DTD SVG 1.1//EN" "http://www.w3.org/Graphics/SVG/1.1/DTD/svg11.dtd">
<!-- Creator: CorelDRAW 2020 (64-Bit) -->
<svg xmlns="http://www.w3.org/2000/svg" xml:space="preserve" width="90px" height="90px" version="1.1" style="shape-rendering:geometricPrecision; text-rendering:geometricPrecision; image-rendering:optimizeQuality; fill-rule:evenodd; clip-rule:evenodd"
viewBox="0 0 1.34 1.34"
 xmlns:xlink="http://www.w3.org/1999/xlink"
 xmlns:xodm="http://www.corel.com/coreldraw/odm/2003">
 <defs>
  <style type="text/css">
   <![CDATA[
    .fil0 {fill:#ECECEC}
    .fil1 {fill:#F28A2E;fill-rule:nonzero}
    .fil2 {fill:white;fill-rule:nonzero}
   ]]>
  </style>
 </defs>
 <rect class="fil0" x="-82.15" y="-35.7" width="74.3" height="52.54"/>
 <g id="Capa_x0020_1">
  <metadata id="CorelCorpID_0Corel-Layer"/>
  <path class="fil1" d="M1.34 0.67l0 0c0,0.37 -0.3,0.67 -0.67,0.67 -0.37,0 -0.67,-0.3 -0.67,-0.67 0,-0.36 0.27,-0.64 0.62,-0.67l0.11 0c0.34,0.03 0.61,0.31 0.61,0.67z"/>
  <path class="fil2" d="M0.86 0.84l0 0c0.03,-0.04 0.03,-0.12 0.03,-0.14 0,-0.01 0,-0.02 0,-0.03 0,-0.01 -0.01,-0.02 -0.02,-0.03 -0.01,-0.01 -0.02,-0.04 -0.03,-0.07 -0.01,-0.02 -0.01,-0.04 -0.03,-0.05 -0.01,0 -0.02,-0.01 -0.03,-0.01 -0.01,-0.01 -0.02,-0.02 -0.02,-0.02 0,-0.01 0,-0.03 -0.02,-0.02 0,0 -0.02,0 -0.02,0.01 -0.01,0 -0.03,0 -0.04,0 0,0 0,0 0,0 0,0 -0.01,0 -0.01,0 0,0 0,0 0,0 0,0 -0.01,0 -0.01,0 -0.01,0 -0.02,0 -0.03,0 -0.01,-0.01 -0.02,-0.01 -0.03,-0.01 -0.02,-0.01 -0.02,0.01 -0.02,0.02 0,0 0,0.01 -0.01,0.02 -0.01,0 -0.03,0.01 -0.03,0.01 -0.02,0.01 -0.03,0.03 -0.04,0.05 -0.01,0.03 -0.02,0.06 -0.03,0.07 -0.01,0.01 -0.01,0.02 -0.02,0.03 0,0.01 0,0.02 0,0.03 0,0.02 0.01,0.1 0.03,0.14 0,0 0.02,0.01 0.04,0.03 0.03,0.02 0.07,0.05 0.08,0.05 0.01,0 0.04,0 0.07,0 0.03,0 0.07,0 0.07,0 0.01,0 0.06,-0.03 0.09,-0.05 0.02,-0.02 0.03,-0.03 0.03,-0.03zm0.25 -0.25l0 0c0,0 0,0.01 -0.01,0.02 0,0.02 -0.01,0.03 -0.01,0.03 0,0.01 0,0.02 0.01,0.02 0,0 0.01,0 0.01,-0.01 0.01,0 0.01,-0.02 0.01,-0.03 0,-0.02 0,-0.04 -0.01,-0.03zm-0.1 0.38l0 0c0,0 -0.01,0 -0.01,0.01 0,0 0,0.02 -0.01,0.03 -0.01,0.02 -0.02,0.03 -0.01,0.03 0,0 0.01,-0.01 0.03,-0.02 0.01,-0.01 0.01,-0.03 0.01,-0.03 0.01,-0.01 0,-0.02 -0.01,-0.02zm-0.03 -0.11l0 0c-0.01,0.01 -0.01,0.02 0,0.02 0.01,0.04 0.02,0.06 0.02,0.07 0.01,0.01 0.01,0.01 0.01,0.01 0.01,0 0.02,0 0.02,-0.01 0,-0.02 0,-0.04 -0.02,-0.08 -0.01,-0.01 -0.02,-0.02 -0.03,-0.01zm-0.54 -0.02l0 0c-0.02,0.02 -0.02,0.03 -0.02,0.04 0,0.02 0,0.02 0.01,0.02 0.01,0.01 0.02,0.01 0.03,0 0,-0.01 0.01,-0.01 0.02,-0.02 0,0 0.01,-0.01 0.02,-0.01 -0.02,-0.01 -0.02,-0.02 -0.03,-0.03 -0.02,-0.04 -0.03,-0.12 -0.03,-0.14 0,-0.01 0,-0.02 0,-0.03 0,-0.01 0.01,-0.01 0.01,-0.02 -0.09,-0.03 -0.08,-0.03 -0.1,-0.01 -0.01,0 -0.01,0.03 0.08,0.07 -0.04,0 -0.07,0 -0.08,0.01 -0.01,0 -0.01,0.01 -0.01,0.02 0,0 -0.01,0.01 0.01,0.02 0.01,0.01 0.04,0.01 0.09,0 -0.03,0.01 -0.04,0.02 -0.06,0.03 -0.01,0.02 -0.02,0.03 -0.02,0.04 -0.01,0.01 0,0.02 0,0.02 0.01,0.01 0.02,0.01 0.03,0 0.01,0 0.03,-0.02 0.07,-0.03 -0.01,0.01 -0.02,0.01 -0.02,0.02zm0.54 -0.01l0 0c0,-0.01 -0.01,-0.02 -0.02,-0.04 -0.01,-0.01 -0.03,-0.02 -0.06,-0.03 0.05,0.01 0.08,0.01 0.09,0 0.02,-0.01 0.02,-0.02 0.02,-0.02 -0.01,-0.01 -0.01,-0.02 -0.02,-0.02 -0.01,-0.01 -0.04,-0.01 -0.08,-0.01 0.09,-0.04 0.09,-0.07 0.08,-0.07 -0.02,-0.02 -0.01,-0.02 -0.1,0.01 0.01,0 0.01,0.01 0.01,0.02 0,0.01 0.01,0.02 0.01,0.03 0,0.02 -0.01,0.1 -0.04,0.14 0,0.01 -0.01,0.02 -0.03,0.03 0.01,0 0.02,0.01 0.03,0.01 0.01,0.01 0.01,0.01 0.02,0.02 0.01,0.01 0.01,0.01 0.02,0 0.01,0 0.02,0 0.02,-0.02 0,-0.01 -0.01,-0.02 -0.02,-0.04 -0.01,-0.01 -0.02,-0.01 -0.03,-0.02 0.04,0.01 0.06,0.03 0.07,0.03 0.01,0.01 0.02,0.01 0.03,0 0,0 0.01,-0.01 0,-0.02zm-0.6 -0.29l0 0c0.01,0.04 0.04,0.09 0.07,0.1 0,0 0,0 0,0.01 0.01,-0.01 0.01,-0.02 0.01,-0.02 0.01,-0.01 0.01,-0.02 0.02,-0.03 0,-0.01 0,-0.02 0.01,-0.03 -0.02,-0.02 -0.04,-0.03 -0.05,-0.04 0.02,-0.02 0.02,-0.06 0.01,-0.1 0,0 0,0 0.01,0 0,0 0.14,-0.08 0.1,-0.2 -0.03,0.07 -0.08,0.1 -0.1,0.11 0,0.01 -0.01,0.01 -0.02,0.01 0,-0.06 0.02,-0.11 0.05,-0.17 -0.03,0.02 -0.05,0.03 -0.07,0.04 -0.03,0.03 -0.05,0.07 -0.07,0.11 -0.02,0.07 -0.02,0.13 -0.01,0.16 0.01,0.02 0.02,0.04 0.04,0.05zm0.71 0.13l0 0c0,-0.01 0,-0.01 -0.01,0 -0.01,0.01 -0.03,0.02 -0.06,0.04 -0.01,0 -0.01,0 -0.01,0.01 0,0 0,0.01 0,0.01 0.01,0.01 0.01,0.01 0.02,0.01 0,0 0,0 0.01,0 0.01,-0.01 0.03,-0.02 0.04,-0.03 0.01,-0.01 0.01,-0.02 0.02,-0.02 0,-0.02 0,-0.02 -0.01,-0.02zm-0.8 -0.14l0 0c0.01,0 0.01,0 0.01,-0.01 0,-0.01 -0.01,-0.02 -0.01,-0.03 -0.01,-0.02 -0.01,-0.03 -0.01,-0.03 0,0 -0.01,0.01 -0.01,0.03 0,0.01 0,0.03 0,0.03 0.01,0.01 0.01,0.02 0.02,0.01zm-0.04 0.11l0 0c0,0 -0.01,-0.01 -0.01,-0.03 -0.01,-0.01 -0.01,-0.02 -0.01,-0.02 -0.01,-0.01 -0.01,0.01 -0.01,0.03 0,0.01 0.01,0.03 0.01,0.03 0,0.01 0.01,0.01 0.01,0.01 0.01,0 0.01,-0.01 0.01,-0.02zm0.04 -0.1l0 0c0,0 -0.01,0.01 -0.01,0.02 0.01,0.01 0.01,0.03 0.04,0.07 0.01,0.01 0.02,0.01 0.03,0 0,-0.01 0,-0.02 0,-0.03 -0.03,-0.03 -0.03,-0.04 -0.04,-0.05 -0.01,-0.01 -0.01,-0.01 -0.02,-0.01zm0.7 0.09l0 0c0.01,0.01 0.02,0.01 0.03,0 0.03,-0.04 0.04,-0.06 0.04,-0.07 0,-0.01 0,-0.02 -0.01,-0.02 0,0 -0.01,0 -0.02,0.01 0,0.01 -0.01,0.02 -0.04,0.05 0,0.01 0,0.02 0,0.03zm0.06 -0.1l0 0c0.01,0.01 0.02,0 0.02,-0.01 0,0 0,-0.02 0,-0.03 0,-0.02 0,-0.03 -0.01,-0.03 0,0 0,0.01 -0.01,0.03 0,0.01 0,0.02 0,0.03 -0.01,0.01 0,0.01 0,0.01zm-0.16 -0.1l0 0c0,0 0,0 0,0 0,0.04 -0.01,0.08 0.01,0.1 -0.01,0.01 -0.03,0.02 -0.05,0.04 0.01,0.01 0.01,0.02 0.02,0.03 0,0.01 0.01,0.02 0.01,0.03 0.01,0 0.01,0.01 0.01,0.02 0,-0.01 0,-0.01 0,-0.01 0.03,-0.01 0.06,-0.06 0.08,-0.1 0.01,-0.01 0.02,-0.03 0.03,-0.05 0.01,-0.03 0.02,-0.09 -0.01,-0.16 -0.01,-0.04 -0.04,-0.08 -0.07,-0.11 -0.01,-0.01 -0.04,-0.02 -0.07,-0.04 0.03,0.06 0.06,0.11 0.05,0.17 -0.01,0 -0.01,0 -0.02,-0.01 -0.01,-0.01 -0.07,-0.04 -0.1,-0.11 -0.04,0.12 0.11,0.2 0.11,0.2zm-0.56 0.3l0 0c0,0 0,-0.01 0,-0.01 0,-0.01 0,-0.01 -0.01,-0.01 -0.03,-0.02 -0.04,-0.03 -0.05,-0.04 -0.01,-0.01 -0.02,-0.01 -0.02,0 -0.01,0 -0.01,0 0,0.02 0,0 0,0.01 0.01,0.02 0.01,0.01 0.03,0.02 0.04,0.03 0.01,0 0.01,0 0.02,0 0,0 0.01,0 0.01,-0.01zm0.19 0.28l0 0c-0.02,-0.01 -0.03,-0.01 -0.03,-0.01 -0.01,0 -0.02,0 -0.02,0.01 0,0 0,0.01 0.01,0.01 0,0 0.02,0.01 0.04,0.01 0.02,0 0.03,-0.01 0.03,-0.01 0,-0.01 -0.01,-0.01 -0.03,-0.01zm0.33 -0.01l0 0c0,0 -0.01,0 -0.03,0.01 -0.01,0 -0.03,0 -0.03,0.01 0,0 0.02,0.01 0.03,0.01 0.02,0 0.04,-0.01 0.04,-0.01 0.01,0 0.01,-0.01 0.01,-0.01 0,-0.01 -0.01,-0.01 -0.02,-0.01zm0.06 -0.09l0 0c0,0.01 -0.01,0.02 -0.01,0.02 0.01,0.04 -0.01,0.04 -0.02,0.06 0,0 0,0.01 0,0.01 0,0.01 0,0.01 0.02,0.01 0,0 0.01,-0.01 0.02,-0.02 0.01,-0.01 0.02,-0.04 0.02,-0.06 0,-0.01 -0.01,-0.02 -0.03,-0.02zm-0.47 0.02l0 0c0,0 0,-0.01 -0.01,-0.02 -0.01,0 -0.02,0.01 -0.03,0.02 0,0.02 0.01,0.05 0.02,0.06 0.01,0.01 0.02,0.02 0.02,0.02 0.02,0 0.02,0 0.02,-0.01 0.01,0 0.01,-0.01 0,-0.01 -0.01,-0.02 -0.02,-0.02 -0.02,-0.06zm-0.08 -0.07l0 0c-0.01,-0.01 -0.02,0 -0.03,0.01 -0.02,0.04 -0.02,0.06 -0.02,0.08 0.01,0.01 0.01,0.01 0.02,0.01 0,0 0.01,0 0.01,-0.01 0,-0.01 0.01,-0.03 0.03,-0.07 0,0 0,-0.01 -0.01,-0.02zm-0.02 0.12l0 0c0,-0.01 0,-0.01 -0.01,-0.01 -0.01,0 -0.01,0.01 -0.01,0.02 0,0 0.01,0.02 0.02,0.03 0.01,0.01 0.02,0.02 0.02,0.02 0.01,0 0,-0.01 -0.01,-0.03 0,-0.01 -0.01,-0.03 -0.01,-0.03z"/>
 </g>
</svg>
