<?xml version="1.0" encoding="UTF-8"?>
<!DOCTYPE svg PUBLIC "-//W3C//DTD SVG 1.1//EN" "http://www.w3.org/Graphics/SVG/1.1/DTD/svg11.dtd">
<!-- Creator: CorelDRAW 2020 (64-Bit) -->
<svg xmlns="http://www.w3.org/2000/svg" xml:space="preserve" width="90px" height="90px" version="1.1" style="shape-rendering:geometricPrecision; text-rendering:geometricPrecision; image-rendering:optimizeQuality; fill-rule:evenodd; clip-rule:evenodd"
viewBox="0 0 1.28 1.27"
 xmlns:xlink="http://www.w3.org/1999/xlink"
 xmlns:xodm="http://www.corel.com/coreldraw/odm/2003">
 <defs>
  <style type="text/css">
   <![CDATA[
    .fil0 {fill:#ECECEC}
    .fil1 {fill:#F28A2E;fill-rule:nonzero}
    .fil2 {fill:white;fill-rule:nonzero}
   ]]>
  </style>
 </defs>
 <rect class="fil0" x="-80.19" y="-33.82" width="70.38" height="49.77"/>
 <g id="Capa_x0020_1">
  <metadata id="CorelCorpID_0Corel-Layer"/>
  <path class="fil1" d="M1.28 0.63l0 0c0,0.36 -0.29,0.64 -0.64,0.64 -0.36,0 -0.64,-0.28 -0.64,-0.64 0,-0.33 0.26,-0.6 0.58,-0.63l0.11 0c0.33,0.03 0.59,0.3 0.59,0.63z"/>
  <path class="fil2" d="M0.34 0.37l0 0c-0.1,0.01 -0.17,0.21 -0.15,0.34 0.01,0.14 0.1,0.21 0.21,0.2 0.1,-0.01 0.18,-0.1 0.17,-0.23 -0.02,-0.14 -0.12,-0.32 -0.23,-0.31zm0.42 0.14l0 0 0.01 0c0.03,-0.01 0.07,0 0.11,0 0.01,-0.13 -0.05,-0.31 -0.15,-0.33 -0.09,-0.01 -0.18,0.12 -0.22,0.23 0.04,0.05 0.08,0.12 0.1,0.18 0.03,-0.04 0.09,-0.07 0.15,-0.08zm-0.16 -0.16l0 0c0.03,-0.09 0.1,-0.12 0.11,-0.12 0,0 0,0 0.01,0 0.01,0 0.01,0 0.02,0.01 0,0.02 -0.01,0.03 -0.02,0.03 0,0 -0.05,0.02 -0.07,0.09 -0.01,0.01 -0.01,0.02 -0.02,0.02 0,0 -0.01,0 -0.01,0 0,0 0,0 0,0 -0.01,0 -0.01,-0.01 -0.01,-0.01 -0.01,-0.01 -0.01,-0.01 -0.01,-0.02zm0.19 0.21l0 0c-0.13,0.01 -0.2,0.11 -0.19,0.21 0.01,0.11 0.1,0.18 0.23,0.17 0.14,-0.02 0.32,-0.13 0.3,-0.23 -0.01,-0.11 -0.21,-0.17 -0.34,-0.15zm0.28 0.18l0 0c0,0 0,0 -0.01,0 -0.01,0 -0.01,0 -0.02,-0.01 0,-0.01 -0.03,-0.05 -0.1,-0.06 -0.01,0 -0.02,-0.01 -0.03,-0.02 0,0 0,0 0,0 0.01,-0.02 0.02,-0.02 0.03,-0.02 0.1,0.01 0.14,0.07 0.14,0.08 0,0 0,0 0,0 0,0.01 0,0.02 -0.01,0.03zm-0.71 -0.28l0 0c0,0 -0.05,0.03 -0.06,0.1 0,0.02 -0.01,0.02 -0.02,0.02 0,0 0,0 -0.01,0 0,0 -0.01,0 -0.01,0 0,-0.01 -0.01,-0.02 0,-0.02 0.01,-0.1 0.07,-0.13 0.08,-0.14 0.01,0 0.02,0 0.03,0.01 0.01,0.01 0,0.03 -0.01,0.03z"/>
 </g>
</svg>
