<?xml version="1.0" encoding="UTF-8"?>
<!DOCTYPE svg PUBLIC "-//W3C//DTD SVG 1.1//EN" "http://www.w3.org/Graphics/SVG/1.1/DTD/svg11.dtd">
<!-- Creator: CorelDRAW 2020 (64-Bit) -->
<svg xmlns="http://www.w3.org/2000/svg" xml:space="preserve" width="90px" height="90px" version="1.1" style="shape-rendering:geometricPrecision; text-rendering:geometricPrecision; image-rendering:optimizeQuality; fill-rule:evenodd; clip-rule:evenodd"
viewBox="0 0 1.21 1.21"
 xmlns:xlink="http://www.w3.org/1999/xlink"
 xmlns:xodm="http://www.corel.com/coreldraw/odm/2003">
 <defs>
  <style type="text/css">
   <![CDATA[
    .fil0 {fill:#ECECEC}
    .fil1 {fill:#F28A2E;fill-rule:nonzero}
    .fil2 {fill:white;fill-rule:nonzero}
   ]]>
  </style>
 </defs>
 <rect class="fil0" x="-78.43" y="-32.12" width="66.85" height="47.27"/>
 <g id="Capa_x0020_1">
  <metadata id="CorelCorpID_0Corel-Layer"/>
  <path class="fil1" d="M1.21 0.6l0 0c0,0.34 -0.27,0.61 -0.61,0.61 -0.33,0 -0.6,-0.27 -0.6,-0.61 0,-0.32 0.24,-0.58 0.56,-0.6l0.09 0c0.32,0.02 0.56,0.28 0.56,0.6z"/>
  <path class="fil2" d="M1.04 0.5l0 0c0,-0.02 -0.11,-0.03 -0.18,0.07 -0.09,-0.07 -0.22,-0.12 -0.26,-0.13 0,-0.02 0.06,-0.08 0.04,-0.09 -0.02,-0.02 -0.09,-0.02 -0.15,0.07 -0.08,0.03 -0.21,0 -0.33,0.18l0.05 0.04 -0.04 0.02c0.12,0.17 0.27,0.12 0.35,0.15 0.06,0.09 0.11,0.06 0.13,0.05 -0.05,-0.04 -0.06,-0.04 -0.06,-0.06 0.04,-0.01 0.23,-0.06 0.27,-0.13 0.11,0.14 0.18,0.08 0.18,0.07 0,0 -0.08,-0.06 -0.08,-0.12 0,-0.07 0.08,-0.12 0.08,-0.12zm-0.65 0.07l0 0c0,0.02 -0.02,0.03 -0.04,0.03 -0.02,0 -0.03,-0.01 -0.03,-0.03 0,-0.02 0.01,-0.04 0.03,-0.04 0.02,0 0.04,0.02 0.04,0.04zm0.03 0.2l0 0c0.07,-0.06 0.12,-0.17 0.02,-0.31 0.09,0.06 0.13,0.24 -0.02,0.31z"/>
 </g>
</svg>
