<?xml version="1.0" encoding="UTF-8"?>
<!DOCTYPE svg PUBLIC "-//W3C//DTD SVG 1.1//EN" "http://www.w3.org/Graphics/SVG/1.1/DTD/svg11.dtd">
<!-- Creator: CorelDRAW 2020 (64-Bit) -->
<svg xmlns="http://www.w3.org/2000/svg" xml:space="preserve" width="90px" height="90px" version="1.1" style="shape-rendering:geometricPrecision; text-rendering:geometricPrecision; image-rendering:optimizeQuality; fill-rule:evenodd; clip-rule:evenodd"
viewBox="0 0 1.15 1.15"
 xmlns:xlink="http://www.w3.org/1999/xlink"
 xmlns:xodm="http://www.corel.com/coreldraw/odm/2003">
 <defs>
  <style type="text/css">
   <![CDATA[
    .fil0 {fill:#ECECEC}
    .fil1 {fill:#F28A2E;fill-rule:nonzero}
    .fil2 {fill:white;fill-rule:nonzero}
   ]]>
  </style>
 </defs>
 <rect class="fil0" x="-76.83" y="-30.59" width="63.66" height="45.02"/>
 <g id="Capa_x0020_1">
  <metadata id="CorelCorpID_0Corel-Layer"/>
  <path class="fil1" d="M0.58 1.15l0 0c-0.32,0 -0.58,-0.26 -0.58,-0.58 0,-0.3 0.23,-0.55 0.53,-0.57l0.09 0c0.3,0.02 0.53,0.27 0.53,0.57 0,0.32 -0.25,0.58 -0.57,0.58z"/>
  <path class="fil2" d="M0.71 0.69l0 0c-0.09,-0.02 -0.09,0.11 -0.05,0.19 0.03,0.08 0.12,0.06 0.13,0.06 0.05,-0.03 0.08,-0.11 0.04,-0.18 -0.07,-0.14 -0.12,-0.07 -0.12,-0.07l0.04 0.15 -0.04 -0.15zm-0.51 0.05l0 0c0.02,0.11 0.21,0.08 0.31,0.03 0.08,-0.03 0.09,-0.13 0.16,-0.21 0.06,-0.08 0.15,-0.09 0.18,-0.16 0.05,-0.15 -0.06,-0.27 -0.23,-0.23 -0.09,0.02 -0.14,0.15 -0.18,0.25 -0.12,0.03 -0.28,0.15 -0.24,0.32zm0.5 -0.54c0,0.01 -0.01,0.01 -0.01,0.02l0 0c0,0.02 -0.01,0.04 -0.01,0.05 -0.01,0.01 -0.01,0.01 -0.01,0.02 0.01,0 0.02,0.01 0.02,0.01 0.01,0 0.01,0 0.02,0.01l0 -0.01c0.02,-0.05 0.03,-0.09 0.03,-0.1l0.01 0c0,0.01 -0.01,0.05 -0.03,0.1l0 0.01c0.01,0.01 0.03,0.02 0.04,0.03 0,-0.01 0,-0.01 0,-0.02 0.01,0 0.01,-0.02 0.01,-0.04 0,-0.02 0,-0.03 0,-0.04l0.02 0c0,0.01 -0.01,0.02 -0.01,0.04 0,0.02 0,0.04 0,0.04l0 0c-0.01,0.01 -0.01,0.02 -0.01,0.03l0 0c0.03,0.02 0.05,0.04 0.05,0.05l-0.01 0c0,-0.01 -0.02,-0.02 -0.04,-0.04 -0.01,0.01 -0.01,0.03 -0.02,0.04 -0.01,0.03 -0.02,0.05 -0.02,0.06 0,0 0,0.01 0,0.01l-0.01 0 0 0c0,0.01 -0.01,0.02 -0.03,0.03 -0.01,0.01 -0.02,0.01 -0.02,0.02l-0.01 0c0,-0.01 0.02,-0.02 0.03,-0.03 0.01,-0.01 0.02,-0.02 0.02,-0.02 0,0 0,-0.01 0,-0.01 0,-0.01 -0.01,-0.02 -0.02,-0.03 -0.01,0 -0.01,-0.01 -0.01,-0.01 -0.02,0.02 -0.03,0.04 -0.04,0.05 -0.01,0.02 -0.03,0.03 -0.04,0.05 0.01,0.01 0.02,0.02 0.02,0.02 0.01,0.01 0.01,0.02 0.02,0.02l-0.01 0.01c0,0 -0.01,-0.01 -0.01,-0.02 -0.01,-0.01 -0.01,-0.01 -0.02,-0.02l0 0 0 0c-0.02,0.02 -0.04,0.04 -0.05,0.06 -0.01,0.02 -0.02,0.03 -0.02,0.03 0.01,0.02 0.02,0.04 0.02,0.05l0 0.01 0 0.01c-0.01,0 -0.01,-0.01 -0.01,-0.01 0,-0.01 -0.01,-0.03 -0.02,-0.05 0,0.01 0,0.01 0,0.01 -0.02,0.01 -0.03,0.02 -0.05,0.04 0,0 -0.01,0.01 -0.02,0.02 0,0 0,0 0.01,0.01 0.01,0.02 0.03,0.04 0.03,0.04l-0.01 0c0,0 -0.02,-0.02 -0.03,-0.04 -0.01,0 -0.01,0 -0.01,-0.01l-0.01 0.01 0 0c-0.01,0.01 -0.01,0.01 -0.02,0.02 -0.01,0 -0.02,0.01 -0.02,0.02 -0.01,0 -0.04,0.02 -0.06,0.03 -0.01,0 -0.01,0.01 -0.02,0.01 -0.01,0 -0.01,0 -0.01,-0.01 0,0 0,-0.01 0.01,-0.01l0.01 0 -0.01 0c0.01,0 0.01,0 0.01,0 0.02,-0.01 0.05,-0.02 0.06,-0.03l0 0 0 0c0.01,-0.01 0.01,-0.01 0.02,-0.02 0.01,-0.01 0.02,-0.01 0.02,-0.02l0.01 0c-0.01,-0.02 -0.02,-0.03 -0.03,-0.04l-0.01 0.01c-0.02,0.01 -0.03,0.03 -0.05,0.04l0 0c-0.01,0.01 -0.02,0.01 -0.02,0.02 -0.01,0 -0.02,0.01 -0.02,0.02 -0.01,0 -0.02,0.01 -0.03,0.01 -0.01,0.01 -0.01,0.01 -0.02,0.01l0 -0.01c0,0 0.01,-0.01 0.02,-0.01 0.01,0 0.02,-0.01 0.02,-0.01l0 0 0 0c0.01,-0.01 0.01,-0.01 0.02,-0.02 0.01,-0.01 0.01,-0.01 0.02,-0.02 0.02,-0.01 0.04,-0.02 0.05,-0.04l0.01 0c-0.02,-0.01 -0.04,-0.02 -0.06,-0.03l0 0c-0.03,0.02 -0.05,0.04 -0.06,0.05l0 0c-0.01,0.01 -0.02,0.02 -0.03,0.03 -0.01,0 -0.02,0 -0.03,0l0 -0.01c0,0 0.01,0 0.02,0 0.01,-0.01 0.02,-0.02 0.03,-0.02 0.01,-0.02 0.04,-0.04 0.06,-0.05 0,-0.01 -0.01,-0.01 -0.01,-0.01 -0.04,-0.01 -0.07,-0.01 -0.08,-0.01l0 -0.01c0.01,0 0.04,0 0.08,0.01 0.01,0 0.01,0 0.02,0.01 0.01,-0.01 0.02,-0.01 0.02,-0.02l0 0c0.02,-0.01 0.04,-0.03 0.06,-0.05 -0.03,-0.01 -0.06,-0.02 -0.08,-0.02 -0.01,0 -0.02,0 -0.02,0l0 -0.01c0,0 0.01,0 0.02,0 0.02,0 0.06,0.01 0.09,0.02 0.01,-0.01 0.02,-0.02 0.03,-0.03 0.02,-0.01 0.03,-0.03 0.04,-0.05 -0.01,0 -0.03,0 -0.04,0 -0.01,0 -0.02,0 -0.04,0l0 -0.01c0.02,0 0.03,0 0.04,0 0.02,0 0.03,0 0.05,0 0.01,0 0.02,-0.01 0.02,-0.02 0.01,0 0.01,-0.01 0.01,-0.02 0.01,-0.01 0.03,-0.03 0.04,-0.05 0,0 -0.01,0 -0.01,0 -0.03,-0.01 -0.06,-0.01 -0.07,0l-0.01 -0.01c0.02,-0.01 0.05,-0.01 0.08,0 0.01,0 0.01,0 0.01,0 0.01,-0.01 0.02,-0.03 0.02,-0.04l0 0c0.01,-0.01 0.01,-0.02 0.02,-0.03 -0.01,0 -0.01,0 -0.01,0 -0.03,-0.01 -0.05,-0.01 -0.07,-0.01l-0.01 -0.01c0.02,0 0.05,0 0.08,0 0,0.01 0.01,0.01 0.01,0.01 0,-0.01 0,-0.01 0,-0.02 0,-0.01 0,-0.02 0.01,-0.03l0.01 0c-0.01,0.02 -0.01,0.02 -0.01,0.03 0,0.01 0,0.01 0,0.02 0.01,0 0.03,0.01 0.04,0.01 0,0 0,-0.01 0.01,-0.01 0,-0.02 0.01,-0.03 0.01,-0.05l0 -0.01c0,0 0,0 0,-0.01l0.02 0zm-0.03 0.1c-0.01,0.01 -0.01,0.02 -0.02,0.04l0 0c0,0.01 -0.01,0.02 -0.02,0.03l0 0c0.01,0 0.01,0.01 0.02,0.01 0.01,0.01 0.01,0.01 0.02,0.02 0.01,0 0.01,-0.01 0.01,-0.02l0 0c0.01,-0.01 0.02,-0.04 0.03,-0.06 -0.01,-0.01 -0.02,-0.01 -0.02,-0.01l0 0c-0.01,0 -0.01,-0.01 -0.02,-0.01zm0.05 0.02c-0.01,0.03 -0.02,0.05 -0.03,0.07 0,0 0,0.01 -0.01,0.02 0.01,0 0.01,0.01 0.02,0.01 0,0.01 0.01,0.02 0.02,0.03 0,-0.01 0.01,-0.03 0.02,-0.05 0,-0.02 0.01,-0.03 0.02,-0.05 -0.02,-0.01 -0.03,-0.02 -0.04,-0.03zm-0.1 -0.04c-0.01,0.01 -0.01,0.02 -0.02,0.03 0,0.02 -0.01,0.03 -0.02,0.04 0.02,0.01 0.03,0.01 0.04,0.02l0 0c0.01,-0.02 0.02,-0.03 0.02,-0.04 0.01,-0.01 0.01,-0.02 0.02,-0.04 -0.02,0 -0.03,-0.01 -0.04,-0.01zm0.01 0.1c-0.01,0.01 -0.01,0.02 -0.02,0.03 -0.01,0.01 -0.02,0.03 -0.03,0.04 0,0.01 -0.01,0.02 -0.02,0.03l0 0 0 0c0.02,0.01 0.03,0.02 0.04,0.03 0.01,-0.02 0.02,-0.03 0.03,-0.04 0.01,-0.02 0.03,-0.04 0.04,-0.06 -0.01,-0.01 -0.02,-0.01 -0.03,-0.02 0,0 -0.01,-0.01 -0.01,-0.01zm-0.05 -0.02c-0.01,0.02 -0.03,0.04 -0.04,0.06 0,0.01 0,0.01 -0.01,0.02 0,0 -0.01,0.01 -0.02,0.02 0.02,0 0.03,0.01 0.04,0.02l0 0 0 0c0.01,-0.01 0.02,-0.02 0.02,-0.03 0.01,-0.02 0.03,-0.03 0.03,-0.05l0 0c0.01,-0.01 0.01,-0.01 0.02,-0.02 -0.01,-0.01 -0.03,-0.01 -0.04,-0.02zm-0.02 0.13c-0.01,0.01 -0.02,0.02 -0.03,0.03 -0.01,0.01 -0.02,0.02 -0.03,0.04 0,0 -0.01,0.01 -0.02,0.02l0.01 0 0 0c0.01,0.01 0.02,0.02 0.03,0.03 0,0 0.01,-0.01 0.02,-0.02 0.01,-0.02 0.03,-0.05 0.05,-0.07l0 0c-0.01,-0.01 -0.02,-0.02 -0.03,-0.03zm-0.05 -0.02c-0.02,0.01 -0.03,0.03 -0.05,0.05 -0.01,0.01 -0.02,0.02 -0.03,0.03 0.02,0 0.03,0.01 0.05,0.02 0,-0.01 0.01,-0.01 0.01,-0.02l0 0c0.01,-0.01 0.02,-0.02 0.03,-0.04 0.01,-0.01 0.02,-0.02 0.03,-0.02l0 0c-0.02,-0.01 -0.03,-0.02 -0.04,-0.02zm-0.03 0.12l-0.01 0c-0.01,0.01 -0.02,0.02 -0.03,0.04l0 0c-0.01,0.01 -0.02,0.02 -0.03,0.03 0.01,0 0.02,0.02 0.03,0.03 0.01,-0.01 0.02,-0.02 0.03,-0.02 0.01,-0.01 0.02,-0.03 0.04,-0.04 0,0 0,0 0,-0.01 -0.01,-0.01 -0.02,-0.02 -0.03,-0.03l0 0zm-0.06 -0.04c-0.02,0.03 -0.04,0.04 -0.06,0.06 -0.01,0 -0.01,0.01 -0.02,0.01 0.02,0.01 0.04,0.02 0.06,0.03 0.01,-0.01 0.02,-0.02 0.03,-0.03 0.01,-0.01 0.02,-0.02 0.03,-0.04l0.01 0c-0.02,-0.01 -0.03,-0.02 -0.05,-0.03zm0.62 -0.03l0 0c0.07,0.05 -0.03,0.13 -0.12,0.16 -0.08,0.03 -0.11,-0.05 -0.11,-0.06 -0.02,-0.05 0.02,-0.13 0.1,-0.15 0.15,-0.04 0.13,0.04 0.13,0.04l-0.14 0.08 0.14 -0.07z"/>
 </g>
</svg>
