<?xml version="1.0" encoding="UTF-8"?>
<!DOCTYPE svg PUBLIC "-//W3C//DTD SVG 1.1//EN" "http://www.w3.org/Graphics/SVG/1.1/DTD/svg11.dtd">
<!-- Creator: CorelDRAW 2020 (64-Bit) -->
<svg xmlns="http://www.w3.org/2000/svg" xml:space="preserve" width="90px" height="90px" version="1.1" style="shape-rendering:geometricPrecision; text-rendering:geometricPrecision; image-rendering:optimizeQuality; fill-rule:evenodd; clip-rule:evenodd"
viewBox="0 0 1.1 1.1"
 xmlns:xlink="http://www.w3.org/1999/xlink"
 xmlns:xodm="http://www.corel.com/coreldraw/odm/2003">
 <defs>
  <style type="text/css">
   <![CDATA[
    .fil0 {fill:#ECECEC}
    .fil1 {fill:#F28A2E;fill-rule:nonzero}
    .fil2 {fill:white;fill-rule:nonzero}
   ]]>
  </style>
 </defs>
 <rect class="fil0" x="-75.38" y="-29.2" width="60.76" height="42.96"/>
 <g id="Capa_x0020_1">
  <metadata id="CorelCorpID_0Corel-Layer"/>
  <path class="fil1" d="M0.55 1.1l0 0c-0.3,0 -0.55,-0.25 -0.55,-0.55 0,-0.29 0.22,-0.53 0.5,-0.55l0.09 0c0.29,0.02 0.51,0.26 0.51,0.55 0,0.3 -0.24,0.55 -0.55,0.55z"/>
  <path class="fil2" d="M0.95 0.87l0 0c-0.01,0 -0.01,0 -0.01,-0.01 0,0 -0.01,0 -0.01,0 0,0 0.01,0 0.01,0 -0.02,-0.02 -0.04,-0.04 -0.07,-0.07 -0.07,-0.06 -0.14,-0.04 -0.22,-0.01 -0.07,0.02 -0.17,0.05 -0.24,0.05 -0.04,0 -0.11,-0.01 -0.15,-0.03 -0.02,-0.01 -0.03,-0.02 -0.03,-0.02 0,0 0,0.01 0,0.01 0.01,0.01 0.01,0.02 0.01,0.02 0,0.03 0.01,0.06 0.03,0.09 0.01,0.03 0.04,0.05 0.07,0.06 0.03,0.02 0.08,0.02 0.15,0.02 0.05,-0.01 0.12,-0.03 0.21,-0.06 0.04,-0.02 0.08,-0.03 0.13,-0.04 0.04,-0.01 0.08,-0.01 0.11,0l0.02 0c-0.01,0 -0.01,-0.01 -0.01,-0.01 0,0 0,0 0,0zm-0.38 -0.31l0 0c0.01,0 0.01,0 0.02,0 0.09,-0.04 0.31,-0.13 0.3,-0.13 -0.01,0.01 -0.29,0.11 -0.31,0.11 0,0.01 0,0.01 -0.01,0.01l0 -0.04c-0.01,-0.03 0,-0.03 -0.01,-0.04 -0.09,-0.62 -0.02,-0.08 -0.01,0 0,0.02 0,0.03 0,0.04l0 0 0 0 0.01 0.04c-0.01,0 -0.01,0 -0.02,0 -0.48,-0.05 -0.07,0.01 0,0.02 0.01,0 0.02,0 0.02,0 0.01,0.06 0,0.13 -0.04,0.19 0,0 0.01,0 0.01,0 0.04,-0.05 0.05,-0.13 0.04,-0.2zm0.02 0c0,-0.01 -0.01,-0.02 -0.01,-0.02 0,-0.02 0.01,-0.08 0.05,-0.12 0.07,-0.07 0.21,-0.04 0.28,0l0 0 0 0c-0.02,0.09 -0.1,0.2 -0.2,0.2 -0.06,0 -0.11,-0.05 -0.12,-0.06zm-0.03 -0.09c0.01,0 -0.01,0 -0.01,0 -0.02,-0.01 -0.1,-0.03 -0.13,-0.09 -0.06,-0.09 0.01,-0.23 0.08,-0.29l0 0 0 0c0.08,0.04 0.18,0.16 0.16,0.26 -0.02,0.06 -0.08,0.1 -0.1,0.12zm-0.02 0.08c0,0 0,0.01 0,0.02 -0.01,0.01 -0.04,0.06 -0.1,0.08 -0.04,0.01 -0.09,0 -0.12,-0.02 -0.05,-0.03 -0.09,-0.08 -0.11,-0.12l0 0 0 0c0.03,-0.03 0.09,-0.07 0.14,-0.08 0.04,-0.01 0.08,-0.01 0.12,0.01 0.05,0.03 0.07,0.09 0.07,0.11zm-0.19 0.4l0 0c-0.01,0 -0.02,-0.01 -0.02,-0.01 -0.01,0 -0.01,-0.01 -0.02,-0.01l0 0c-0.01,-0.01 -0.01,-0.02 -0.01,-0.02 -0.01,-0.01 -0.01,-0.02 -0.01,-0.03 0,0 0,-0.01 0,-0.02 0,0 0,-0.01 0.01,-0.01l0 0c0,0 0.01,-0.01 0.01,-0.01 0.01,0 0.02,0 0.02,0 0.02,0 0.03,0.01 0.04,0.02 0.02,0.02 0.02,0.03 0.02,0.04 0.01,0.01 0.01,0.02 0,0.02 0,0.01 0,0.02 0,0.02l-0.01 0c0,0 -0.01,0.01 -0.01,0.01 -0.01,0 -0.01,0 -0.02,0zm0.14 0.01l0 0c-0.01,0 -0.02,0 -0.02,0 -0.02,-0.01 -0.04,-0.02 -0.05,-0.03 -0.01,-0.01 -0.02,-0.03 -0.02,-0.04 0,-0.01 0,-0.02 0,-0.02 0,-0.01 0.01,-0.01 0.01,-0.02 0.01,0 0.01,-0.01 0.02,-0.01 0,0 0.01,0 0.02,0 0.02,0 0.03,0.01 0.04,0.03 0.01,0.01 0.02,0.02 0.02,0.04 0,0.01 0,0.01 0,0.02 0,0.01 0,0.01 -0.01,0.02l0 0 0 0c0,0 -0.01,0 -0.01,0.01zm0.1 -0.02l0 0c-0.02,0 -0.03,-0.01 -0.04,-0.02 -0.02,-0.01 -0.03,-0.02 -0.03,-0.04 0,-0.01 0,-0.01 0,-0.02 0,-0.01 0,-0.01 0.01,-0.02 0,0 0.01,-0.01 0.01,-0.01 0.01,0 0.02,0 0.02,0 0.02,0 0.04,0.01 0.05,0.02 0.01,0.01 0.02,0.03 0.03,0.04 0,0.01 0,0.02 0,0.02 -0.01,0.01 -0.01,0.01 -0.01,0.02l0 0 0 0c-0.01,0.01 -0.01,0.01 -0.02,0.01 -0.01,0 -0.01,0 -0.02,0zm0.11 -0.04l0 0c-0.01,0 -0.03,0 -0.04,-0.01 -0.02,-0.01 -0.03,-0.03 -0.03,-0.04 0,-0.01 0,-0.02 0,-0.03 0,0 0,-0.01 0,-0.01 0.01,-0.01 0.01,-0.01 0.02,-0.01 0.01,-0.01 0.01,-0.01 0.02,-0.01 0.02,0 0.03,0.01 0.05,0.02 0.01,0.01 0.02,0.02 0.02,0.04 0.01,0.01 0.01,0.01 0.01,0.02 -0.01,0.01 -0.01,0.01 -0.01,0.02 0,0 -0.01,0.01 -0.02,0.01 0,0 -0.01,0 -0.02,0zm0.11 -0.03l0 0c-0.01,0 -0.01,0 -0.02,0 -0.01,-0.01 -0.01,-0.01 -0.02,-0.01 -0.01,-0.01 -0.01,-0.02 -0.02,-0.02 0,-0.01 -0.01,-0.01 -0.01,-0.02 0,-0.01 0,-0.02 0,-0.02 0,-0.01 0,-0.01 0.01,-0.02 0,0 0.01,-0.01 0.01,-0.01 0.01,0 0.01,0 0.02,0 0.01,0 0.02,0 0.02,0 0.01,0 0.02,0.01 0.02,0.01 0.01,0.01 0.02,0.02 0.02,0.02 0,0.01 0.01,0.01 0.01,0.02 0,0.01 0,0.01 0,0.02 0,0.01 0,0.01 0,0.02 -0.01,0 -0.01,0.01 -0.02,0.01 0,0 -0.01,0 -0.02,0z"/>
 </g>
</svg>
