<?xml version="1.0" encoding="UTF-8"?>
<!DOCTYPE svg PUBLIC "-//W3C//DTD SVG 1.1//EN" "http://www.w3.org/Graphics/SVG/1.1/DTD/svg11.dtd">
<!-- Creator: CorelDRAW 2020 (64-Bit) -->
<svg xmlns="http://www.w3.org/2000/svg" xml:space="preserve" width="90px" height="90px" version="1.1" style="shape-rendering:geometricPrecision; text-rendering:geometricPrecision; image-rendering:optimizeQuality; fill-rule:evenodd; clip-rule:evenodd"
viewBox="0 0 1.01 1.01"
 xmlns:xlink="http://www.w3.org/1999/xlink"
 xmlns:xodm="http://www.corel.com/coreldraw/odm/2003">
 <defs>
  <style type="text/css">
   <![CDATA[
    .fil0 {fill:#ECECEC}
    .fil1 {fill:#F28A2E;fill-rule:nonzero}
    .fil2 {fill:white;fill-rule:nonzero}
   ]]>
  </style>
 </defs>
 <rect class="fil0" x="-72.84" y="-26.76" width="55.68" height="39.38"/>
 <g id="Capa_x0020_1">
  <metadata id="CorelCorpID_0Corel-Layer"/>
  <path class="fil1" d="M0.5 1.01l0 0c-0.28,0 -0.5,-0.23 -0.5,-0.51 0,-0.26 0.2,-0.48 0.46,-0.5l0.08 0c0.26,0.02 0.47,0.24 0.47,0.5 0,0.28 -0.23,0.51 -0.51,0.51z"/>
  <path class="fil2" d="M0.62 0.8l0 0c0.03,-0.01 0.05,-0.02 0.06,-0.03 0.02,-0.02 0.02,-0.05 0.03,-0.07 0.01,0.01 0.01,0.04 0.01,0.05 0.04,-0.02 0.05,-0.07 0.05,-0.12 0.01,-0.13 -0.01,-0.22 -0.07,-0.29 -0.03,-0.03 -0.06,-0.06 -0.09,-0.08 -0.04,-0.02 -0.09,-0.04 -0.11,-0.09 -0.02,0.06 -0.03,0.14 -0.05,0.22 0,0.03 -0.01,0.06 -0.01,0.09 -0.01,0.12 0,0.23 0.04,0.31 0,0 0.01,0.01 0.01,0.01 0,-0.05 -0.04,-0.13 -0.04,-0.2 -0.01,-0.15 0.02,-0.3 0.07,-0.39l0 0c-0.02,0.06 -0.03,0.12 -0.04,0.2 -0.01,0.05 -0.02,0.09 -0.02,0.13 0.01,0.09 0.01,0.18 0.04,0.24 0.02,-0.07 0.07,0.03 0.11,0.02 -0.02,-0.04 -0.01,-0.1 0,-0.14 0,0.04 0.01,0.09 0.01,0.14zm-0.21 -0.01l0 0c-0.01,-0.01 -0.02,-0.03 -0.01,-0.05 0.01,0.01 0.02,0.02 0.02,0.04 0.01,0 0.01,-0.01 0.02,-0.01 0.01,0.01 0.02,0.03 0.03,0.03 -0.05,-0.07 -0.06,-0.17 -0.07,-0.27 0,-0.13 0.04,-0.23 0.08,-0.32 -0.05,0.03 -0.1,0.05 -0.14,0.09 -0.07,0.06 -0.1,0.18 -0.11,0.3 0,0.01 0,0.03 0,0.04 0,0.04 0.04,0.07 0.06,0.09 -0.01,-0.02 -0.02,-0.04 -0.01,-0.06 0.03,0.05 0.05,0.12 0.13,0.12zm-0.04 -0.28l0 0c-0.01,-0.05 -0.02,-0.13 0.02,-0.16 -0.01,0.04 -0.01,0.11 -0.02,0.16zm0 -0.21l0 0c0.01,-0.02 0.01,-0.04 0.05,-0.04 -0.03,0.02 -0.04,0.07 -0.07,0.08 0,-0.02 0.01,-0.02 0.02,-0.04zm-0.03 0.34l0 0c0.01,0.02 0.02,0.03 0.01,0.05 -0.01,0 0,-0.01 -0.01,-0.02 0,-0.01 -0.02,-0.02 -0.02,-0.03 -0.01,-0.02 0,-0.06 0,-0.09 0.01,0.03 0.01,0.07 0.02,0.09zm-0.03 -0.25l0 0c0.01,0.02 0.01,0.08 0,0.1 -0.01,-0.03 -0.01,-0.07 0,-0.1zm-0.04 0.09l0 0c0,0.05 0,0.11 0.01,0.16 -0.03,-0.04 -0.04,-0.12 -0.01,-0.16zm0.36 0.14l0 0c-0.01,-0.03 -0.01,-0.07 0,-0.1 0.01,0.03 0.01,0.07 0,0.1zm0.03 0.12l0 0c0,-0.04 0,-0.08 0.01,-0.11 0.01,0.03 0.02,0.09 -0.01,0.11zm-0.02 -0.32l0 0c0.04,0.01 0.04,0.07 0.04,0.12 -0.01,-0.04 -0.03,-0.08 -0.04,-0.12zm0.1 0.21l0 0c-0.01,-0.05 -0.01,-0.11 -0.03,-0.15 0.04,0.01 0.04,0.1 0.03,0.15zm-0.04 -0.21l0 0c-0.03,-0.05 -0.06,-0.08 -0.08,-0.14 0.03,0.04 0.07,0.08 0.08,0.14zm-0.17 -0.18l0 0c0.01,0.04 0.02,0.06 0.02,0.1 -0.02,-0.02 -0.03,-0.05 -0.02,-0.1zm-0.01 0.23l0 0c0,0.03 0.01,0.07 0.02,0.1 -0.03,-0.01 -0.04,-0.06 -0.02,-0.1zm-0.01 0.14l0 0c0.01,0.05 0.04,0.08 0.05,0.13 -0.02,-0.03 -0.07,-0.08 -0.05,-0.13zm0.07 -0.07l0 0c0,-0.04 -0.01,-0.08 -0.01,-0.12 0.03,0.02 0.02,0.08 0.01,0.12z"/>
 </g>
</svg>
