<?xml version="1.0" encoding="UTF-8"?>
<!DOCTYPE svg PUBLIC "-//W3C//DTD SVG 1.1//EN" "http://www.w3.org/Graphics/SVG/1.1/DTD/svg11.dtd">
<!-- Creator: CorelDRAW 2020 (64-Bit) -->
<svg xmlns="http://www.w3.org/2000/svg" xml:space="preserve" width="90px" height="90px" version="1.1" style="shape-rendering:geometricPrecision; text-rendering:geometricPrecision; image-rendering:optimizeQuality; fill-rule:evenodd; clip-rule:evenodd"
viewBox="0 0 0.97 0.97"
 xmlns:xlink="http://www.w3.org/1999/xlink"
 xmlns:xodm="http://www.corel.com/coreldraw/odm/2003">
 <defs>
  <style type="text/css">
   <![CDATA[
    .fil0 {fill:#ECECEC}
    .fil1 {fill:#F28A2E;fill-rule:nonzero}
    .fil2 {fill:white;fill-rule:nonzero}
   ]]>
  </style>
 </defs>
 <rect class="fil0" x="-71.73" y="-25.69" width="53.45" height="37.8"/>
 <g id="Capa_x0020_1">
  <metadata id="CorelCorpID_0Corel-Layer"/>
  <path class="fil1" d="M0.48 0.97l0 0c-0.26,0 -0.48,-0.22 -0.48,-0.49 0,-0.25 0.2,-0.46 0.44,-0.48l0.08 0c0.25,0.02 0.45,0.23 0.45,0.48 0,0.27 -0.22,0.49 -0.49,0.49z"/>
  <path class="fil2" d="M0.64 0.24l0 0c-0.01,0.02 0.03,0.02 0.04,0 0,0 0,-0.02 -0.01,-0.02 -0.01,-0.01 -0.04,-0.01 -0.04,-0.01 0.01,0.01 0.01,0.02 0.01,0.03z"/>
  <path class="fil2" d="M0.41 0.24l0 0c0.01,0.01 0.03,0.03 0.04,0.03 0.01,0 0.01,-0.03 0.01,-0.04 0.01,-0.04 0.07,0 0.09,0.01 0,-0.01 -0.01,-0.02 0.01,-0.03 0.01,-0.01 0.03,-0.01 0.05,-0.01 -0.01,-0.01 -0.03,-0.04 -0.06,-0.03 -0.02,0.01 -0.02,0 -0.04,0 0,-0.01 -0.01,-0.01 -0.01,-0.01 -0.01,0 -0.01,0.01 -0.02,0.02 0,0.01 -0.01,0.01 -0.02,0.01 -0.01,0.01 -0.01,0 -0.02,0 0,-0.01 -0.01,-0.01 -0.01,-0.01 -0.04,0.01 0.01,0.05 -0.02,0.06zm0.28 0.07l0 0c-0.05,0 -0.01,-0.03 0,-0.05 -0.02,0.01 -0.04,0.01 -0.05,0 -0.02,0 -0.02,-0.02 -0.01,-0.03 0,-0.01 -0.02,-0.02 -0.03,-0.02 -0.01,0 -0.01,0 -0.01,0 -0.03,0.01 -0.03,0.01 -0.02,0.03 0,0.02 -0.02,0.01 -0.04,0 -0.03,-0.01 -0.05,-0.02 -0.06,0 0,0.01 0,0.03 -0.01,0.04 -0.02,0.01 -0.05,-0.02 -0.06,-0.03 -0.01,0.01 -0.01,0.02 -0.02,0.03 0,0.01 0,0.02 -0.01,0.03 -0.01,0.01 -0.04,0.01 -0.06,0.02 0.02,0.01 0.05,0.02 0.07,0.02 0.02,0.01 0.02,0.02 0.03,0.03 0.04,0 0.01,0.02 0.03,0.03 0,0.02 0,0.06 0,0.11 0,0.03 -0.01,0.05 -0.01,0.08 -0.01,0.1 -0.01,0.16 0.02,0.18 0,0 0,0 0,0 0,0.02 0.02,0.04 0.03,0.04 0,0.01 0.05,0.01 0.05,0 0.01,0 0.02,-0.01 0.02,-0.03 0.01,0 0.01,0 0.02,-0.01 0.04,-0.05 0.01,-0.13 0.01,-0.21 0.01,-0.07 0,-0.14 0,-0.18 0,0 0,0 0.01,0 0.01,0.01 0,0.01 0.02,-0.01 0.02,-0.02 -0.01,-0.01 0.02,-0.03 0.02,-0.02 0.04,-0.02 0.06,-0.04 0,0 0,0 0,0zm-0.24 0.29l0 0c0,-0.03 0,-0.05 0,-0.08l0 0c0,-0.05 0,-0.09 0,-0.11l0 0c0,-0.01 0,-0.01 0,-0.03 0,0 0,-0.01 -0.01,-0.02 0,0 0,0 0,0 0.01,0 0.03,0.02 0.03,0.04 0,0 0,0 0,0l0 0.1c0,0.01 0,0.02 0,0.04 -0.01,0.07 -0.03,0.14 -0.03,0.22 0,0 0,0 0,0 -0.01,-0.02 0,-0.09 0.01,-0.16zm0.08 0.2l0 0c-0.03,0.02 -0.06,0 -0.07,-0.04 0,-0.02 0,-0.06 0,-0.11 0.01,-0.04 0.02,-0.11 0.02,-0.15l0 -0.02 0.01 -0.07 0 0c0,-0.01 0,-0.02 0,-0.03 -0.01,-0.04 -0.05,-0.07 -0.05,-0.07 0,0 0.04,0.02 0.04,0 -0.01,-0.02 0.03,0.04 0.04,0.06 0.01,0.01 0.01,0.02 0.01,0.03 0,0 0,0 0,0l0 0.04c0,0.05 0,0.12 0,0.12 0.01,0.16 0.02,0.22 0,0.24zm0.04 -0.23l0 0c0.01,0.13 0.01,0.19 -0.01,0.21 0,0 0,0 0,0 0,-0.01 0,-0.01 0,-0.02 0,-0.03 -0.01,-0.07 -0.01,-0.12 0,-0.04 0,-0.08 0,-0.13l0 0 -0.01 -0.1c0,0 0,-0.01 0,-0.01l0 0c0,-0.02 0,-0.06 0,-0.07 0,-0.02 0.01,-0.04 0.01,-0.03 0,0 0,0.04 0,0.04 0.01,0.01 0.01,0 0.01,0.01 0,0.01 0.01,0.03 0.01,0.04 0,0 0,0 0,0 0,0.04 0,0.18 0,0.18zm-0.24 -0.29l0 0c0.01,0.01 0.01,0.02 0,0.03 0.01,0 0.02,0 0.03,-0.01 0.01,-0.01 0.01,-0.02 0.01,-0.03 0,-0.01 0.02,-0.03 0.01,-0.03 0,-0.01 -0.01,-0.01 -0.02,-0.01 0,0 -0.01,0 -0.01,0 -0.02,0.01 0,0.03 -0.03,0.03 -0.01,0 0.01,0.02 0.01,0.02z"/>
  <path class="fil2" d="M0.47 0.44c0,0 0.01,0 0.01,0 0,0 0,0 0,0 0,0 0.02,0.15 0.02,0.22 0.01,0.03 0,0.09 0,0.09 0,0 0,0.01 0,0.01 0,0 -0.01,-0.01 -0.01,-0.01 0,0 0.01,-0.06 0,-0.09l0 0c0,-0.07 -0.02,-0.22 -0.02,-0.22z"/>
 </g>
</svg>
