<?xml version="1.0" encoding="UTF-8"?>
<!DOCTYPE svg PUBLIC "-//W3C//DTD SVG 1.1//EN" "http://www.w3.org/Graphics/SVG/1.1/DTD/svg11.dtd">
<!-- Creator: CorelDRAW 2020 (64-Bit) -->
<svg xmlns="http://www.w3.org/2000/svg" xml:space="preserve" width="92px" height="92px" version="1.1" style="shape-rendering:geometricPrecision; text-rendering:geometricPrecision; image-rendering:optimizeQuality; fill-rule:evenodd; clip-rule:evenodd"
viewBox="0 0 0.97 0.97"
 xmlns:xlink="http://www.w3.org/1999/xlink"
 xmlns:xodm="http://www.corel.com/coreldraw/odm/2003">
 <defs>
  <style type="text/css">
   <![CDATA[
    .fil0 {fill:#ECECEC}
    .fil1 {fill:white}
    .fil2 {fill:#F28A2E;fill-rule:nonzero}
    .fil3 {fill:white;fill-rule:nonzero}
   ]]>
  </style>
 </defs>
 <rect class="fil0" x="-72.27" y="-25.22" width="52.53" height="37.15"/>
 <g id="Capa_x0020_1">
  <metadata id="CorelCorpID_0Corel-Layer"/>
  <path class="fil1" d="M0.49 0.96c-0.27,0 -0.48,-0.21 -0.48,-0.47 0,-0.27 0.21,-0.48 0.48,-0.48 0.26,0 0.47,0.21 0.47,0.48 0,0.26 -0.21,0.47 -0.47,0.47z"/>
  <path class="fil2" d="M0.14 0.14l0 0c0.13,-0.13 0.32,-0.17 0.49,-0.12l-0.19 0.19 0.17 0.18 0 0 0.23 -0.23c0.18,0.19 0.18,0.49 -0.01,0.67 -0.19,0.19 -0.5,0.19 -0.69,0 -0.19,-0.19 -0.19,-0.5 0,-0.69zm0.28 0.14l0 0 0.04 0.04 -0.06 0.09 0.01 0.01 0.09 -0.06 0.04 0.05 0.04 -0.03 -0.13 -0.13 -0.03 0.03z"/>
  <path class="fil3" d="M0.63 0.81l0 0c0,0 0.04,-0.01 0.07,-0.03 0.04,-0.02 0.03,-0.05 0.03,-0.05 0,0 0.03,0.02 -0.02,0.05 -0.03,0.03 -0.05,0.03 -0.08,0.03z"/>
  <path class="fil3" d="M0.23 0.79l0 0c-0.04,-0.04 -0.02,-0.08 0.02,-0.09 0,-0.01 0,-0.03 0,-0.04 0,-0.02 0,-0.03 0.01,-0.04 0.01,-0.01 0.01,-0.01 0.01,-0.01 0,0 0.01,0 0.01,-0.01 0.01,0 0.02,-0.01 0.02,-0.01l0 0c0,0 0,-0.01 0,-0.01 0,0 0,-0.01 0,-0.01 0,-0.01 0,-0.01 0,-0.01 -0.01,-0.02 -0.01,-0.04 0.01,-0.06 0,0 0,-0.01 0,-0.01 0,0 0.01,0 0.01,0 0,-0.01 0.01,-0.01 0.01,-0.01l0 0c0.01,0 0.02,-0.01 0.02,-0.02 0,-0.01 0.01,-0.01 0.01,-0.02 0,0 0.01,-0.01 0.02,0 0.01,0.01 0.01,0.01 0,0.02 0,0 0,0 0,0.01 -0.01,0.01 -0.01,0.03 -0.04,0.04l0 0c0,0 0,0 0,0 -0.01,0 -0.01,0.01 -0.01,0.01 -0.01,0.01 -0.01,0.02 0,0.03 0,0 0,0 0,0.01l0 0c0,0.01 0,0.02 0,0.03 0,0 0,0.01 -0.01,0.02 0,0 -0.01,0.01 -0.02,0.02 -0.01,0 -0.01,0.01 -0.02,0.01l0 0c0,0 0,0.01 0,0.02 0,0.01 0,0.02 0,0.03 0.01,0 0.02,0 0.03,0 0.02,0 0.06,0 0.11,0.01 0.13,0.02 0.12,-0.03 0.2,-0.02 0.09,0 0.18,0.04 0.14,0.1 -0.03,0.03 -0.12,0.09 -0.29,0.07 -0.13,-0.01 -0.18,0 -0.24,-0.06z"/>
  <path class="fil2" d="M0.63 0.81l0 0c0,0 0.04,-0.01 0.07,-0.03 0.04,-0.02 0.03,-0.05 0.03,-0.05 0,0 0.03,0.02 -0.02,0.05 -0.03,0.03 -0.05,0.03 -0.08,0.03z"/>
 </g>
</svg>
