<?xml version="1.0" encoding="UTF-8"?>
<!DOCTYPE svg PUBLIC "-//W3C//DTD SVG 1.1//EN" "http://www.w3.org/Graphics/SVG/1.1/DTD/svg11.dtd">
<!-- Creator: CorelDRAW 2020 (64-Bit) -->
<svg xmlns="http://www.w3.org/2000/svg" xml:space="preserve" width="90px" height="90px" version="1.1" style="shape-rendering:geometricPrecision; text-rendering:geometricPrecision; image-rendering:optimizeQuality; fill-rule:evenodd; clip-rule:evenodd"
viewBox="0 0 0.9 0.89"
 xmlns:xlink="http://www.w3.org/1999/xlink"
 xmlns:xodm="http://www.corel.com/coreldraw/odm/2003">
 <defs>
  <style type="text/css">
   <![CDATA[
    .fil0 {fill:#ECECEC}
    .fil1 {fill:#F28A2E;fill-rule:nonzero}
    .fil2 {fill:white;fill-rule:nonzero}
   ]]>
  </style>
 </defs>
 <rect class="fil0" x="-69.73" y="-23.77" width="49.46" height="34.98"/>
 <g id="Capa_x0020_1">
  <metadata id="CorelCorpID_0Corel-Layer"/>
  <path class="fil1" d="M0.45 0.89l0 0c-0.25,0 -0.45,-0.2 -0.45,-0.44 0,-0.24 0.18,-0.43 0.41,-0.45l0.07 0c0.24,0.02 0.42,0.21 0.42,0.45 0,0.24 -0.2,0.44 -0.45,0.44z"/>
  <path class="fil2" d="M0.68 0.36l0 0c-0.02,-0.01 -0.08,0.02 -0.15,0.07 -0.06,0.05 -0.08,0.12 -0.04,0.15 0.04,0.04 0.11,0.01 0.15,-0.06 0.04,-0.07 0.06,-0.13 0.05,-0.15 -0.04,0.05 -0.12,0.12 -0.12,0.12 0,0.01 0,0.01 0,0.01 -0.01,0 -0.01,0 -0.01,-0.01 0,0 0,0 0,0 0,0 0.08,-0.08 0.12,-0.13zm-0.18 -0.31l0 0c-0.04,-0.01 -0.07,-0.02 -0.09,-0.01 0.03,0.01 0.06,0.04 0.08,0.05 0,0 0.01,0 0,0 0,0 0,0.01 0,0.01 0,0 0,-0.01 0,-0.01 -0.02,-0.01 -0.06,-0.04 -0.08,-0.05 0,0 0,0 0,0 -0.01,0.01 0.01,0.04 0.05,0.08 0.03,0.03 0.07,0.03 0.09,0.01 0.01,-0.03 -0.01,-0.06 -0.05,-0.08zm-0.14 0.35l0 0c-0.03,-0.04 -0.09,-0.01 -0.13,0.05 -0.03,0.06 -0.05,0.11 -0.04,0.13 0.02,-0.03 0.06,-0.06 0.09,-0.09 0,0 0,0 0,0 0,0 0,0 0,0.01 -0.02,0.02 -0.06,0.06 -0.08,0.09 0.02,0 0.07,-0.02 0.12,-0.06 0.06,-0.04 0.08,-0.1 0.04,-0.13zm0.13 0.3l0 0c-0.04,-0.05 -0.08,-0.07 -0.1,-0.07 0.03,0.05 0.07,0.1 0.07,0.1 0,0 0,0.01 -0.01,0.01 0,0 0,0 0,0 0,0 0,0 0,0 0,0 -0.04,-0.06 -0.07,-0.11 -0.01,0.02 0,0.07 0.02,0.13 0.02,0.06 0.07,0.09 0.11,0.07 0.04,-0.03 0.03,-0.09 -0.02,-0.13zm0 -0.45l0 0c-0.02,-0.04 -0.05,-0.07 -0.07,-0.08 0.01,0.03 0.02,0.08 0.04,0.12 0,0 0,0 -0.01,0 0,0 0,0 0,0 0,0 0,0 0,0 -0.01,-0.04 -0.03,-0.09 -0.04,-0.12 0,0 0,0 0,0 -0.01,0 -0.02,0.06 -0.01,0.11 0.01,0.06 0.05,0.09 0.08,0.08 0.04,-0.01 0.04,-0.07 0.01,-0.11z"/>
 </g>
</svg>
