<?xml version="1.0" encoding="UTF-8"?>
<!DOCTYPE svg PUBLIC "-//W3C//DTD SVG 1.1//EN" "http://www.w3.org/Graphics/SVG/1.1/DTD/svg11.dtd">
<!-- Creator: CorelDRAW 2020 (64-Bit) -->
<svg xmlns="http://www.w3.org/2000/svg" xml:space="preserve" width="90px" height="90px" version="1.1" style="shape-rendering:geometricPrecision; text-rendering:geometricPrecision; image-rendering:optimizeQuality; fill-rule:evenodd; clip-rule:evenodd"
viewBox="0 0 0.86 0.86"
 xmlns:xlink="http://www.w3.org/1999/xlink"
 xmlns:xodm="http://www.corel.com/coreldraw/odm/2003">
 <defs>
  <style type="text/css">
   <![CDATA[
    .fil0 {fill:#ECECEC}
    .fil1 {fill:#F28A2E;fill-rule:nonzero}
    .fil2 {fill:white;fill-rule:nonzero}
   ]]>
  </style>
 </defs>
 <rect class="fil0" x="-68.85" y="-22.92" width="47.69" height="33.73"/>
 <g id="Capa_x0020_1">
  <metadata id="CorelCorpID_0Corel-Layer"/>
  <path class="fil1" d="M0.43 0.86l0 0c-0.24,0 -0.43,-0.19 -0.43,-0.43 0,-0.23 0.17,-0.41 0.4,-0.43l0.07 0c0.22,0.02 0.39,0.2 0.39,0.43 0,0.24 -0.19,0.43 -0.43,0.43z"/>
  <path class="fil2" d="M0.37 0.26l0 0 -0.06 0 0 0.04 0.06 0 0 0.03 -0.09 0 0 -0.16 0.09 0 0 0.03 -0.06 0 0 0.03 0.06 0 0 0.03zm0.32 0.35l0 0c-0.01,-0.01 -0.01,-0.01 -0.02,-0.01 -0.01,0 -0.01,0 -0.02,0.01 0,0 0,0 0,0 0,0 0,0 0,0.01 0,0.01 0.01,0.02 0.02,0.02 0.01,0 0.01,-0.01 0.02,-0.02 0,0 0,0 0,0 0,-0.01 0,-0.01 0,-0.01zm-0.29 -0.01l0 0 0 -0.09 -0.02 0 0 0.08 -0.07 0.04 0.01 0.02 0.08 -0.05zm0.07 -0.1l0 0 0.01 0.01 0.08 -0.04 -0.01 -0.02 -0.08 0.05zm-0.28 0l0 0c0.02,0 0.02,-0.01 0.02,-0.02 0,-0.01 0,-0.02 -0.02,-0.02 0,0 0,0 0,0 0,0 -0.01,0.01 -0.01,0.01 0,0 0,0 0,0 0,0.01 0,0.01 0,0.01 0,0.01 0,0.01 0,0.01 0,0.01 0.01,0.01 0.01,0.01zm0.04 -0.02l0 0 0.08 -0.05 0.11 0.06 0 0.1c0,0 0.01,0 0.01,0 0.01,0 0.01,0 0.02,0l0 -0.1 0.1 -0.06 0.1 0.06 0 0.1c0.01,0 0.01,-0.01 0.02,-0.01 0.01,0 0.01,0.01 0.02,0.01l0 -0.12 -0.13 -0.07 0 -0.03 -0.02 0 0 0.03 -0.11 0.06 -0.11 -0.06 0 -0.03 -0.02 0 0 0.03 -0.09 0.05c0.01,0.01 0.02,0.02 0.02,0.03zm0.41 0.12l0 0 0 -0.09 -0.02 0 0 0.08 -0.07 0.04 0.01 0.02 0.08 -0.05zm-0.41 -0.1l0 0 0.01 0.01 0.08 -0.04 -0.01 -0.02 -0.08 0.05zm0.2 0.1l0 0c-0.01,0 -0.02,0.01 -0.02,0.02 0,0.01 0.01,0.02 0.02,0.02 0,0 0,0 0,0 0,0 0,0 0.01,0 0,0 0.01,-0.01 0.01,-0.02 0,-0.01 -0.01,-0.02 -0.02,-0.02zm0.21 0.02l0 0 -0.09 0.05 -0.08 -0.05c0,0 0,0 0,0 0,0.01 -0.01,0.02 -0.02,0.03l0.09 0.05 0 0.03 0.02 0 0 -0.03 0.1 -0.05c-0.01,-0.01 -0.02,-0.02 -0.02,-0.03zm-0.43 -0.01l0 0c0,0 0,0 0,0 0,-0.01 -0.01,-0.01 -0.02,-0.01 0,0 -0.01,0 -0.01,0.01 0,0 0,0 0,0.01 0,0 0,0 0,0.01 0,0 0.01,0 0.01,0 0.01,0 0.02,0 0.02,-0.01 0,-0.01 0,-0.01 0,-0.01zm-0.03 -0.1l0 0 0 0.08c0,-0.01 0.01,-0.01 0.01,-0.01 0.01,0 0.02,0 0.02,0.01l0 -0.08c0,0 -0.01,0.01 -0.02,0.01 0,0 -0.01,-0.01 -0.01,-0.01zm0.22 0.11l0 0c0,0 0,0 0,0l-0.09 0.05 -0.08 -0.05c0,0.01 -0.01,0.02 -0.02,0.03l0.09 0.05 0 0.03 0.02 0 0 -0.03 0.09 -0.05c0,-0.01 -0.01,-0.02 -0.01,-0.03zm0.15 -0.29l0 0 -0.02 -0.03c0,-0.01 -0.01,-0.02 -0.01,-0.03l0 0c0,0.01 -0.01,0.02 -0.01,0.03l-0.01 0.03 -0.04 0 0.04 -0.08 -0.04 -0.08 0.04 0 0.01 0.03c0.01,0.01 0.01,0.02 0.01,0.03l0 0c0.01,-0.01 0.01,-0.02 0.01,-0.03l0.02 -0.03 0.04 0 -0.05 0.08 0.05 0.08 -0.04 0zm-0.1 -0.05l0 0 -0.06 0 0 -0.03 0.06 0 0 0.03z"/>
 </g>
</svg>
