<?xml version="1.0" encoding="UTF-8"?>
<!DOCTYPE svg PUBLIC "-//W3C//DTD SVG 1.1//EN" "http://www.w3.org/Graphics/SVG/1.1/DTD/svg11.dtd">
<!-- Creator: CorelDRAW 2020 (64-Bit) -->
<svg xmlns="http://www.w3.org/2000/svg" xml:space="preserve" width="90px" height="90px" version="1.1" style="shape-rendering:geometricPrecision; text-rendering:geometricPrecision; image-rendering:optimizeQuality; fill-rule:evenodd; clip-rule:evenodd"
viewBox="0 0 0.83 0.83"
 xmlns:xlink="http://www.w3.org/1999/xlink"
 xmlns:xodm="http://www.corel.com/coreldraw/odm/2003">
 <defs>
  <style type="text/css">
   <![CDATA[
    .fil0 {fill:#ECECEC}
    .fil1 {fill:#F28A2E;fill-rule:nonzero}
    .fil2 {fill:white;fill-rule:nonzero}
   ]]>
  </style>
 </defs>
 <rect class="fil0" x="-68.02" y="-22.13" width="46.05" height="32.56"/>
 <g id="Capa_x0020_1">
  <metadata id="CorelCorpID_0Corel-Layer"/>
  <path class="fil1" d="M0.83 0.42l0 0c0,0.23 -0.18,0.41 -0.41,0.41 -0.23,0 -0.42,-0.18 -0.42,-0.41 0,-0.23 0.19,-0.42 0.42,-0.42 0.23,0 0.41,0.19 0.41,0.42z"/>
  <path class="fil2" d="M0.72 0.32l0 0c0,-0.01 -0.01,-0.01 -0.02,-0.02 -0.01,0 -0.02,-0.01 -0.02,-0.01 0,0 -0.01,-0.01 -0.01,-0.02 -0.01,-0.01 -0.01,-0.03 -0.03,-0.04 -0.01,-0.01 -0.03,-0.02 -0.04,-0.02 -0.01,0 -0.02,0 -0.03,-0.01 0,0 -0.01,-0.01 -0.02,-0.01 -0.01,-0.02 -0.03,-0.03 -0.05,-0.03 -0.02,-0.01 -0.04,-0.01 -0.05,0 -0.01,0 -0.03,0 -0.03,0 -0.01,0 -0.02,0 -0.03,0 -0.02,-0.01 -0.04,-0.01 -0.06,0 -0.02,0 -0.04,0.01 -0.05,0.03 -0.01,0 -0.02,0.01 -0.02,0.01 -0.01,0.01 -0.02,0.01 -0.03,0.01 -0.01,0 -0.03,0.01 -0.04,0.02 -0.01,0.01 -0.02,0.03 -0.03,0.04 0,0.01 0,0.02 -0.01,0.02 0,0 -0.01,0.01 -0.01,0.01 -0.01,0.01 -0.03,0.01 -0.03,0.02 -0.01,0.02 -0.01,0.03 0,0.05 0,0 0,0 0,0.01 0,0 0,0 0,0 0,0.02 0,0.05 0.02,0.08 0.02,0.02 0.04,0.04 0.06,0.06 0,0 0,0 0,0 0.02,0.02 0.04,0.04 0.07,0.06 0.01,0 0.02,0.01 0.03,0.02l-0.02 0.03c-0.01,0.01 -0.01,0.02 -0.01,0.03 0.01,0.01 0.02,0.02 0.04,0.02l0.24 0c0.01,0 0.02,-0.01 0.03,-0.02 0,-0.01 0,-0.02 -0.01,-0.03l-0.02 -0.03c0.01,-0.01 0.02,-0.02 0.03,-0.02 0.03,-0.02 0.05,-0.04 0.07,-0.06 0,0 0,0 0,0 0.02,-0.02 0.04,-0.04 0.06,-0.06 0.02,-0.03 0.03,-0.06 0.02,-0.08 0,0 0,0 0,0 0,-0.01 0,-0.01 0,-0.01 0.01,-0.02 0.01,-0.03 0,-0.05zm-0.56 0.01l0 0c0,0 0.01,-0.01 0.02,-0.02 0,0 0,0 0,0l0.13 0.18 -0.15 -0.16zm0.1 -0.09l0 0c0.01,0 0.01,0 0.01,-0.01 0.01,0 0.02,0 0.02,-0.01l0.07 0.26 -0.1 -0.24zm0.16 0.25l0 0 -0.02 -0.3c0,0.01 0.01,0.01 0.02,0.01 0,0 0,0 0,0 0,0 0.01,0 0.01,-0.01l-0.01 0.3zm0.12 -0.27l0 0c0,0.01 0.01,0.01 0.02,0.01 0,0.01 0,0.01 0.01,0.01l-0.1 0.24 0.07 -0.26zm-0.02 0.27l0 0 0.13 -0.18c0,0 0,0 0,0 0.01,0.01 0.02,0.02 0.03,0.02l-0.16 0.16z"/>
 </g>
</svg>
