<?xml version="1.0" encoding="UTF-8"?>
<!DOCTYPE svg PUBLIC "-//W3C//DTD SVG 1.1//EN" "http://www.w3.org/Graphics/SVG/1.1/DTD/svg11.dtd">
<!-- Creator: CorelDRAW 2020 (64-Bit) -->
<svg xmlns="http://www.w3.org/2000/svg" xml:space="preserve" width="90px" height="90px" version="1.1" style="shape-rendering:geometricPrecision; text-rendering:geometricPrecision; image-rendering:optimizeQuality; fill-rule:evenodd; clip-rule:evenodd"
viewBox="0 0 0.8 0.8"
 xmlns:xlink="http://www.w3.org/1999/xlink"
 xmlns:xodm="http://www.corel.com/coreldraw/odm/2003">
 <defs>
  <style type="text/css">
   <![CDATA[
    .fil0 {fill:#ECECEC}
    .fil1 {fill:#F28A2E}
    .fil3 {fill:#F7DE5C;fill-rule:nonzero}
    .fil2 {fill:white;fill-rule:nonzero}
   ]]>
  </style>
 </defs>
 <rect class="fil0" x="-67.25" y="-21.39" width="44.51" height="31.47"/>
 <g id="Capa_x0020_1">
  <metadata id="CorelCorpID_0Corel-Layer"/>
  <path class="fil1" d="M0.4 0c-0.22,0 -0.4,0.18 -0.4,0.4 0,0.22 0.18,0.4 0.4,0.4 0.22,0 0.4,-0.18 0.4,-0.4 0,-0.22 -0.18,-0.4 -0.4,-0.4z"/>
  <path class="fil2" d="M0.36 0.39l0 0c0,-0.08 -0.06,-0.14 -0.14,-0.14 -0.08,0 -0.14,0.06 -0.14,0.14 0,0.08 0.05,0.11 0.13,0.12 0.08,0.02 0.15,-0.04 0.15,-0.12zm-0.03 0.03l0 0c0,0.04 -0.04,0.08 -0.13,0.07 -0.06,-0.01 -0.09,-0.03 -0.09,-0.07 0,-0.01 0,-0.01 0,-0.02 0.01,0.03 0.02,0.05 0.09,0.06 0.08,0 0.12,-0.02 0.13,-0.04 0,0 0,0 0,0z"/>
  <path class="fil2" d="M0.68 0.26l0 0c0,-0.08 -0.07,-0.15 -0.15,-0.15 -0.08,0 -0.14,0.09 -0.14,0.16 0,0.08 0.07,0.13 0.15,0.13 0.08,0 0.14,-0.06 0.14,-0.14zm-0.03 0.01l0 0c0,0 0,0 0,0 0,0.06 -0.05,0.11 -0.11,0.11 -0.06,0 -0.12,-0.03 -0.12,-0.09 0,-0.01 0,-0.02 0,-0.03 0.01,0.04 0.04,0.08 0.11,0.09 0.08,0.01 0.11,-0.04 0.12,-0.08z"/>
  <path class="fil2" d="M0.52 0.43l0 0c-0.07,-0.02 -0.13,0.01 -0.15,0.07 -0.03,0.07 0,0.15 0.07,0.18 0.06,0.02 0.14,-0.04 0.17,-0.1 0.02,-0.07 -0.03,-0.12 -0.09,-0.15zm-0.03 0.01l0 0c-0.13,0.08 -0.09,0.17 -0.07,0.21 -0.04,-0.03 -0.06,-0.09 -0.04,-0.14 0.02,-0.04 0.05,-0.08 0.11,-0.07z"/>
  <path class="fil3" d="M0.55 0.13l0 0c0.02,0 0.03,0 0.03,0 0,-0.01 -0.01,-0.01 -0.03,-0.01 -0.02,0 -0.03,0 -0.03,0 0,0.01 0.01,0.01 0.03,0.01z"/>
  <path class="fil3" d="M0.22 0.27l0 0c0.02,0 0.04,0 0.04,-0.01 0,0 -0.02,0 -0.04,0 -0.01,0 -0.03,0 -0.03,0 0,0.01 0.02,0.01 0.03,0.01z"/>
  <path class="fil3" d="M0.56 0.62l0 0c-0.01,0.01 -0.02,0.02 -0.02,0.02 0.01,0.01 0.02,0 0.03,-0.01 0.01,-0.02 0.01,-0.03 0.01,-0.04 0,0 -0.01,0.01 -0.02,0.03z"/>
 </g>
</svg>
