<?xml version="1.0" encoding="UTF-8"?>
<!DOCTYPE svg PUBLIC "-//W3C//DTD SVG 1.1//EN" "http://www.w3.org/Graphics/SVG/1.1/DTD/svg11.dtd">
<!-- Creator: CorelDRAW 2020 (64-Bit) -->
<svg xmlns="http://www.w3.org/2000/svg" xml:space="preserve" width="400px" height="400px" version="1.1" style="shape-rendering:geometricPrecision; text-rendering:geometricPrecision; image-rendering:optimizeQuality; fill-rule:evenodd; clip-rule:evenodd"
viewBox="0 0 52.5 52.5"
 xmlns:xlink="http://www.w3.org/1999/xlink"
 xmlns:xodm="http://www.corel.com/coreldraw/odm/2003">
 <defs>
  <style type="text/css">
   <![CDATA[
    .fil4 {fill:none}
    .fil0 {fill:#BF4904}
    .fil1 {fill:#F28A2E}
    .fil2 {fill:#BF4904;fill-rule:nonzero}
    .fil3 {fill:#F28A2E;fill-rule:nonzero}
   ]]>
  </style>
 </defs>
 <g id="Capa_x0020_1">
  <metadata id="CorelCorpID_0Corel-Layer"/>
  <g id="_2708042368">
   <path class="fil0" d="M34.44 37.06l3.58 -1.53 -1.15 -1.38 -5.19 2.91 2.76 0zm1.48 -4.08l-5.61 4.08 -2.7 -0.17 6.38 -6.21 1.93 2.3zm-17.34 -20.62l-3.64 -1.38 -2.16 -1.66 3.82 0.87 1.98 2.17zm2.89 3.44l-4.21 0.19 -1.25 -4.18 3.53 1.69 1.93 2.3zm2.89 3.43l-5.34 3.32 -1.17 -4.38 4.58 -1.23 1.93 2.29zm2.89 3.44l-6.47 6.44 -1.18 -4.38 5.72 -4.36 1.93 2.3zm2.89 3.43l-7.09 8.17 -1.69 -2.98 6.85 -7.48 1.93 2.29zm2.89 3.44l-6.56 6.7 -2.29 -1.32 6.92 -7.68 1.93 2.3z"/>
   <path class="fil1" d="M36.87 34.15l-1.05 2.91 1.62 0 0.58 -1.53 -1.15 -1.38zm-23.45 -26.59l-0.64 1.76 2.16 1.66 0.6 -1.66 -2.12 -1.76zm3.18 2.63l-0.59 1.62 1.25 4.18 1.32 -3.63 -1.37 -1.62 -0.61 -0.55zm2.94 3.31l-1.69 4.67 1.17 4.38 2.45 -6.75 -1.93 -2.3zm2.89 3.44l-2.83 7.79 1.18 4.38 3.58 -9.88 -1.93 -2.29zm2.89 3.43l-3.96 10.92 1.69 2.98 4.2 -11.6 -1.93 -2.3zm2.89 3.44l-4.03 11.11 2.29 1.32 3.67 -10.14 -1.93 -2.29zm2.89 3.43l-3.49 9.65c0.24,0.11 0.49,0.17 0.77,0.17l1.93 0 2.72 -7.52 -1.93 -2.3zm2.89 3.44l-2.31 6.38 2.76 0 1.48 -4.08 -1.93 -2.3z"/>
   <path class="fil1" d="M39.42 38.11l-22.44 0c-0.02,-0.11 -0.12,-0.38 -0.32,-0.68 -0.15,-0.23 -0.34,-0.43 -0.53,-0.6 -0.23,-0.18 -0.47,-0.33 -0.74,-0.43 0.06,-0.04 0.16,-0.08 0.31,-0.1 0.47,-0.06 1.01,0.22 1.38,0.45 0.58,0.37 1,0.35 1.25,0.28 0.17,-0.04 0.32,-0.14 0.43,-0.27 0.06,0.29 0.28,0.67 0.69,0.85 0.15,0.06 0.3,0.09 0.45,0.09 0.18,0 0.34,-0.05 0.46,-0.14 0.25,-0.2 0.32,-0.7 -0.08,-0.7 -0.17,0 -0.28,0.17 -0.38,0.34 -0.09,0.15 -0.19,0.3 -0.32,0.3 -0.24,0 -0.5,-0.3 -0.59,-0.49 -0.1,-0.19 -0.12,-0.37 -0.1,-0.45 0.14,-0.28 0.1,-0.64 -0.05,-0.92 -0.09,-0.18 -0.26,-0.32 -0.45,-0.4 -0.11,-0.04 -0.24,-0.07 -0.36,-0.07 -0.22,0 -0.44,0.1 -0.54,0.27 -0.15,0.28 -0.03,0.85 0.34,0.85 0.11,0 0.21,-0.07 0.25,-0.17 0.11,-0.3 -0.39,-0.41 -0.32,-0.69 0.01,-0.07 0.07,-0.1 0.12,-0.11 0.14,-0.03 0.3,-0.02 0.46,0.04 0.12,0.05 0.29,0.15 0.39,0.35 0.14,0.25 0.16,0.57 0.04,0.81 -0.09,0.19 -0.26,0.33 -0.47,0.39 -0.23,0.06 -0.61,0.07 -1.15,-0.27 -0.31,-0.2 -0.61,-0.34 -0.87,-0.41 -0.36,-0.1 -0.8,-0.12 -1.08,0.15 -0.03,0.04 -0.02,0.09 0.04,0.11 0.28,0.1 0.57,0.24 0.8,0.44 0.19,0.15 0.36,0.34 0.51,0.56 0.24,0.37 0.32,0.7 0.32,0.7 0.01,0.03 0.04,0.05 0.07,0.05l22.72 0c0.1,0 0.07,-0.17 0,-0.19 -0.09,-0.03 -0.34,-0.16 -0.39,-0.32 -0.07,-0.23 0.26,-0.37 0.13,-0.6 -0.1,-0.2 -0.34,-0.1 -0.42,0.04 -0.1,0.17 -0.09,0.36 0.02,0.55 0.1,0.16 0.27,0.31 0.42,0.39z"/>
   <path class="fil2" d="M17.66 41.14l0 -2.03c0,-0.05 -0.04,-0.1 -0.09,-0.1l-0.6 0c-0.05,0 -0.1,0.05 -0.1,0.1l0 0.26c0,0.06 0.05,0.1 0.1,0.1l0.09 0c0.06,0 0.1,0.04 0.1,0.09l0 2.04c0,0.06 0.04,0.1 0.09,0.1l1.7 0c0.05,0 0.1,-0.04 0.1,-0.1l0 -0.27c0,-0.05 -0.05,-0.1 -0.1,-0.1l-1.19 0c-0.05,0 -0.1,-0.04 -0.1,-0.09z"/>
   <path id="1" class="fil2" d="M20.95 39.01l-0.88 0c-0.06,0 -0.1,0.05 -0.1,0.1l0 0.27c0,0.05 0.04,0.09 0.1,0.09l0.03 0c0.07,0 0.12,0.08 0.09,0.14l-0.88 1.95c-0.03,0.07 0.02,0.14 0.09,0.14l0.34 0c0.04,0 0.07,-0.02 0.09,-0.05l0.18 -0.4c0.01,-0.03 0.05,-0.06 0.08,-0.06l1.29 0c0.03,0 0.07,0.03 0.08,0.06l0.18 0.39c0.01,0.04 0.05,0.06 0.08,0.06l0.35 0c0.07,0 0.11,-0.07 0.09,-0.14l-1.13 -2.49c-0.01,-0.03 -0.05,-0.06 -0.08,-0.06zm-0.69 1.64l0.43 -0.97c0.02,-0.04 0.07,-0.04 0.09,0l0.42 0.97c0.02,0.04 -0.01,0.07 -0.04,0.07l-0.85 0c-0.04,0 -0.06,-0.03 -0.05,-0.07z"/>
   <path id="2" class="fil3" d="M23.93 39.01l-1.25 0c-0.05,0 -0.09,0.05 -0.09,0.1l0 0.27c0,0.05 0.04,0.09 0.09,0.09l0.09 0c0.06,0 0.1,0.05 0.1,0.1l0 2.03c0,0.06 0.04,0.1 0.1,0.1l0.96 0c0.93,0 1.35,-0.69 1.34,-1.37 -0.02,-0.66 -0.42,-1.32 -1.34,-1.32zm0 2.2l-0.46 0c-0.06,0 -0.1,-0.04 -0.1,-0.09l0 -1.53c0,-0.05 0.04,-0.1 0.1,-0.1l0.46 0c0.58,0 0.82,0.42 0.84,0.84 0.01,0.43 -0.23,0.88 -0.84,0.88z"/>
   <path id="3" class="fil3" d="M27.89 39.37l0 -0.26c0,-0.05 -0.04,-0.1 -0.09,-0.1l-2.1 0c-0.06,0 -0.1,0.05 -0.1,0.1l0 0.26c0,0.06 0.04,0.1 0.1,0.1l0.09 0c0.05,0 0.09,0.04 0.09,0.09l0 2.04c0,0.06 0.05,0.1 0.1,0.1l1.82 0c0.05,0 0.09,-0.04 0.09,-0.1l0 -0.26c0,-0.05 -0.04,-0.09 -0.09,-0.09l-1.32 0c-0.05,0 -0.1,-0.05 -0.1,-0.1l0 -0.47c0,-0.05 0.05,-0.1 0.1,-0.1l1.12 0c0.05,0 0.09,-0.04 0.09,-0.09l0 -0.26c0,-0.06 -0.04,-0.1 -0.09,-0.1l-1.12 0c-0.05,0 -0.1,-0.04 -0.1,-0.1l0 -0.47c0,-0.05 0.05,-0.09 0.1,-0.09l1.32 0c0.05,0 0.09,-0.04 0.09,-0.1z"/>
   <path id="4" class="fil3" d="M30.4 39.11l0 0.92c0,0.06 -0.04,0.1 -0.09,0.1l-1.04 0c-0.05,0 -0.09,-0.04 -0.09,-0.1l0 -0.92c0,-0.05 -0.04,-0.1 -0.1,-0.1l-0.59 0c-0.06,0 -0.1,0.05 -0.1,0.1l0 0.26c0,0.06 0.04,0.1 0.1,0.1l0.09 0c0.05,0 0.09,0.04 0.09,0.09l0 2.04c0,0.06 0.04,0.1 0.1,0.1l0.31 0c0.06,0 0.1,-0.04 0.1,-0.1l0 -0.92c0,-0.05 0.04,-0.1 0.09,-0.1l1.04 0c0.05,0 0.09,0.05 0.09,0.1l0 0.92c0,0.06 0.05,0.1 0.1,0.1l0.31 0c0.05,0 0.09,-0.04 0.09,-0.1l0 -2.49c0,-0.05 -0.04,-0.1 -0.09,-0.1l-0.31 0c-0.05,0 -0.1,0.05 -0.1,0.1z"/>
   <path id="5" class="fil3" d="M33.69 39.37l0 -0.26c0,-0.05 -0.03,-0.1 -0.09,-0.1l-2.1 0c-0.05,0 -0.1,0.05 -0.1,0.1l0 0.26c0,0.06 0.05,0.1 0.1,0.1l0.09 0c0.05,0 0.1,0.04 0.1,0.09l0 2.04c0,0.06 0.04,0.1 0.09,0.1l1.82 0c0.06,0 0.09,-0.04 0.09,-0.1l0 -0.26c0,-0.05 -0.03,-0.09 -0.09,-0.09l-1.32 0c-0.05,0 -0.09,-0.05 -0.09,-0.1l0 -0.47c0,-0.05 0.04,-0.1 0.09,-0.1l1.13 0c0.04,0 0.09,-0.04 0.09,-0.09l0 -0.26c0,-0.06 -0.05,-0.1 -0.09,-0.1l-1.13 0c-0.05,0 -0.09,-0.04 -0.09,-0.1l0 -0.47c0,-0.05 0.04,-0.09 0.09,-0.09l1.32 0c0.06,0 0.09,-0.04 0.09,-0.1z"/>
   <path id="6" class="fil3" d="M36.08 39.62c-0.04,0.02 -0.09,0.01 -0.11,-0.02 -0.12,-0.13 -0.34,-0.25 -0.6,-0.25 -0.37,0 -0.56,0.16 -0.56,0.36 0,0.24 0.28,0.3 0.61,0.34 0.55,0.07 1.07,0.21 1.07,0.85 0,0.61 -0.52,0.86 -1.12,0.86 -0.52,0 -0.92,-0.15 -1.13,-0.57 -0.03,-0.05 -0.01,-0.11 0.04,-0.13l0.25 -0.13c0.05,-0.03 0.11,-0.01 0.13,0.04 0.14,0.23 0.42,0.34 0.72,0.34 0.32,0 0.61,-0.11 0.61,-0.41 0,-0.25 -0.26,-0.35 -0.62,-0.39 -0.55,-0.06 -1.05,-0.21 -1.05,-0.81 0,-0.55 0.54,-0.78 1.04,-0.78 0.38,0 0.78,0.1 1,0.43 0.03,0.05 0.01,0.12 -0.03,0.14l-0.25 0.13z"/>
   <path id="7" class="fil3" d="M38.49 39.01l-0.88 0c-0.06,0 -0.1,0.05 -0.1,0.1l0 0.27c0,0.05 0.04,0.09 0.1,0.09l0.03 0c0.07,0 0.12,0.08 0.09,0.14l-0.88 1.95c-0.03,0.07 0.02,0.14 0.09,0.14l0.34 0c0.04,0 0.07,-0.02 0.09,-0.05l0.18 -0.4c0.01,-0.03 0.05,-0.06 0.08,-0.06l1.29 0c0.03,0 0.07,0.03 0.08,0.06l0.18 0.39c0.01,0.04 0.05,0.06 0.08,0.06l0.35 0c0.07,0 0.11,-0.07 0.09,-0.14l-1.13 -2.49c-0.01,-0.03 -0.05,-0.06 -0.08,-0.06zm-0.69 1.64l0.43 -0.97c0.02,-0.04 0.07,-0.04 0.09,0l0.42 0.97c0.02,0.04 -0.01,0.07 -0.04,0.07l-0.85 0c-0.04,0 -0.06,-0.03 -0.05,-0.07z"/>
   <path class="fil2" d="M23.31 42.56l-0.67 0c-0.03,0 -0.05,0.02 -0.05,0.05l0 0.15c0,0.03 0.02,0.05 0.05,0.05l0.05 0c0.03,0 0.05,0.02 0.05,0.05l0 1.09c0,0.03 0.03,0.05 0.05,0.05l0.52 0c0.5,0 0.72,-0.37 0.72,-0.73 -0.01,-0.35 -0.23,-0.71 -0.72,-0.71zm0 1.18l-0.25 0c-0.03,0 -0.05,-0.02 -0.05,-0.05l0 -0.82c0,-0.03 0.02,-0.05 0.05,-0.05l0.25 0c0.31,0 0.44,0.22 0.45,0.45 0,0.23 -0.12,0.47 -0.45,0.47z"/>
   <path id="1" class="fil2" d="M25.49 42.76l0 -0.15c0,-0.03 -0.02,-0.05 -0.05,-0.05l-1.13 0c-0.03,0 -0.05,0.02 -0.05,0.05l0 0.15c0,0.02 0.02,0.05 0.05,0.05l0.05 0c0.03,0 0.05,0.02 0.05,0.05l0 1.09c0,0.03 0.02,0.05 0.05,0.05l0.98 0c0.03,0 0.05,-0.02 0.05,-0.05l0 -0.14c0,-0.03 -0.02,-0.05 -0.05,-0.05l-0.71 0c-0.03,0 -0.05,-0.02 -0.05,-0.05l0 -0.26c0,-0.02 0.02,-0.05 0.05,-0.05l0.6 0c0.03,0 0.05,-0.02 0.05,-0.05l0 -0.14c0,-0.03 -0.02,-0.05 -0.05,-0.05l-0.6 0c-0.03,0 -0.05,-0.02 -0.05,-0.05l0 -0.25c0,-0.03 0.02,-0.05 0.05,-0.05l0.71 0c0.03,0 0.05,-0.03 0.05,-0.05z"/>
   <path id="2" class="fil2" d="M26.18 43.7l0 -1.09c0,-0.03 -0.03,-0.05 -0.06,-0.05l-0.32 0c-0.02,0 -0.05,0.02 -0.05,0.05l0 0.15c0,0.02 0.03,0.05 0.05,0.05l0.05 0c0.03,0 0.06,0.02 0.06,0.05l0 1.09c0,0.03 0.02,0.05 0.05,0.05l0.9 0c0.03,0 0.06,-0.02 0.06,-0.05l0 -0.15c0,-0.03 -0.03,-0.05 -0.06,-0.05l-0.63 0c-0.03,0 -0.05,-0.02 -0.05,-0.05z"/>
   <path id="3" class="fil3" d="M28.88 42.58l-1.09 0c-0.05,0 -0.09,0.04 -0.09,0.08l0 0.23c0,0.05 0.04,0.09 0.09,0.09l0.65 0c0.05,0 0.08,0.03 0.08,0.07l0 0.86c0,0.35 -0.18,0.63 -0.58,0.63 -0.16,0 -0.28,-0.03 -0.37,-0.1 -0.04,-0.02 -0.08,-0.02 -0.1,0.01l-0.19 0.18c-0.04,0.04 -0.03,0.1 0.01,0.13 0.18,0.12 0.4,0.19 0.65,0.19 0.64,0 1.02,-0.44 1.02,-1.04l0 -1.25c0,-0.04 -0.04,-0.08 -0.08,-0.08z"/>
   <path id="4" class="fil3" d="M30.83 42.58l-0.76 0c-0.05,0 -0.09,0.04 -0.09,0.08l0 0.24c0,0.04 0.04,0.08 0.09,0.08l0.03 0c0.06,0 0.1,0.06 0.08,0.12l-0.76 1.69c-0.03,0.05 0.01,0.11 0.07,0.11l0.3 0c0.03,0 0.06,-0.01 0.07,-0.04l0.16 -0.34c0.01,-0.03 0.04,-0.05 0.07,-0.05l1.11 0c0.03,0 0.06,0.02 0.07,0.05l0.15 0.33c0.02,0.04 0.05,0.05 0.08,0.05l0.3 0c0.06,0 0.1,-0.06 0.07,-0.11l-0.97 -2.16c-0.01,-0.03 -0.04,-0.05 -0.07,-0.05zm-0.59 1.42l0.37 -0.84c0.01,-0.04 0.06,-0.04 0.07,0l0.37 0.84c0.01,0.03 -0.01,0.06 -0.04,0.06l-0.73 0c-0.03,0 -0.05,-0.03 -0.04,-0.06z"/>
   <path id="5" class="fil3" d="M34.28 42.61l-0.67 0.92c-0.01,0.03 -0.05,0.03 -0.06,0l-0.67 -0.92c-0.02,-0.02 -0.04,-0.03 -0.07,-0.03l-0.62 0c-0.05,0 -0.08,0.04 -0.08,0.08l0 0.23c0,0.05 0.03,0.09 0.08,0.09l0.08 0c0.04,0 0.08,0.03 0.08,0.07l0 1.77c0,0.05 0.04,0.08 0.08,0.08l0.28 0c0.04,0 0.08,-0.03 0.08,-0.08l0 -1.48c0,-0.04 0.05,-0.06 0.07,-0.02l0.65 0.88c0.03,0.04 0.1,0.04 0.13,0l0.66 -0.88c0.02,-0.03 0.07,-0.02 0.07,0.02l0 1.48c0,0.05 0.04,0.08 0.09,0.08l0.27 0c0.04,0 0.08,-0.03 0.08,-0.08l0 -2.16c0,-0.04 -0.04,-0.08 -0.08,-0.08l-0.38 0c-0.02,0 -0.05,0.01 -0.07,0.03z"/>
   <path id="6" class="fil3" d="M39.29 42.66l0 1.24c0,0.05 -0.05,0.06 -0.08,0.03l-1.03 -1.32c-0.02,-0.02 -0.05,-0.03 -0.07,-0.03l-0.48 0c-0.04,0 -0.08,0.04 -0.08,0.08l0 0.23c0,0.05 0.04,0.09 0.08,0.09l0.08 0c0.05,0 0.08,0.03 0.08,0.07l0 1.77c0,0.05 0.04,0.08 0.09,0.08l0.27 0c0.05,0 0.08,-0.03 0.08,-0.08l0 -1.36c0,-0.04 0.05,-0.06 0.07,-0.02l1.13 1.43c0.02,0.02 0.04,0.03 0.06,0.03l0.15 0c0.05,0 0.08,-0.03 0.08,-0.08l0 -2.16c0,-0.04 -0.03,-0.08 -0.08,-0.08l-0.27 0c-0.05,0 -0.08,0.04 -0.08,0.08z"/>
   <path id="7" class="fil3" d="M35.35 42.98l1.57 0c0.05,0 0.09,-0.04 0.09,-0.09l0 -0.23c0,-0.05 -0.04,-0.09 -0.09,-0.09l-1.57 0c-0.05,0 -0.08,0.04 -0.08,0.09l0 0.23c0,0.05 0.03,0.09 0.08,0.09zm0.79 0.3c-0.45,-0.01 -0.91,0.23 -0.91,0.83 0,0.6 0.46,0.83 0.92,0.83 0.45,0 0.9,-0.22 0.9,-0.83 0,-0.61 -0.46,-0.83 -0.91,-0.83zm0.01 1.25c-0.25,0.01 -0.52,-0.08 -0.52,-0.42 0,-0.34 0.27,-0.43 0.52,-0.43 0.24,0.01 0.49,0.09 0.49,0.43 0,0.34 -0.25,0.42 -0.49,0.42z"/>
  </g>
  <rect class="fil4" width="52.5" height="52.5"/>
 </g>
</svg>
