<svg xmlns="http://www.w3.org/2000/svg" xml:space="preserve" width="500" height="500" style="shape-rendering:geometricPrecision;text-rendering:geometricPrecision;image-rendering:optimizeQuality;fill-rule:evenodd;clip-rule:evenodd" viewBox="0 0 192.72 192.51"><defs><style>.fil1{fill:#2b2a29;fill-rule:nonzero}</style></defs><path style="fill:#ececec" d="M-1082.26-155.45h618.52v437.38h-618.52z"/><g id="Capa_x0020_1"><path class="fil1" d="M49.47 1.07c1.34-.56 3.08.47 2.97 1.98.17 1.79-2.42 2.88-3.58 1.48-1.12-.96-.66-2.86.61-3.46m10.39 0c1.34-.56 3.08.47 2.97 1.98.17 1.79-2.42 2.88-3.58 1.48-1.12-.96-.66-2.86.61-3.46m10.39 0c1.34-.56 3.08.47 2.97 1.98.17 1.79-2.43 2.88-3.58 1.48-1.12-.96-.66-2.86.61-3.46m5.2 0c1.34-.56 3.07.47 2.97 1.98.17 1.79-2.43 2.88-3.58 1.48-1.12-.96-.67-2.86.61-3.46m5.19 0c1.34-.56 3.08.47 2.97 1.98.17 1.79-2.43 2.88-3.58 1.48-1.12-.96-.66-2.86.61-3.46m5.2 0c1.34-.56 3.07.47 2.97 1.98.17 1.79-2.43 2.88-3.58 1.48-1.12-.96-.66-2.86.61-3.46m10.39 0c1.34-.56 3.07.47 2.97 1.98.17 1.79-2.43 2.88-3.58 1.48-1.12-.96-.66-2.86.61-3.46m10.39 0c1.34-.56 3.07.47 2.97 1.98.17 1.79-2.43 2.88-3.58 1.48-1.12-.96-.66-2.86.61-3.46m5.19 0c1.34-.56 3.08.47 2.98 1.98.16 1.79-2.44 2.88-3.58 1.48-1.13-.96-.67-2.86.6-3.46m5.2 0c1.34-.56 3.07.47 2.97 1.98.17 1.79-2.43 2.88-3.58 1.48-1.12-.96-.66-2.86.61-3.46m10.39 0c1.34-.56 3.08.47 2.97 1.98.17 1.79-2.43 2.88-3.58 1.48-1.12-.96-.66-2.86.61-3.46m15.59 0c1.34-.56 3.07.47 2.97 1.98.16 1.79-2.43 2.88-3.58 1.48-1.12-.96-.67-2.86.61-3.46m5.19 0c1.34-.56 3.08.47 2.97 1.98.17 1.79-2.43 2.88-3.58 1.48-1.12-.96-.66-2.86.61-3.46m-98.71 5.2c1.34-.57 3.08.47 2.97 1.97.17 1.8-2.42 2.88-3.58 1.48-1.12-.95-.66-2.85.61-3.45m5.2 0c1.34-.57 3.07.47 2.97 1.97.16 1.8-2.43 2.88-3.58 1.48-1.12-.95-.67-2.85.61-3.45m5.19 0c1.34-.57 3.08.47 2.97 1.97.17 1.8-2.42 2.88-3.58 1.48-1.12-.95-.66-2.85.61-3.45m10.39 0c1.34-.57 3.08.47 2.97 1.97.17 1.8-2.43 2.88-3.58 1.48-1.12-.95-.66-2.85.61-3.45m10.39 0c1.34-.57 3.08.47 2.97 1.97.17 1.8-2.43 2.88-3.58 1.48-1.12-.95-.66-2.85.61-3.45m5.2 0c1.34-.57 3.07.47 2.97 1.97.17 1.8-2.43 2.88-3.58 1.48-1.12-.95-.66-2.85.61-3.45m15.58 0c1.34-.57 3.08.47 2.98 1.97.16 1.8-2.44 2.88-3.58 1.48-1.13-.95-.67-2.85.6-3.45m10.39 0c1.34-.57 3.08.47 2.98 1.97.16 1.8-2.44 2.88-3.58 1.48-1.13-.95-.67-2.85.6-3.45m25.98 0c1.34-.57 3.08.47 2.97 1.97.17 1.8-2.43 2.88-3.58 1.48-1.12-.95-.66-2.85.61-3.45m-93.51 5.19c1.34-.56 3.07.48 2.97 1.98.16 1.79-2.43 2.88-3.58 1.48-1.12-.96-.67-2.86.61-3.46m10.39 0c1.34-.56 3.07.48 2.97 1.98.16 1.79-2.43 2.88-3.58 1.48-1.12-.96-.67-2.86.61-3.46m10.39 0c1.34-.56 3.07.48 2.97 1.98.16 1.79-2.43 2.88-3.58 1.48-1.12-.96-.67-2.86.61-3.46m36.36 0c1.34-.56 3.08.48 2.98 1.98.16 1.79-2.44 2.88-3.58 1.48-1.13-.96-.67-2.86.6-3.46m5.2 0c1.34-.56 3.07.48 2.97 1.98.17 1.79-2.43 2.88-3.58 1.48-1.12-.96-.66-2.86.61-3.46m5.19 0c1.34-.56 3.08.48 2.98 1.98.16 1.79-2.44 2.88-3.58 1.48-1.13-.96-.67-2.86.6-3.46m5.2 0c1.34-.56 3.07.48 2.97 1.98.17 1.79-2.43 2.88-3.58 1.48-1.12-.96-.66-2.86.61-3.46m10.39 0c1.34-.56 3.08.48 2.97 1.98.17 1.79-2.43 2.88-3.58 1.48-1.12-.96-.66-2.86.61-3.46m10.39 0c1.34-.56 3.08.48 2.97 1.98.17 1.79-2.43 2.88-3.58 1.48-1.12-.96-.66-2.86.61-3.46m10.39 0c1.34-.56 3.08.48 2.97 1.98.17 1.79-2.43 2.88-3.58 1.48-1.12-.96-.66-2.86.61-3.46m-103.9 5.2c1.34-.57 3.07.47 2.97 1.97.16 1.8-2.43 2.89-3.58 1.48-1.12-.95-.67-2.85.61-3.45m15.58 0c1.34-.57 3.08.47 2.97 1.97.17 1.8-2.42 2.89-3.58 1.48-1.12-.95-.66-2.85.61-3.45m10.39 0c1.34-.57 3.08.47 2.97 1.97.17 1.8-2.43 2.89-3.58 1.48-1.12-.95-.66-2.85.61-3.45m5.2 0c1.34-.57 3.07.47 2.97 1.97.17 1.8-2.43 2.89-3.58 1.48-1.12-.95-.67-2.85.61-3.45m15.58 0c1.34-.57 3.08.47 2.97 1.97.17 1.8-2.43 2.89-3.57 1.48-1.13-.95-.67-2.85.6-3.45m10.39 0c1.34-.57 3.08.47 2.98 1.97.16 1.8-2.44 2.89-3.58 1.48-1.13-.95-.67-2.85.6-3.45m5.2 0c1.34-.57 3.07.47 2.97 1.97.17 1.8-2.43 2.89-3.58 1.48-1.12-.95-.66-2.85.61-3.45m10.39 0c1.34-.57 3.07.47 2.97 1.97.17 1.8-2.43 2.89-3.58 1.48-1.12-.95-.66-2.85.61-3.45m10.39 0c1.34-.57 3.08.47 2.97 1.97.17 1.8-2.43 2.89-3.58 1.48-1.12-.95-.66-2.85.61-3.45m5.19 0c1.35-.57 3.08.47 2.98 1.97.16 1.8-2.43 2.89-3.58 1.48-1.13-.95-.67-2.85.6-3.45m5.2 0c1.34-.57 3.08.47 2.97 1.97.17 1.8-2.43 2.89-3.58 1.48-1.12-.95-.66-2.85.61-3.45m-93.51 5.19c1.34-.56 3.07.48 2.97 1.98.16 1.79-2.43 2.88-3.58 1.48-1.12-.96-.67-2.85.61-3.46m20.78 0c1.34-.56 3.07.48 2.97 1.98.16 1.79-2.43 2.88-3.58 1.48-1.12-.96-.67-2.85.61-3.46m31.17 0c1.34-.56 3.07.48 2.97 1.98.17 1.79-2.43 2.88-3.58 1.48-1.12-.96-.66-2.85.61-3.46m5.19 0c1.34-.56 3.08.48 2.98 1.98.16 1.79-2.44 2.88-3.58 1.48-1.13-.96-.67-2.85.6-3.46m5.2 0c1.34-.56 3.07.48 2.97 1.98.17 1.79-2.43 2.88-3.58 1.48-1.12-.96-.66-2.85.61-3.46m10.39 0c1.34-.56 3.07.48 2.97 1.98.17 1.79-2.43 2.88-3.58 1.48-1.12-.96-.66-2.85.61-3.46m5.19 0c1.34-.56 3.08.48 2.98 1.98.16 1.79-2.44 2.88-3.58 1.48-1.13-.96-.67-2.85.6-3.46m25.98 0c1.34-.56 3.08.48 2.97 1.98.17 1.79-2.43 2.88-3.58 1.48-1.12-.96-.66-2.85.61-3.46m-103.9 5.2c1.34-.57 3.07.47 2.97 1.97.16 1.8-2.43 2.89-3.58 1.48-1.12-.95-.67-2.85.61-3.45m10.39 0c1.34-.57 3.07.47 2.97 1.97.16 1.8-2.43 2.89-3.58 1.48-1.12-.95-.67-2.85.61-3.45m10.39 0c1.34-.57 3.07.47 2.97 1.97.16 1.8-2.43 2.89-3.58 1.48-1.12-.95-.67-2.85.61-3.45m10.39 0c1.34-.57 3.07.47 2.97 1.97.17 1.8-2.43 2.89-3.58 1.48-1.12-.95-.67-2.85.61-3.45m5.19 0c1.34-.57 3.08.47 2.97 1.97.17 1.8-2.43 2.89-3.58 1.48-1.12-.95-.66-2.85.61-3.45m5.2 0c1.34-.57 3.07.47 2.97 1.97.17 1.8-2.43 2.89-3.58 1.48-1.12-.95-.66-2.85.61-3.45m10.39 0c1.34-.57 3.07.47 2.97 1.97.17 1.8-2.43 2.89-3.58 1.48-1.12-.95-.66-2.85.61-3.45m20.78 0c1.34-.57 3.07.47 2.97 1.97.17 1.8-2.43 2.89-3.58 1.48-1.12-.95-.66-2.85.61-3.45m25.98 0c1.34-.57 3.07.47 2.97 1.97.16 1.8-2.43 2.89-3.58 1.48-1.12-.95-.67-2.85.61-3.45m-98.71 5.19c1.34-.56 3.07.48 2.97 1.98.16 1.79-2.43 2.88-3.58 1.48-1.12-.96-.67-2.85.61-3.46m10.39 0c1.34-.56 3.07.48 2.97 1.98.16 1.79-2.43 2.88-3.58 1.48-1.12-.96-.67-2.85.61-3.46m10.39 0c1.34-.56 3.07.48 2.97 1.98.16 1.79-2.43 2.88-3.58 1.48-1.12-.96-.67-2.85.61-3.46m10.39 0c1.34-.56 3.07.48 2.97 1.98.17 1.79-2.43 2.88-3.58 1.48-1.12-.96-.67-2.85.61-3.46m10.39 0c1.34-.56 3.07.48 2.97 1.98.17 1.79-2.43 2.88-3.58 1.48-1.12-.96-.66-2.85.61-3.46m10.39 0c1.34-.56 3.07.48 2.97 1.98.17 1.79-2.43 2.88-3.58 1.48-1.12-.96-.66-2.85.61-3.46m10.39 0c1.34-.56 3.07.48 2.97 1.98.17 1.79-2.43 2.88-3.58 1.48-1.12-.96-.66-2.85.61-3.46m10.39 0c1.34-.56 3.07.48 2.97 1.98.17 1.79-2.43 2.88-3.58 1.48-1.12-.96-.66-2.85.61-3.46m10.39 0c1.34-.56 3.08.48 2.97 1.98.17 1.79-2.43 2.88-3.58 1.48-1.12-.96-.66-2.85.61-3.46m10.39 0c1.34-.56 3.08.48 2.97 1.98.17 1.79-2.43 2.88-3.58 1.48-1.12-.96-.66-2.85.61-3.46m10.39 0c1.34-.56 3.08.48 2.97 1.98.17 1.79-2.43 2.88-3.58 1.48-1.12-.96-.66-2.85.61-3.46m-103.9 5.2c1.34-.57 3.07.47 2.97 1.97.16 1.8-2.43 2.89-3.58 1.48-1.12-.95-.67-2.85.61-3.45m20.78 0c1.34-.57 3.07.47 2.97 1.97.16 1.8-2.43 2.89-3.58 1.48-1.12-.95-.67-2.85.61-3.45m15.58 0c1.34-.57 3.08.47 2.97 1.97.17 1.8-2.43 2.89-3.58 1.48-1.12-.95-.66-2.85.61-3.45m5.2 0c1.34-.57 3.07.47 2.97 1.97.17 1.8-2.43 2.89-3.58 1.48-1.12-.95-.66-2.85.61-3.45m51.95 0c1.34-.57 3.08.47 2.97 1.97.17 1.8-2.43 2.89-3.58 1.48-1.12-.95-.66-2.85.61-3.45m5.2 0c1.34-.57 3.07.47 2.97 1.97.16 1.8-2.43 2.89-3.58 1.48-1.12-.95-.67-2.85.61-3.45m5.19 0c1.34-.57 3.08.47 2.97 1.97.17 1.8-2.43 2.89-3.58 1.48-1.12-.95-.66-2.85.61-3.45M2.71 42.63c1.34-.56 3.08.48 2.98 1.98.16 1.8-2.43 2.88-3.58 1.48-1.13-.96-.67-2.85.6-3.46m10.39 0c1.34-.56 3.08.48 2.98 1.98.16 1.8-2.43 2.88-3.58 1.48-1.13-.96-.67-2.85.6-3.46m5.2 0c1.34-.56 3.08.48 2.97 1.98.17 1.8-2.42 2.88-3.58 1.48-1.12-.96-.66-2.85.61-3.46m5.2 0c1.34-.56 3.07.48 2.97 1.98.16 1.8-2.43 2.88-3.58 1.48-1.13-.96-.67-2.85.61-3.46m5.19 0c1.34-.56 3.08.48 2.97 1.98.17 1.8-2.42 2.88-3.58 1.48-1.12-.96-.66-2.85.61-3.46m5.2 0c1.34-.56 3.07.48 2.97 1.98.16 1.8-2.43 2.88-3.58 1.48-1.12-.96-.67-2.85.61-3.46m41.56 0c1.34-.56 3.07.48 2.97 1.98.17 1.8-2.43 2.88-3.58 1.48-1.12-.96-.67-2.85.61-3.46m20.78 0c1.34-.56 3.07.48 2.97 1.98.17 1.8-2.43 2.88-3.58 1.48-1.12-.96-.66-2.85.61-3.46m5.19 0c1.34-.56 3.08.48 2.98 1.98.16 1.8-2.44 2.88-3.58 1.48-1.13-.96-.67-2.85.6-3.46m5.2 0c1.34-.56 3.07.48 2.97 1.98.17 1.8-2.43 2.88-3.58 1.48-1.12-.96-.66-2.85.61-3.46m5.19 0c1.34-.56 3.08.48 2.98 1.98.16 1.8-2.44 2.88-3.58 1.48-1.13-.96-.67-2.85.6-3.46m5.2 0c1.34-.56 3.07.48 2.97 1.98.17 1.8-2.43 2.88-3.58 1.48-1.12-.96-.66-2.85.61-3.46m10.39 0c1.34-.56 3.08.48 2.97 1.98.17 1.8-2.43 2.88-3.58 1.48-1.12-.96-.66-2.85.61-3.46m15.59 0c1.34-.56 3.07.48 2.97 1.98.16 1.8-2.43 2.88-3.58 1.48-1.12-.96-.67-2.85.61-3.46m5.19 0c1.34-.56 3.08.48 2.97 1.98.17 1.8-2.43 2.88-3.58 1.48-1.12-.96-.66-2.85.61-3.46m10.39 0c1.34-.56 3.08.48 2.97 1.98.17 1.8-2.43 2.88-3.58 1.48-1.12-.96-.66-2.85.61-3.46m5.2 0c1.34-.56 3.07.48 2.97 1.98.16 1.8-2.43 2.88-3.58 1.48-1.12-.96-.67-2.85.61-3.46m5.19 0c1.34-.56 3.08.48 2.97 1.98.17 1.8-2.43 2.88-3.58 1.48-1.12-.96-.66-2.85.61-3.46m5.2 0c1.34-.56 3.07.48 2.97 1.98.16 1.8-2.43 2.88-3.58 1.48-1.12-.96-.67-2.85.61-3.46m5.19 0c1.34-.56 3.08.48 2.97 1.98.17 1.8-2.43 2.88-3.58 1.48-1.12-.96-.66-2.85.61-3.46M13.1 47.83c1.34-.57 3.08.47 2.98 1.97.16 1.8-2.43 2.89-3.58 1.48-1.13-.95-.67-2.85.6-3.45m5.2 0c1.34-.57 3.08.47 2.97 1.97.17 1.8-2.42 2.89-3.58 1.48-1.12-.95-.66-2.85.61-3.45m5.2 0c1.34-.57 3.07.47 2.97 1.97.16 1.8-2.43 2.89-3.58 1.48-1.13-.95-.67-2.85.61-3.45m5.19 0c1.34-.57 3.08.47 2.97 1.97.17 1.8-2.42 2.89-3.58 1.48-1.12-.95-.66-2.85.61-3.45m10.39 0c1.34-.57 3.08.47 2.97 1.97.17 1.8-2.42 2.89-3.58 1.48-1.12-.95-.66-2.85.61-3.45m10.39 0c1.34-.57 3.08.47 2.97 1.97.17 1.8-2.42 2.89-3.58 1.48-1.12-.95-.66-2.85.61-3.45m5.2 0c1.34-.57 3.07.47 2.97 1.97.16 1.8-2.43 2.89-3.58 1.48-1.12-.95-.67-2.85.61-3.45m5.19 0c1.34-.57 3.08.47 2.97 1.97.17 1.8-2.42 2.89-3.58 1.48-1.12-.95-.66-2.85.61-3.45m10.39 0c1.34-.57 3.08.47 2.97 1.97.17 1.8-2.43 2.89-3.58 1.48-1.12-.95-.66-2.85.61-3.45m10.39 0c1.34-.57 3.08.47 2.97 1.97.17 1.8-2.43 2.89-3.58 1.48-1.12-.95-.66-2.85.61-3.45m5.2 0c1.34-.57 3.07.47 2.97 1.97.17 1.8-2.43 2.89-3.58 1.48-1.12-.95-.66-2.85.61-3.45m25.97 0c1.34-.57 3.08.47 2.98 1.97.16 1.8-2.44 2.89-3.58 1.48-1.13-.95-.67-2.85.6-3.45m20.78 0c1.35-.57 3.08.47 2.98 1.97.16 1.8-2.43 2.89-3.58 1.48-1.13-.95-.67-2.85.6-3.45m5.2 0c1.34-.57 3.08.47 2.97 1.97.17 1.8-2.43 2.89-3.58 1.48-1.12-.95-.66-2.85.61-3.45m5.2 0c1.34-.57 3.07.47 2.97 1.97.16 1.8-2.43 2.89-3.58 1.48-1.12-.95-.67-2.85.61-3.45m20.78 0c1.34-.57 3.07.47 2.97 1.97.16 1.8-2.43 2.89-3.58 1.48-1.12-.95-.67-2.85.61-3.45m15.58 0c1.34-.57 3.08.47 2.97 1.97.17 1.8-2.43 2.89-3.58 1.48-1.12-.95-.66-2.85.61-3.45m5.2 0c1.34-.57 3.07.47 2.97 1.97.17 1.8-2.43 2.89-3.58 1.48-1.12-.95-.67-2.85.61-3.45M23.5 53.02c1.34-.56 3.07.48 2.97 1.98.16 1.8-2.43 2.88-3.58 1.48-1.13-.96-.67-2.85.61-3.46m10.39 0c1.34-.56 3.07.48 2.97 1.98.16 1.8-2.43 2.88-3.58 1.48-1.12-.96-.67-2.85.61-3.46m5.19 0c1.34-.56 3.08.48 2.97 1.98.17 1.8-2.42 2.88-3.58 1.48-1.12-.96-.66-2.85.61-3.46m5.2 0c1.34-.56 3.07.48 2.97 1.98.16 1.8-2.43 2.88-3.58 1.48-1.12-.96-.67-2.85.61-3.46m5.19 0c1.34-.56 3.08.48 2.97 1.98.17 1.8-2.42 2.88-3.58 1.48-1.12-.96-.66-2.85.61-3.46m15.59 0c1.34-.56 3.07.48 2.97 1.98.16 1.8-2.43 2.88-3.58 1.48-1.12-.96-.67-2.85.61-3.46m10.39 0c1.34-.56 3.07.48 2.97 1.98.17 1.8-2.43 2.88-3.58 1.48-1.12-.96-.67-2.85.61-3.46m15.58 0c1.34-.56 3.08.48 2.97 1.98.17 1.8-2.43 2.88-3.57 1.48-1.13-.96-.67-2.85.6-3.46m5.2 0c1.34-.56 3.07.48 2.97 1.98.17 1.8-2.43 2.88-3.58 1.48-1.12-.96-.66-2.85.61-3.46m10.39 0c1.34-.56 3.07.48 2.97 1.98.17 1.8-2.43 2.88-3.58 1.48-1.12-.96-.66-2.85.61-3.46m5.19 0c1.34-.56 3.08.48 2.98 1.98.16 1.8-2.44 2.88-3.58 1.48-1.13-.96-.67-2.85.6-3.46m5.2 0c1.34-.56 3.07.48 2.97 1.98.17 1.8-2.43 2.88-3.58 1.48-1.12-.96-.66-2.85.61-3.46m5.19 0c1.34-.56 3.08.48 2.98 1.98.16 1.8-2.44 2.88-3.58 1.48-1.13-.96-.67-2.85.6-3.46m5.2 0c1.34-.56 3.08.48 2.97 1.98.17 1.8-2.43 2.88-3.58 1.48-1.12-.96-.66-2.85.61-3.46m15.59 0c1.34-.56 3.07.48 2.97 1.98.16 1.8-2.43 2.88-3.58 1.48-1.12-.96-.67-2.85.61-3.46m5.19 0c1.34-.56 3.08.48 2.97 1.98.17 1.8-2.43 2.88-3.58 1.48-1.12-.96-.66-2.85.61-3.46m36.37 0c1.34-.56 3.07.48 2.97 1.98.17 1.8-2.43 2.88-3.58 1.48-1.12-.96-.67-2.85.61-3.46m5.19 0c1.34-.56 3.08.48 2.97 1.98.17 1.8-2.43 2.88-3.58 1.48-1.12-.96-.66-2.85.61-3.46M23.5 58.22c1.34-.57 3.07.47 2.97 1.97.16 1.8-2.43 2.89-3.58 1.48-1.13-.95-.67-2.85.61-3.45m5.19 0c1.34-.57 3.08.47 2.97 1.97.17 1.8-2.42 2.89-3.58 1.48-1.12-.95-.66-2.85.61-3.45m15.59 0c1.34-.57 3.07.47 2.97 1.97.16 1.8-2.43 2.89-3.58 1.48-1.12-.95-.67-2.85.61-3.45m20.78 0c1.34-.57 3.07.47 2.97 1.97.16 1.8-2.43 2.89-3.58 1.48-1.12-.95-.67-2.85.61-3.45m20.78 0c1.34-.57 3.07.47 2.97 1.97.17 1.8-2.43 2.89-3.58 1.48-1.12-.95-.66-2.85.61-3.45m10.39 0c1.34-.57 3.07.47 2.97 1.97.17 1.8-2.43 2.89-3.58 1.48-1.12-.95-.66-2.85.61-3.45m15.58 0c1.34-.57 3.08.47 2.98 1.97.16 1.8-2.44 2.89-3.58 1.48-1.13-.95-.67-2.85.6-3.45m10.39 0c1.34-.57 3.08.47 2.98 1.97.16 1.8-2.44 2.89-3.58 1.48-1.13-.95-.67-2.85.6-3.45m20.79 0c1.34-.57 3.07.47 2.97 1.97.16 1.8-2.43 2.89-3.58 1.48-1.12-.95-.67-2.85.61-3.45m25.97 0c1.34-.57 3.08.47 2.97 1.97.17 1.8-2.43 2.89-3.58 1.48-1.12-.95-.66-2.85.61-3.45m20.78 0c1.34-.57 3.08.47 2.97 1.97.17 1.8-2.43 2.89-3.58 1.48-1.12-.95-.66-2.85.61-3.45M7.91 63.41c1.34-.56 3.07.48 2.97 1.98.17 1.8-2.43 2.88-3.58 1.48-1.12-.96-.66-2.85.61-3.46m10.39 0c1.34-.56 3.08.48 2.97 1.98.17 1.8-2.42 2.88-3.58 1.48-1.12-.96-.66-2.85.61-3.46m15.59 0c1.34-.56 3.07.48 2.97 1.98.16 1.8-2.43 2.88-3.58 1.48-1.12-.96-.67-2.85.61-3.46m5.19 0c1.34-.56 3.08.48 2.97 1.98.17 1.8-2.42 2.88-3.58 1.48-1.12-.96-.66-2.85.61-3.46m5.2 0c1.34-.56 3.07.48 2.97 1.98.16 1.8-2.43 2.88-3.58 1.48-1.12-.96-.67-2.85.61-3.46m10.39 0c1.34-.56 3.07.48 2.97 1.98.16 1.8-2.43 2.88-3.58 1.48-1.12-.96-.67-2.85.61-3.46m5.19 0c1.34-.56 3.08.48 2.97 1.98.17 1.8-2.42 2.88-3.58 1.48-1.12-.96-.66-2.85.61-3.46m5.2 0c1.34-.56 3.07.48 2.97 1.98.16 1.8-2.43 2.88-3.58 1.48-1.12-.96-.67-2.85.61-3.46m10.39 0c1.34-.56 3.07.48 2.97 1.98.17 1.8-2.43 2.88-3.58 1.48-1.12-.96-.67-2.85.61-3.46m10.39 0c1.34-.56 3.07.48 2.97 1.98.17 1.8-2.43 2.88-3.58 1.48-1.12-.96-.66-2.85.61-3.46m5.19 0c1.34-.56 3.08.48 2.97 1.98.17 1.8-2.43 2.88-3.57 1.48-1.13-.96-.67-2.85.6-3.46m5.2 0c1.34-.56 3.07.48 2.97 1.98.17 1.8-2.43 2.88-3.58 1.48-1.12-.96-.66-2.85.61-3.46m20.78 0c1.34-.56 3.07.48 2.97 1.98.17 1.8-2.43 2.88-3.58 1.48-1.12-.96-.66-2.85.61-3.46m5.19 0c1.34-.56 3.08.48 2.98 1.98.16 1.8-2.44 2.88-3.58 1.48-1.13-.96-.67-2.85.6-3.46m5.2 0c1.34-.56 3.08.48 2.97 1.98.17 1.8-2.43 2.88-3.58 1.48-1.12-.96-.66-2.85.61-3.46m5.19 0c1.35-.56 3.08.48 2.98 1.98.16 1.8-2.43 2.88-3.58 1.48-1.13-.96-.67-2.85.6-3.46m5.2 0c1.34-.56 3.08.48 2.97 1.98.17 1.8-2.43 2.88-3.58 1.48-1.12-.96-.66-2.85.61-3.46m5.2 0c1.34-.56 3.07.48 2.97 1.98.16 1.8-2.43 2.88-3.58 1.48-1.12-.96-.67-2.85.61-3.46m10.39 0c1.34-.56 3.07.48 2.97 1.98.16 1.8-2.43 2.88-3.58 1.48-1.12-.96-.67-2.85.61-3.46m5.19 0c1.34-.56 3.08.48 2.97 1.98.17 1.8-2.43 2.88-3.58 1.48-1.12-.96-.66-2.85.61-3.46m10.39 0c1.34-.56 3.08.48 2.97 1.98.17 1.8-2.43 2.88-3.58 1.48-1.12-.96-.66-2.85.61-3.46m5.2 0c1.34-.56 3.07.48 2.97 1.98.16 1.8-2.43 2.88-3.58 1.48-1.12-.96-.67-2.85.61-3.46m5.19 0c1.34-.56 3.08.48 2.97 1.98.17 1.8-2.43 2.88-3.58 1.48-1.12-.96-.66-2.85.61-3.46m5.2 0c1.34-.56 3.07.48 2.97 1.98.17 1.8-2.43 2.88-3.58 1.48-1.12-.96-.67-2.85.61-3.46m5.19 0c1.34-.56 3.08.48 2.97 1.98.17 1.8-2.43 2.88-3.58 1.48-1.12-.96-.66-2.85.61-3.46M2.71 68.61c1.34-.57 3.08.47 2.98 1.97.16 1.8-2.43 2.89-3.58 1.48-1.13-.95-.67-2.85.6-3.45m10.39 0c1.34-.57 3.08.47 2.98 1.97.16 1.8-2.43 2.89-3.58 1.48-1.13-.95-.67-2.85.6-3.45m5.2 0c1.34-.57 3.08.47 2.97 1.97.17 1.8-2.42 2.89-3.58 1.48-1.12-.95-.66-2.85.61-3.45m5.2 0c1.34-.57 3.07.47 2.97 1.97.16 1.8-2.43 2.89-3.58 1.48-1.13-.95-.67-2.85.61-3.45m5.19 0c1.34-.57 3.08.47 2.97 1.97.17 1.8-2.42 2.89-3.58 1.48-1.12-.95-.66-2.85.61-3.45m20.78 0c1.34-.57 3.08.47 2.97 1.97.17 1.8-2.42 2.89-3.58 1.48-1.12-.95-.66-2.85.61-3.45m10.39 0c1.34-.57 3.08.47 2.97 1.97.17 1.8-2.42 2.89-3.58 1.48-1.12-.95-.66-2.85.61-3.45m10.39 0c1.34-.57 3.08.47 2.97 1.97.17 1.8-2.43 2.89-3.58 1.48-1.12-.95-.66-2.85.61-3.45m51.95 0c1.34-.57 3.08.47 2.98 1.97.16 1.8-2.44 2.89-3.58 1.48-1.13-.95-.67-2.85.6-3.45m10.39 0c1.35-.57 3.08.47 2.98 1.97.16 1.8-2.43 2.89-3.58 1.48-1.13-.95-.67-2.85.6-3.45m15.59 0c1.34-.57 3.08.47 2.97 1.97.17 1.8-2.43 2.89-3.58 1.48-1.12-.95-.66-2.85.61-3.45m5.2 0c1.34-.57 3.07.47 2.97 1.97.16 1.8-2.43 2.89-3.58 1.48-1.12-.95-.67-2.85.61-3.45m10.39 0c1.34-.57 3.07.47 2.97 1.97.16 1.8-2.43 2.89-3.58 1.48-1.12-.95-.67-2.85.61-3.45M13.1 73.81c1.34-.57 3.08.47 2.98 1.97.16 1.8-2.43 2.88-3.58 1.48-1.13-.96-.67-2.85.6-3.45m10.4 0c1.34-.57 3.07.47 2.97 1.97.16 1.8-2.43 2.88-3.58 1.48-1.13-.96-.67-2.85.61-3.45m10.39 0c1.34-.57 3.07.47 2.97 1.97.16 1.8-2.43 2.88-3.58 1.48-1.12-.96-.67-2.85.61-3.45m5.19 0c1.34-.57 3.08.47 2.97 1.97.17 1.8-2.42 2.88-3.58 1.48-1.12-.96-.66-2.85.61-3.45m10.39 0c1.34-.57 3.08.47 2.97 1.97.17 1.8-2.42 2.88-3.58 1.48-1.12-.96-.66-2.85.61-3.45m20.78 0c1.34-.57 3.08.47 2.97 1.97.17 1.8-2.43 2.88-3.58 1.48-1.12-.96-.66-2.85.61-3.45m57.15 0c1.34-.57 3.08.47 2.97 1.97.17 1.8-2.43 2.88-3.58 1.48-1.12-.96-.66-2.85.61-3.45m5.19 0c1.35-.57 3.08.47 2.98 1.97.16 1.8-2.43 2.88-3.58 1.48-1.13-.96-.67-2.85.6-3.45m5.2 0c1.34-.57 3.08.47 2.97 1.97.17 1.8-2.43 2.88-3.58 1.48-1.12-.96-.66-2.85.61-3.45m5.2 0c1.34-.57 3.07.47 2.97 1.97.16 1.8-2.43 2.88-3.58 1.48-1.12-.96-.67-2.85.61-3.45m5.19 0c1.34-.57 3.08.47 2.97 1.97.17 1.8-2.43 2.88-3.58 1.48-1.12-.96-.66-2.85.61-3.45m5.2 0c1.34-.57 3.07.47 2.97 1.97.16 1.8-2.43 2.88-3.58 1.48-1.12-.96-.67-2.85.61-3.45m5.19 0c1.34-.57 3.08.47 2.97 1.97.17 1.8-2.43 2.88-3.58 1.48-1.12-.96-.66-2.85.61-3.45m5.2 0c1.34-.57 3.07.47 2.97 1.97.16 1.8-2.43 2.88-3.58 1.48-1.12-.96-.67-2.85.61-3.45m5.19 0c1.34-.57 3.08.47 2.97 1.97.17 1.8-2.43 2.88-3.58 1.48-1.12-.96-.66-2.85.61-3.45m5.2 0c1.34-.57 3.07.47 2.97 1.97.16 1.8-2.43 2.88-3.58 1.48-1.12-.96-.67-2.85.61-3.45m15.58 0c1.34-.57 3.08.47 2.97 1.97.17 1.8-2.43 2.88-3.58 1.48-1.12-.96-.66-2.85.61-3.45M2.71 79c1.34-.57 3.08.47 2.98 1.97.16 1.8-2.43 2.89-3.58 1.49-1.13-.96-.67-2.86.6-3.46m15.59 0c1.34-.57 3.08.47 2.97 1.97.17 1.8-2.42 2.89-3.58 1.49-1.12-.96-.66-2.86.61-3.46m5.2 0c1.34-.57 3.07.47 2.97 1.97.16 1.8-2.43 2.89-3.58 1.49-1.13-.96-.67-2.86.61-3.46m15.58 0c1.34-.57 3.08.47 2.97 1.97.17 1.8-2.42 2.89-3.58 1.49-1.12-.96-.66-2.86.61-3.46m5.2 0c1.34-.57 3.07.47 2.97 1.97.16 1.8-2.43 2.89-3.58 1.49-1.12-.96-.67-2.86.61-3.46m5.19 0c1.34-.57 3.08.47 2.97 1.97.17 1.8-2.42 2.89-3.58 1.49-1.12-.96-.66-2.86.61-3.46m15.59 0c1.34-.57 3.07.47 2.97 1.97.16 1.8-2.43 2.89-3.58 1.49-1.12-.96-.67-2.86.61-3.46m57.14 0c1.34-.57 3.08.47 2.98 1.97.16 1.8-2.44 2.89-3.58 1.49-1.13-.96-.67-2.86.6-3.46m5.2 0c1.34-.57 3.08.47 2.97 1.97.17 1.8-2.43 2.89-3.58 1.49-1.12-.96-.66-2.86.61-3.46m5.19 0c1.35-.57 3.08.47 2.98 1.97.16 1.8-2.43 2.89-3.58 1.49-1.13-.96-.67-2.86.6-3.46m10.4 0c1.34-.57 3.07.47 2.97 1.97.16 1.8-2.43 2.89-3.58 1.49-1.12-.96-.67-2.86.61-3.46m10.39 0c1.34-.57 3.07.47 2.97 1.97.16 1.8-2.43 2.89-3.58 1.49-1.12-.96-.67-2.86.61-3.46m5.19 0c1.34-.57 3.08.47 2.97 1.97.17 1.8-2.43 2.89-3.58 1.49-1.12-.96-.66-2.86.61-3.46m5.2 0c1.34-.57 3.07.47 2.97 1.97.16 1.8-2.43 2.89-3.58 1.49-1.12-.96-.67-2.86.61-3.46m5.19 0c1.34-.57 3.08.47 2.97 1.97.17 1.8-2.43 2.89-3.58 1.49-1.12-.96-.66-2.86.61-3.46m15.59 0c1.34-.57 3.07.47 2.97 1.97.17 1.8-2.43 2.89-3.58 1.49-1.12-.96-.67-2.86.61-3.46m5.19 0c1.34-.57 3.08.47 2.97 1.97.17 1.8-2.43 2.89-3.58 1.49-1.12-.96-.66-2.86.61-3.46M2.71 84.2c1.34-.57 3.08.47 2.98 1.97.16 1.8-2.43 2.88-3.58 1.48-1.13-.96-.67-2.85.6-3.45m10.39 0c1.34-.57 3.08.47 2.98 1.97.16 1.8-2.43 2.88-3.58 1.48-1.13-.96-.67-2.85.6-3.45m5.2 0c1.34-.57 3.08.47 2.97 1.97.17 1.8-2.42 2.88-3.58 1.48-1.12-.96-.66-2.85.61-3.45m10.39 0c1.34-.57 3.08.47 2.97 1.97.17 1.8-2.42 2.88-3.58 1.48-1.12-.96-.66-2.85.61-3.45m5.2 0c1.34-.57 3.07.47 2.97 1.97.16 1.8-2.43 2.88-3.58 1.48-1.12-.96-.67-2.85.61-3.45m5.19 0c1.34-.57 3.08.47 2.97 1.97.17 1.8-2.42 2.88-3.58 1.48-1.12-.96-.66-2.85.61-3.45m5.2 0c1.34-.57 3.07.47 2.97 1.97.16 1.8-2.43 2.88-3.58 1.48-1.12-.96-.67-2.85.61-3.45m10.39 0c1.34-.57 3.07.47 2.97 1.97.16 1.8-2.43 2.88-3.58 1.48-1.12-.96-.67-2.85.61-3.45m5.19 0c1.34-.57 3.08.47 2.97 1.97.17 1.8-2.42 2.88-3.58 1.48-1.12-.96-.66-2.85.61-3.45m77.93 0c1.34-.57 3.08.47 2.97 1.97.17 1.8-2.43 2.88-3.58 1.48-1.12-.96-.66-2.85.61-3.45m5.2 0c1.34-.57 3.07.47 2.97 1.97.16 1.8-2.43 2.88-3.58 1.48-1.12-.96-.67-2.85.61-3.45m10.39 0c1.34-.57 3.07.47 2.97 1.97.16 1.8-2.43 2.88-3.58 1.48-1.12-.96-.67-2.85.61-3.45m5.19 0c1.34-.57 3.08.47 2.97 1.97.17 1.8-2.43 2.88-3.58 1.48-1.12-.96-.66-2.85.61-3.45m10.39 0c1.34-.57 3.08.47 2.97 1.97.17 1.8-2.43 2.88-3.58 1.48-1.12-.96-.66-2.85.61-3.45m10.39 0c1.34-.57 3.08.47 2.97 1.97.17 1.8-2.43 2.88-3.58 1.48-1.12-.96-.66-2.85.61-3.45m10.39 0c1.34-.57 3.08.47 2.97 1.97.17 1.8-2.43 2.88-3.58 1.48-1.12-.96-.66-2.85.61-3.45M2.71 89.39c1.34-.57 3.08.47 2.98 1.98.16 1.79-2.43 2.88-3.58 1.48-1.13-.96-.67-2.86.6-3.46m10.39 0c1.34-.57 3.08.47 2.98 1.98.16 1.79-2.43 2.88-3.58 1.48-1.13-.96-.67-2.86.6-3.46m10.4 0c1.34-.57 3.07.47 2.97 1.98.16 1.79-2.43 2.88-3.58 1.48-1.13-.96-.67-2.86.61-3.46m20.78 0c1.34-.57 3.07.47 2.97 1.98.16 1.79-2.43 2.88-3.58 1.48-1.12-.96-.67-2.86.61-3.46m15.58 0c1.34-.57 3.08.47 2.97 1.98.17 1.79-2.42 2.88-3.58 1.48-1.12-.96-.66-2.86.61-3.46m10.39 0c1.34-.57 3.08.47 2.97 1.98.17 1.79-2.43 2.88-3.58 1.48-1.12-.96-.66-2.86.61-3.46m57.15 0c1.34-.57 3.08.47 2.97 1.98.17 1.79-2.43 2.88-3.58 1.48-1.12-.96-.66-2.86.61-3.46m15.59 0c1.34-.57 3.07.47 2.97 1.98.16 1.79-2.43 2.88-3.58 1.48-1.12-.96-.67-2.86.61-3.46m5.19 0c1.34-.57 3.08.47 2.97 1.98.17 1.79-2.43 2.88-3.58 1.48-1.12-.96-.66-2.86.61-3.46m5.2 0c1.34-.57 3.07.47 2.97 1.98.16 1.79-2.43 2.88-3.58 1.48-1.12-.96-.67-2.86.61-3.46m10.39 0c1.34-.57 3.07.47 2.97 1.98.16 1.79-2.43 2.88-3.58 1.48-1.12-.96-.67-2.86.61-3.46m15.58 0c1.34-.57 3.08.47 2.97 1.98.17 1.79-2.43 2.88-3.58 1.48-1.12-.96-.66-2.86.61-3.46m5.2 0c1.34-.57 3.07.47 2.97 1.98.17 1.79-2.43 2.88-3.58 1.48-1.12-.96-.67-2.86.61-3.46M2.71 94.59c1.34-.57 3.08.47 2.98 1.97.16 1.8-2.43 2.88-3.58 1.48-1.13-.96-.67-2.85.6-3.45m5.2 0c1.34-.57 3.07.47 2.97 1.97.17 1.8-2.43 2.88-3.58 1.48-1.12-.96-.66-2.85.61-3.45m10.39 0c1.34-.57 3.08.47 2.97 1.97.17 1.8-2.42 2.88-3.58 1.48-1.12-.96-.66-2.85.61-3.45m5.2 0c1.34-.57 3.07.47 2.97 1.97.16 1.8-2.43 2.88-3.58 1.48-1.13-.96-.67-2.85.61-3.45m5.19 0c1.34-.57 3.08.47 2.97 1.97.17 1.8-2.42 2.88-3.58 1.48-1.12-.96-.66-2.85.61-3.45m5.2 0c1.34-.57 3.07.47 2.97 1.97.16 1.8-2.43 2.88-3.58 1.48-1.12-.96-.67-2.85.61-3.45m10.39 0c1.34-.57 3.07.47 2.97 1.97.16 1.8-2.43 2.88-3.58 1.48-1.12-.96-.67-2.85.61-3.45m5.19 0c1.34-.57 3.08.47 2.97 1.97.17 1.8-2.42 2.88-3.58 1.48-1.12-.96-.66-2.85.61-3.45m5.2 0c1.34-.57 3.07.47 2.97 1.97.16 1.8-2.43 2.88-3.58 1.48-1.12-.96-.67-2.85.61-3.45m5.19 0c1.34-.57 3.08.47 2.97 1.97.17 1.8-2.42 2.88-3.58 1.48-1.12-.96-.66-2.85.61-3.45m5.2 0c1.34-.57 3.07.47 2.97 1.97.16 1.8-2.43 2.88-3.58 1.48-1.12-.96-.67-2.85.61-3.45m5.19 0c1.34-.57 3.08.47 2.97 1.97.17 1.8-2.43 2.88-3.58 1.48-1.12-.96-.66-2.85.61-3.45m67.54 0c1.34-.57 3.08.47 2.97 1.97.17 1.8-2.43 2.88-3.58 1.48-1.12-.96-.66-2.85.61-3.45m15.59 0c1.34-.57 3.07.47 2.97 1.97.16 1.8-2.43 2.88-3.58 1.48-1.12-.96-.67-2.85.61-3.45m5.19 0c1.34-.57 3.08.47 2.97 1.97.17 1.8-2.43 2.88-3.58 1.48-1.12-.96-.66-2.85.61-3.45m5.2 0c1.34-.57 3.07.47 2.97 1.97.16 1.8-2.43 2.88-3.58 1.48-1.12-.96-.67-2.85.61-3.45m10.39 0c1.34-.57 3.07.47 2.97 1.97.16 1.8-2.43 2.88-3.58 1.48-1.12-.96-.67-2.85.61-3.45m10.39 0c1.34-.57 3.07.47 2.97 1.97.17 1.8-2.43 2.88-3.58 1.48-1.12-.96-.67-2.85.61-3.45m5.19 0c1.34-.57 3.08.47 2.97 1.97.17 1.8-2.43 2.88-3.58 1.48-1.12-.96-.66-2.85.61-3.45M2.71 99.78c1.34-.57 3.08.47 2.98 1.98.16 1.79-2.43 2.88-3.58 1.48-1.13-.96-.67-2.86.6-3.46m5.2 0c1.34-.57 3.07.47 2.97 1.98.17 1.79-2.43 2.88-3.58 1.48-1.12-.96-.66-2.86.61-3.46m57.15 0c1.34-.57 3.07.47 2.97 1.98.16 1.79-2.43 2.88-3.58 1.48-1.12-.96-.67-2.86.61-3.46m62.34 0c1.34-.57 3.08.47 2.97 1.98.17 1.79-2.43 2.88-3.58 1.48-1.12-.96-.66-2.86.61-3.46m10.39 0c1.34-.57 3.08.47 2.97 1.98.17 1.79-2.43 2.88-3.58 1.48-1.12-.96-.66-2.86.61-3.46m10.39 0c1.34-.57 3.08.47 2.97 1.98.17 1.79-2.43 2.88-3.58 1.48-1.12-.96-.66-2.86.61-3.46m5.2 0c1.34-.57 3.07.47 2.97 1.98.16 1.79-2.43 2.88-3.58 1.48-1.12-.96-.67-2.86.61-3.46m5.19 0c1.34-.57 3.08.47 2.97 1.98.17 1.79-2.43 2.88-3.58 1.48-1.12-.96-.66-2.86.61-3.46m5.2 0c1.34-.57 3.07.47 2.97 1.98.16 1.79-2.43 2.88-3.58 1.48-1.12-.96-.67-2.86.61-3.46m25.97 0c1.34-.57 3.08.47 2.97 1.98.17 1.79-2.43 2.88-3.58 1.48-1.12-.96-.66-2.86.61-3.46m-171.44 5.2c1.34-.57 3.08.47 2.97 1.97.17 1.8-2.42 2.88-3.58 1.48-1.12-.95-.66-2.85.61-3.45m5.2 0c1.34-.57 3.07.47 2.97 1.97.16 1.8-2.43 2.88-3.58 1.48-1.13-.95-.67-2.85.61-3.45m10.39 0c1.34-.57 3.07.47 2.97 1.97.16 1.8-2.43 2.88-3.58 1.48-1.12-.95-.67-2.85.61-3.45m5.19 0c1.34-.57 3.08.47 2.97 1.97.17 1.8-2.42 2.88-3.58 1.48-1.12-.95-.66-2.85.61-3.45m10.39 0c1.34-.57 3.08.47 2.97 1.97.17 1.8-2.42 2.88-3.58 1.48-1.12-.95-.66-2.85.61-3.45m5.2 0c1.34-.57 3.07.47 2.97 1.97.16 1.8-2.43 2.88-3.58 1.48-1.12-.95-.67-2.85.61-3.45m15.58 0c1.34-.57 3.08.47 2.97 1.97.17 1.8-2.43 2.88-3.58 1.48-1.12-.95-.66-2.85.61-3.45m62.34 0c1.35-.57 3.08.47 2.98 1.97.16 1.8-2.43 2.88-3.58 1.48-1.13-.95-.67-2.85.6-3.45m5.2 0c1.34-.57 3.08.47 2.97 1.97.17 1.8-2.43 2.88-3.58 1.48-1.12-.95-.66-2.85.61-3.45m15.59 0c1.34-.57 3.07.47 2.97 1.97.16 1.8-2.43 2.88-3.58 1.48-1.12-.95-.67-2.85.61-3.45m5.19 0c1.34-.57 3.08.47 2.97 1.97.17 1.8-2.43 2.88-3.58 1.48-1.12-.95-.66-2.85.61-3.45m10.39 0c1.34-.57 3.08.47 2.97 1.97.17 1.8-2.43 2.88-3.58 1.48-1.12-.95-.66-2.85.61-3.45m5.2 0c1.34-.57 3.07.47 2.97 1.97.16 1.8-2.43 2.88-3.58 1.48-1.12-.95-.67-2.85.61-3.45m5.19 0c1.34-.57 3.08.47 2.97 1.97.17 1.8-2.43 2.88-3.58 1.48-1.12-.95-.66-2.85.61-3.45M13.1 110.17c1.34-.56 3.08.47 2.98 1.98.16 1.79-2.43 2.88-3.58 1.48-1.13-.96-.67-2.86.6-3.46m5.2 0c1.34-.56 3.08.47 2.97 1.98.17 1.79-2.42 2.88-3.58 1.48-1.12-.96-.66-2.86.61-3.46m5.2 0c1.34-.56 3.07.47 2.97 1.98.16 1.79-2.43 2.88-3.58 1.48-1.13-.96-.67-2.86.61-3.46m5.19 0c1.34-.56 3.08.47 2.97 1.98.17 1.79-2.42 2.88-3.58 1.48-1.12-.96-.66-2.86.61-3.46m10.39 0c1.34-.56 3.08.47 2.97 1.98.17 1.79-2.42 2.88-3.58 1.48-1.12-.96-.66-2.86.61-3.46m15.59 0c1.34-.56 3.07.47 2.97 1.98.16 1.79-2.43 2.88-3.58 1.48-1.12-.96-.67-2.86.61-3.46m10.39 0c1.34-.56 3.07.47 2.97 1.98.16 1.79-2.43 2.88-3.58 1.48-1.12-.96-.67-2.86.61-3.46m5.19 0c1.34-.56 3.08.47 2.97 1.98.17 1.79-2.43 2.88-3.58 1.48-1.12-.96-.66-2.86.61-3.46m51.95 0c1.34-.56 3.08.47 2.98 1.98.16 1.79-2.44 2.88-3.58 1.48-1.13-.96-.67-2.86.6-3.46m15.59 0c1.34-.56 3.08.47 2.97 1.98.17 1.79-2.43 2.88-3.58 1.48-1.12-.96-.66-2.86.61-3.46m10.39 0c1.34-.56 3.08.47 2.97 1.98.17 1.79-2.43 2.88-3.58 1.48-1.12-.96-.66-2.86.61-3.46m25.98 0c1.34-.56 3.07.47 2.97 1.98.16 1.79-2.43 2.88-3.58 1.48-1.12-.96-.67-2.86.61-3.46m-155.86 5.2c1.34-.57 3.08.47 2.97 1.97.17 1.8-2.42 2.88-3.58 1.48-1.12-.95-.66-2.85.61-3.45m5.2 0c1.34-.57 3.07.47 2.97 1.97.16 1.8-2.43 2.88-3.58 1.48-1.13-.95-.67-2.85.61-3.45m5.19 0c1.34-.57 3.08.47 2.97 1.97.17 1.8-2.42 2.88-3.58 1.48-1.12-.95-.66-2.85.61-3.45m5.2 0c1.34-.57 3.07.47 2.97 1.97.16 1.8-2.43 2.88-3.58 1.48-1.12-.95-.67-2.85.61-3.45m5.19 0c1.34-.57 3.08.47 2.97 1.97.17 1.8-2.42 2.88-3.58 1.48-1.12-.95-.66-2.85.61-3.45m10.39 0c1.34-.57 3.08.47 2.97 1.97.17 1.8-2.42 2.88-3.58 1.48-1.12-.95-.66-2.85.61-3.45m5.2 0c1.34-.57 3.07.47 2.97 1.97.16 1.8-2.43 2.88-3.58 1.48-1.12-.95-.67-2.85.61-3.45m10.39 0c1.34-.57 3.07.47 2.97 1.97.16 1.8-2.43 2.88-3.58 1.48-1.12-.95-.67-2.85.61-3.45m77.93 0c1.34-.57 3.07.47 2.97 1.97.16 1.8-2.43 2.88-3.58 1.48-1.12-.95-.67-2.85.61-3.45m5.19 0c1.34-.57 3.08.47 2.97 1.97.17 1.8-2.43 2.88-3.58 1.48-1.12-.95-.66-2.85.61-3.45m10.39 0c1.34-.57 3.08.47 2.97 1.97.17 1.8-2.43 2.88-3.58 1.48-1.12-.95-.66-2.85.61-3.45m5.2 0c1.34-.57 3.07.47 2.97 1.97.16 1.8-2.43 2.88-3.58 1.48-1.12-.95-.67-2.85.61-3.45m5.19 0c1.34-.57 3.08.47 2.97 1.97.17 1.8-2.43 2.88-3.58 1.48-1.12-.95-.66-2.85.61-3.45m5.2 0c1.34-.57 3.07.47 2.97 1.97.16 1.8-2.43 2.88-3.58 1.48-1.12-.95-.67-2.85.61-3.45m10.39 0c1.34-.57 3.07.47 2.97 1.97.17 1.8-2.43 2.88-3.58 1.48-1.12-.95-.67-2.85.61-3.45m5.19 0c1.34-.57 3.08.47 2.97 1.97.17 1.8-2.43 2.88-3.58 1.48-1.12-.95-.66-2.85.61-3.45M2.71 120.56c1.34-.56 3.08.47 2.98 1.98.16 1.79-2.43 2.88-3.58 1.48-1.13-.96-.67-2.86.6-3.46m15.59 0c1.34-.56 3.08.47 2.97 1.98.17 1.79-2.42 2.88-3.58 1.48-1.12-.96-.66-2.86.61-3.46m5.2 0c1.34-.56 3.07.47 2.97 1.98.16 1.79-2.43 2.88-3.58 1.48-1.13-.96-.67-2.86.61-3.46m5.19 0c1.34-.56 3.08.47 2.97 1.98.17 1.79-2.42 2.88-3.58 1.48-1.12-.96-.66-2.86.61-3.46m15.59 0c1.34-.56 3.07.47 2.97 1.98.16 1.79-2.43 2.88-3.58 1.48-1.12-.96-.67-2.86.61-3.46m20.78 0c1.34-.56 3.07.47 2.97 1.98.16 1.79-2.43 2.88-3.58 1.48-1.12-.96-.67-2.86.61-3.46m57.14 0c1.34-.56 3.08.47 2.98 1.98.16 1.79-2.44 2.88-3.58 1.48-1.13-.96-.67-2.86.6-3.46m5.2 0c1.34-.56 3.08.47 2.97 1.98.17 1.79-2.43 2.88-3.58 1.48-1.12-.96-.66-2.86.61-3.46m10.39 0c1.34-.56 3.08.47 2.97 1.98.17 1.79-2.43 2.88-3.58 1.48-1.12-.96-.66-2.86.61-3.46m5.2 0c1.34-.56 3.07.47 2.97 1.98.16 1.79-2.43 2.88-3.58 1.48-1.12-.96-.67-2.86.61-3.46m5.19 0c1.34-.56 3.08.47 2.97 1.98.17 1.79-2.43 2.88-3.58 1.48-1.12-.96-.66-2.86.61-3.46m5.2 0c1.34-.56 3.07.47 2.97 1.98.16 1.79-2.43 2.88-3.58 1.48-1.12-.96-.67-2.86.61-3.46m10.39 0c1.34-.56 3.07.47 2.97 1.98.16 1.79-2.43 2.88-3.58 1.48-1.12-.96-.67-2.86.61-3.46m5.19 0c1.34-.56 3.08.47 2.97 1.98.17 1.79-2.43 2.88-3.58 1.48-1.12-.96-.66-2.86.61-3.46m20.78 0c1.34-.56 3.08.47 2.97 1.98.17 1.79-2.43 2.88-3.58 1.48-1.12-.96-.66-2.86.61-3.46m-181.83 5.2c1.34-.57 3.07.47 2.97 1.97.17 1.8-2.43 2.88-3.58 1.48-1.12-.95-.66-2.85.61-3.45m15.59 0c1.34-.57 3.07.47 2.97 1.97.16 1.8-2.43 2.88-3.58 1.48-1.13-.95-.67-2.85.61-3.45m5.19 0c1.34-.57 3.08.47 2.97 1.97.17 1.8-2.42 2.88-3.58 1.48-1.12-.95-.66-2.85.61-3.45m5.2 0c1.34-.57 3.07.47 2.97 1.97.16 1.8-2.43 2.88-3.58 1.48-1.12-.95-.67-2.85.61-3.45m10.39 0c1.34-.57 3.07.47 2.97 1.97.16 1.8-2.43 2.88-3.58 1.48-1.12-.95-.67-2.85.61-3.45m5.19 0c1.34-.57 3.08.47 2.97 1.97.17 1.8-2.42 2.88-3.58 1.48-1.12-.95-.66-2.85.61-3.45m5.2 0c1.34-.57 3.07.47 2.97 1.97.16 1.8-2.43 2.88-3.58 1.48-1.12-.95-.67-2.85.61-3.45m5.19 0c1.34-.57 3.08.47 2.97 1.97.17 1.8-2.42 2.88-3.58 1.48-1.12-.95-.66-2.85.61-3.45m5.2 0c1.34-.57 3.07.47 2.97 1.97.16 1.8-2.43 2.88-3.58 1.48-1.12-.95-.67-2.85.61-3.45m10.39 0c1.34-.57 3.07.47 2.97 1.97.17 1.8-2.43 2.88-3.58 1.48-1.12-.95-.67-2.85.61-3.45m5.19 0c1.34-.57 3.08.47 2.97 1.97.17 1.8-2.43 2.88-3.58 1.48-1.12-.95-.66-2.85.61-3.45m15.59 0c1.34-.57 3.07.47 2.97 1.97.17 1.8-2.43 2.88-3.58 1.48-1.12-.95-.66-2.85.61-3.45m5.19 0c1.34-.57 3.08.47 2.98 1.97.16 1.8-2.44 2.88-3.58 1.48-1.13-.95-.67-2.85.6-3.45m5.2 0c1.34-.57 3.07.47 2.97 1.97.17 1.8-2.43 2.88-3.58 1.48-1.12-.95-.66-2.85.61-3.45m5.19 0c1.34-.57 3.08.47 2.98 1.97.16 1.8-2.44 2.88-3.58 1.48-1.13-.95-.67-2.85.6-3.45m5.2 0c1.34-.57 3.07.47 2.97 1.97.17 1.8-2.43 2.88-3.58 1.48-1.12-.95-.66-2.85.61-3.45m10.39 0c1.34-.57 3.08.47 2.97 1.97.17 1.8-2.43 2.88-3.58 1.48-1.12-.95-.66-2.85.61-3.45m25.98 0c1.34-.57 3.07.47 2.97 1.97.16 1.8-2.43 2.88-3.58 1.48-1.12-.95-.67-2.85.61-3.45m5.19 0c1.34-.57 3.08.47 2.97 1.97.17 1.8-2.43 2.88-3.58 1.48-1.12-.95-.66-2.85.61-3.45m10.39 0c1.34-.57 3.08.47 2.97 1.97.17 1.8-2.43 2.88-3.58 1.48-1.12-.95-.66-2.85.61-3.45m10.39 0c1.34-.57 3.08.47 2.97 1.97.17 1.8-2.43 2.88-3.58 1.48-1.12-.95-.66-2.85.61-3.45m5.2 0c1.34-.57 3.07.47 2.97 1.97.17 1.8-2.43 2.88-3.58 1.48-1.12-.95-.67-2.85.61-3.45m5.19 0c1.34-.57 3.08.47 2.97 1.97.17 1.8-2.43 2.88-3.58 1.48-1.12-.95-.66-2.85.61-3.45M2.71 130.95c1.34-.56 3.08.48 2.98 1.98.16 1.79-2.43 2.88-3.58 1.48-1.13-.96-.67-2.85.6-3.46m5.2 0c1.34-.56 3.07.48 2.97 1.98.17 1.79-2.43 2.88-3.58 1.48-1.12-.96-.66-2.85.61-3.46m5.19 0c1.34-.56 3.08.48 2.98 1.98.16 1.79-2.43 2.88-3.58 1.48-1.13-.96-.67-2.85.6-3.46m5.2 0c1.34-.56 3.08.48 2.97 1.98.17 1.79-2.42 2.88-3.58 1.48-1.12-.96-.66-2.85.61-3.46m10.39 0c1.34-.56 3.08.48 2.97 1.98.17 1.79-2.42 2.88-3.58 1.48-1.12-.96-.66-2.85.61-3.46m20.78 0c1.34-.56 3.08.48 2.97 1.98.17 1.79-2.42 2.88-3.58 1.48-1.12-.96-.66-2.85.61-3.46m5.2 0c1.34-.56 3.07.48 2.97 1.98.16 1.79-2.43 2.88-3.58 1.48-1.12-.96-.67-2.85.61-3.46m5.19 0c1.34-.56 3.08.48 2.97 1.98.17 1.79-2.42 2.88-3.58 1.48-1.12-.96-.66-2.85.61-3.46m5.2 0c1.34-.56 3.07.48 2.97 1.98.16 1.79-2.43 2.88-3.58 1.48-1.12-.96-.67-2.85.61-3.46m15.58 0c1.34-.56 3.08.48 2.97 1.98.17 1.79-2.43 2.88-3.58 1.48-1.12-.96-.66-2.85.61-3.46m5.2 0c1.34-.56 3.07.48 2.97 1.98.17 1.79-2.43 2.88-3.58 1.48-1.12-.96-.66-2.85.61-3.46m5.19 0c1.34-.56 3.08.48 2.97 1.98.17 1.79-2.43 2.88-3.57 1.48-1.13-.96-.67-2.85.6-3.46m20.78 0c1.34-.56 3.08.48 2.98 1.98.16 1.79-2.44 2.88-3.58 1.48-1.13-.96-.67-2.85.6-3.46m25.98 0c1.34-.56 3.08.48 2.97 1.98.17 1.79-2.43 2.88-3.58 1.48-1.12-.96-.66-2.85.61-3.46m5.2 0c1.34-.56 3.07.48 2.97 1.98.16 1.79-2.43 2.88-3.58 1.48-1.12-.96-.67-2.85.61-3.46m20.78 0c1.34-.56 3.07.48 2.97 1.98.16 1.79-2.43 2.88-3.58 1.48-1.12-.96-.67-2.85.61-3.46m10.39 0c1.34-.56 3.07.48 2.97 1.98.16 1.79-2.43 2.88-3.58 1.48-1.12-.96-.67-2.85.61-3.46m-171.45 5.2c1.34-.57 3.08.47 2.98 1.97.16 1.8-2.43 2.89-3.58 1.48-1.13-.95-.67-2.85.6-3.45m31.18 0c1.34-.57 3.07.47 2.97 1.97.16 1.8-2.43 2.89-3.58 1.48-1.12-.95-.67-2.85.61-3.45m10.39 0c1.34-.57 3.07.47 2.97 1.97.16 1.8-2.43 2.89-3.58 1.48-1.12-.95-.67-2.85.61-3.45m5.19 0c1.34-.57 3.08.47 2.97 1.97.17 1.8-2.42 2.89-3.58 1.48-1.12-.95-.66-2.85.61-3.45m5.2 0c1.34-.57 3.07.47 2.97 1.97.16 1.8-2.43 2.89-3.58 1.48-1.12-.95-.67-2.85.61-3.45m5.19 0c1.34-.57 3.08.47 2.97 1.97.17 1.8-2.42 2.89-3.58 1.48-1.12-.95-.66-2.85.61-3.45m5.2 0c1.34-.57 3.07.47 2.97 1.97.16 1.8-2.43 2.89-3.58 1.48-1.12-.95-.67-2.85.61-3.45m10.39 0c1.34-.57 3.07.47 2.97 1.97.17 1.8-2.43 2.89-3.58 1.48-1.12-.95-.67-2.85.61-3.45m20.78 0c1.34-.57 3.07.47 2.97 1.97.17 1.8-2.43 2.89-3.58 1.48-1.12-.95-.66-2.85.61-3.45m10.39 0c1.34-.57 3.07.47 2.97 1.97.17 1.8-2.43 2.89-3.58 1.48-1.12-.95-.66-2.85.61-3.45m15.58 0c1.34-.57 3.08.47 2.98 1.97.16 1.8-2.44 2.89-3.58 1.48-1.13-.95-.67-2.85.6-3.45m5.2 0c1.34-.57 3.08.47 2.97 1.97.17 1.8-2.43 2.89-3.58 1.48-1.12-.95-.66-2.85.61-3.45m5.19 0c1.35-.57 3.08.47 2.98 1.97.16 1.8-2.43 2.89-3.58 1.48-1.13-.95-.67-2.85.6-3.45m10.4 0c1.34-.57 3.07.47 2.97 1.97.16 1.8-2.43 2.89-3.58 1.48-1.12-.95-.67-2.85.61-3.45m5.19 0c1.34-.57 3.08.47 2.97 1.97.17 1.8-2.43 2.89-3.58 1.48-1.12-.95-.66-2.85.61-3.45m10.39 0c1.34-.57 3.08.47 2.97 1.97.17 1.8-2.43 2.89-3.58 1.48-1.12-.95-.66-2.85.61-3.45m25.98 0c1.34-.57 3.07.47 2.97 1.97.17 1.8-2.43 2.89-3.58 1.48-1.12-.95-.67-2.85.61-3.45m5.19 0c1.34-.57 3.08.47 2.97 1.97.17 1.8-2.43 2.89-3.58 1.48-1.12-.95-.66-2.85.61-3.45M2.71 141.34c1.34-.56 3.08.48 2.98 1.98.16 1.79-2.43 2.88-3.58 1.48-1.13-.96-.67-2.85.6-3.46m10.39 0c1.34-.56 3.08.48 2.98 1.98.16 1.79-2.43 2.88-3.58 1.48-1.13-.96-.67-2.85.6-3.46m15.59 0c1.34-.56 3.08.48 2.97 1.98.17 1.79-2.42 2.88-3.58 1.48-1.12-.96-.66-2.85.61-3.46m10.39 0c1.34-.56 3.08.48 2.97 1.98.17 1.79-2.42 2.88-3.58 1.48-1.12-.96-.66-2.85.61-3.46m10.39 0c1.34-.56 3.08.48 2.97 1.98.17 1.79-2.42 2.88-3.58 1.48-1.12-.96-.66-2.85.61-3.46m5.2 0c1.34-.56 3.07.48 2.97 1.98.16 1.79-2.43 2.88-3.58 1.48-1.12-.96-.67-2.85.61-3.46m5.19 0c1.34-.56 3.08.48 2.97 1.98.17 1.79-2.42 2.88-3.58 1.48-1.12-.96-.66-2.85.61-3.46m5.2 0c1.34-.56 3.07.48 2.97 1.98.16 1.79-2.43 2.88-3.58 1.48-1.12-.96-.67-2.85.61-3.46m20.78 0c1.34-.56 3.07.48 2.97 1.98.17 1.79-2.43 2.88-3.58 1.48-1.12-.96-.66-2.85.61-3.46m25.97 0c1.34-.56 3.08.48 2.98 1.98.16 1.79-2.44 2.88-3.58 1.48-1.13-.96-.67-2.85.6-3.46m10.39 0c1.34-.56 3.08.48 2.98 1.98.16 1.79-2.44 2.88-3.58 1.48-1.13-.96-.67-2.85.6-3.46m15.59 0c1.34-.56 3.08.48 2.97 1.98.17 1.79-2.43 2.88-3.58 1.48-1.12-.96-.66-2.85.61-3.46m10.39 0c1.34-.56 3.08.48 2.97 1.98.17 1.79-2.43 2.88-3.58 1.48-1.12-.96-.66-2.85.61-3.46m5.2 0c1.34-.56 3.07.48 2.97 1.98.16 1.79-2.43 2.88-3.58 1.48-1.12-.96-.67-2.85.61-3.46m5.19 0c1.34-.56 3.08.48 2.97 1.98.17 1.79-2.43 2.88-3.58 1.48-1.12-.96-.66-2.85.61-3.46m5.2 0c1.34-.56 3.07.48 2.97 1.98.16 1.79-2.43 2.88-3.58 1.48-1.12-.96-.67-2.85.61-3.46m10.39 0c1.34-.56 3.07.48 2.97 1.98.16 1.79-2.43 2.88-3.58 1.48-1.12-.96-.67-2.85.61-3.46m10.39 0c1.34-.56 3.07.48 2.97 1.98.17 1.79-2.43 2.88-3.58 1.48-1.12-.96-.67-2.85.61-3.46m-181.84 5.2c1.34-.57 3.08.47 2.98 1.97.16 1.8-2.43 2.89-3.58 1.48-1.13-.95-.67-2.85.6-3.45m10.39 0c1.34-.57 3.08.47 2.98 1.97.16 1.8-2.43 2.89-3.58 1.48-1.13-.95-.67-2.85.6-3.45m10.4 0c1.34-.57 3.07.47 2.97 1.97.16 1.8-2.43 2.89-3.58 1.48-1.13-.95-.67-2.85.61-3.45m10.39 0c1.34-.57 3.07.47 2.97 1.97.16 1.8-2.43 2.89-3.58 1.48-1.12-.95-.67-2.85.61-3.45m5.19 0c1.34-.57 3.08.47 2.97 1.97.17 1.8-2.42 2.89-3.58 1.48-1.12-.95-.66-2.85.61-3.45m15.59 0c1.34-.57 3.07.47 2.97 1.97.16 1.8-2.43 2.89-3.58 1.48-1.12-.95-.67-2.85.61-3.45m15.58 0c1.34-.57 3.08.47 2.97 1.97.17 1.8-2.43 2.89-3.58 1.48-1.12-.95-.66-2.85.61-3.45m20.78 0c1.34-.57 3.08.47 2.97 1.97.17 1.8-2.43 2.89-3.57 1.48-1.13-.95-.67-2.85.6-3.45m31.17 0c1.34-.57 3.08.47 2.98 1.97.16 1.8-2.44 2.89-3.58 1.48-1.13-.95-.67-2.85.6-3.45m5.2 0c1.34-.57 3.08.47 2.97 1.97.17 1.8-2.43 2.89-3.58 1.48-1.12-.95-.66-2.85.61-3.45m5.19 0c1.35-.57 3.08.47 2.98 1.97.16 1.8-2.43 2.89-3.58 1.48-1.13-.95-.67-2.85.6-3.45m5.2 0c1.34-.57 3.08.47 2.97 1.97.17 1.8-2.43 2.89-3.58 1.48-1.12-.95-.66-2.85.61-3.45m10.39 0c1.34-.57 3.08.47 2.97 1.97.17 1.8-2.43 2.89-3.58 1.48-1.12-.95-.66-2.85.61-3.45m5.2 0c1.34-.57 3.07.47 2.97 1.97.16 1.8-2.43 2.89-3.58 1.48-1.12-.95-.67-2.85.61-3.45m5.19 0c1.34-.57 3.08.47 2.97 1.97.17 1.8-2.43 2.89-3.58 1.48-1.12-.95-.66-2.85.61-3.45m5.2 0c1.34-.57 3.07.47 2.97 1.97.16 1.8-2.43 2.89-3.58 1.48-1.12-.95-.67-2.85.61-3.45m5.19 0c1.34-.57 3.08.47 2.97 1.97.17 1.8-2.43 2.89-3.58 1.48-1.12-.95-.66-2.85.61-3.45m5.2 0c1.34-.57 3.07.47 2.97 1.97.16 1.8-2.43 2.89-3.58 1.48-1.12-.95-.67-2.85.61-3.45m5.19 0c1.34-.57 3.08.47 2.97 1.97.17 1.8-2.43 2.89-3.58 1.48-1.12-.95-.66-2.85.61-3.45m5.2 0c1.34-.57 3.07.47 2.97 1.97.17 1.8-2.43 2.89-3.58 1.48-1.12-.95-.67-2.85.61-3.45m5.19 0c1.34-.57 3.08.47 2.97 1.97.17 1.8-2.43 2.89-3.58 1.48-1.12-.95-.66-2.85.61-3.45m-145.46 5.19c1.34-.56 3.07.48 2.97 1.98.16 1.8-2.43 2.88-3.58 1.48-1.12-.96-.67-2.85.61-3.46m15.58 0c1.34-.56 3.08.48 2.97 1.98.17 1.8-2.42 2.88-3.58 1.48-1.12-.96-.66-2.85.61-3.46m5.2 0c1.34-.56 3.07.48 2.97 1.98.16 1.8-2.43 2.88-3.58 1.48-1.12-.96-.67-2.85.61-3.46m10.39 0c1.34-.56 3.07.48 2.97 1.98.17 1.8-2.43 2.88-3.58 1.48-1.12-.96-.67-2.85.61-3.46m10.39 0c1.34-.56 3.07.48 2.97 1.98.17 1.8-2.43 2.88-3.58 1.48-1.12-.96-.66-2.85.61-3.46m5.19 0c1.34-.56 3.08.48 2.97 1.98.17 1.8-2.43 2.88-3.57 1.48-1.13-.96-.67-2.85.6-3.46m5.2 0c1.34-.56 3.07.48 2.97 1.98.17 1.8-2.43 2.88-3.58 1.48-1.12-.96-.66-2.85.61-3.46m5.19 0c1.34-.56 3.08.48 2.98 1.98.16 1.8-2.44 2.88-3.58 1.48-1.13-.96-.67-2.85.6-3.46m5.2 0c1.34-.56 3.07.48 2.97 1.98.17 1.8-2.43 2.88-3.58 1.48-1.12-.96-.66-2.85.61-3.46m5.19 0c1.34-.56 3.08.48 2.98 1.98.16 1.8-2.44 2.88-3.58 1.48-1.13-.96-.67-2.85.6-3.46m10.39 0c1.34-.56 3.08.48 2.98 1.98.16 1.8-2.44 2.88-3.58 1.48-1.13-.96-.67-2.85.6-3.46m10.39 0c1.35-.56 3.08.48 2.98 1.98.16 1.8-2.43 2.88-3.58 1.48-1.13-.96-.67-2.85.6-3.46m10.4 0c1.34-.56 3.07.48 2.97 1.98.16 1.8-2.43 2.88-3.58 1.48-1.12-.96-.67-2.85.61-3.46m5.19 0c1.34-.56 3.08.48 2.97 1.98.17 1.8-2.43 2.88-3.58 1.48-1.12-.96-.66-2.85.61-3.46m20.78 0c1.34-.56 3.08.48 2.97 1.98.17 1.8-2.43 2.88-3.58 1.48-1.12-.96-.66-2.85.61-3.46m5.2 0c1.34-.56 3.07.48 2.97 1.98.16 1.8-2.43 2.88-3.58 1.48-1.12-.96-.67-2.85.61-3.46m10.39 0c1.34-.56 3.07.48 2.97 1.98.17 1.8-2.43 2.88-3.58 1.48-1.12-.96-.67-2.85.61-3.46m-119.49 5.2c1.34-.57 3.07.47 2.97 1.97.16 1.8-2.43 2.89-3.58 1.48-1.12-.95-.67-2.85.61-3.45m5.19 0c1.34-.57 3.08.47 2.97 1.97.17 1.8-2.43 2.89-3.58 1.48-1.12-.95-.66-2.85.61-3.45m5.2 0c1.34-.57 3.07.47 2.97 1.97.17 1.8-2.43 2.89-3.58 1.48-1.12-.95-.67-2.85.61-3.45m5.19 0c1.34-.57 3.08.47 2.97 1.97.17 1.8-2.43 2.89-3.58 1.48-1.12-.95-.66-2.85.61-3.45m5.2 0c1.34-.57 3.07.47 2.97 1.97.17 1.8-2.43 2.89-3.58 1.48-1.12-.95-.66-2.85.61-3.45m5.19 0c1.34-.57 3.08.47 2.97 1.97.17 1.8-2.43 2.89-3.57 1.48-1.13-.95-.67-2.85.6-3.45m15.59 0c1.34-.57 3.07.47 2.97 1.97.17 1.8-2.43 2.89-3.58 1.48-1.12-.95-.66-2.85.61-3.45m5.19 0c1.34-.57 3.08.47 2.98 1.97.16 1.8-2.44 2.89-3.58 1.48-1.13-.95-.67-2.85.6-3.45m20.78 0c1.35-.57 3.08.47 2.98 1.97.16 1.8-2.43 2.89-3.58 1.48-1.13-.95-.67-2.85.6-3.45m5.2 0c1.34-.57 3.08.47 2.97 1.97.17 1.8-2.43 2.89-3.58 1.48-1.12-.95-.66-2.85.61-3.45m10.39 0c1.34-.57 3.08.47 2.97 1.97.17 1.8-2.43 2.89-3.58 1.48-1.12-.95-.66-2.85.61-3.45m10.39 0c1.34-.57 3.08.47 2.97 1.97.17 1.8-2.43 2.89-3.58 1.48-1.12-.95-.66-2.85.61-3.45m10.39 0c1.34-.57 3.08.47 2.97 1.97.17 1.8-2.43 2.89-3.58 1.48-1.12-.95-.66-2.85.61-3.45m10.39 0c1.34-.57 3.08.47 2.97 1.97.17 1.8-2.43 2.89-3.58 1.48-1.12-.95-.66-2.85.61-3.45m5.2 0c1.34-.57 3.07.47 2.97 1.97.17 1.8-2.43 2.89-3.58 1.48-1.12-.95-.67-2.85.61-3.45m5.19 0c1.34-.57 3.08.47 2.97 1.97.17 1.8-2.43 2.89-3.58 1.48-1.12-.95-.66-2.85.61-3.45m-145.46 5.19c1.34-.56 3.07.48 2.97 1.98.16 1.8-2.43 2.88-3.58 1.48-1.12-.96-.67-2.85.61-3.46m5.19 0c1.34-.56 3.08.48 2.97 1.98.17 1.8-2.42 2.88-3.58 1.48-1.12-.96-.66-2.85.61-3.46m10.39 0c1.34-.56 3.08.48 2.97 1.98.17 1.8-2.42 2.88-3.58 1.48-1.12-.96-.66-2.85.61-3.46m5.2 0c1.34-.56 3.07.48 2.97 1.98.16 1.8-2.43 2.88-3.58 1.48-1.12-.96-.67-2.85.61-3.46m5.19 0c1.34-.56 3.08.48 2.97 1.98.17 1.8-2.43 2.88-3.58 1.48-1.12-.96-.66-2.85.61-3.46m15.59 0c1.34-.56 3.07.48 2.97 1.98.17 1.8-2.43 2.88-3.58 1.48-1.12-.96-.66-2.85.61-3.46m5.19 0c1.34-.56 3.08.48 2.97 1.98.17 1.8-2.43 2.88-3.57 1.48-1.13-.96-.67-2.85.6-3.46m5.2 0c1.34-.56 3.07.48 2.97 1.98.17 1.8-2.43 2.88-3.58 1.48-1.12-.96-.66-2.85.61-3.46m5.19 0c1.34-.56 3.08.48 2.98 1.98.16 1.8-2.44 2.88-3.58 1.48-1.13-.96-.67-2.85.6-3.46m5.2 0c1.34-.56 3.07.48 2.97 1.98.17 1.8-2.43 2.88-3.58 1.48-1.12-.96-.66-2.85.61-3.46m5.19 0c1.34-.56 3.08.48 2.98 1.98.16 1.8-2.44 2.88-3.58 1.48-1.13-.96-.67-2.85.6-3.46m5.2 0c1.34-.56 3.07.48 2.97 1.98.17 1.8-2.43 2.88-3.58 1.48-1.12-.96-.66-2.85.61-3.46m15.58 0c1.35-.56 3.08.48 2.98 1.98.16 1.8-2.43 2.88-3.58 1.48-1.13-.96-.67-2.85.6-3.46m15.59 0c1.34-.56 3.08.48 2.97 1.98.17 1.8-2.43 2.88-3.58 1.48-1.12-.96-.66-2.85.61-3.46m20.78 0c1.34-.56 3.08.48 2.97 1.98.17 1.8-2.43 2.88-3.58 1.48-1.12-.96-.66-2.85.61-3.46m5.2 0c1.34-.56 3.07.48 2.97 1.98.16 1.8-2.43 2.88-3.58 1.48-1.12-.96-.67-2.85.61-3.46m-129.88 5.2c1.34-.57 3.07.47 2.97 1.97.16 1.8-2.43 2.88-3.58 1.48-1.12-.95-.67-2.85.61-3.45m10.39 0c1.34-.57 3.07.47 2.97 1.97.16 1.8-2.43 2.88-3.58 1.48-1.12-.95-.67-2.85.61-3.45m5.19 0c1.34-.57 3.08.47 2.97 1.97.17 1.8-2.42 2.88-3.58 1.48-1.12-.95-.66-2.85.61-3.45m25.98 0c1.34-.57 3.07.47 2.97 1.97.17 1.8-2.43 2.88-3.58 1.48-1.12-.95-.66-2.85.61-3.45m25.97 0c1.34-.57 3.08.47 2.98 1.97.16 1.8-2.44 2.88-3.58 1.48-1.13-.95-.67-2.85.6-3.45m10.39 0c1.34-.57 3.08.47 2.98 1.97.16 1.8-2.44 2.88-3.58 1.48-1.13-.95-.67-2.85.6-3.45m15.59 0c1.34-.57 3.08.47 2.97 1.97.17 1.8-2.43 2.88-3.58 1.48-1.12-.95-.66-2.85.61-3.45m5.2 0c1.34-.57 3.07.47 2.97 1.97.16 1.8-2.43 2.88-3.58 1.48-1.12-.95-.67-2.85.61-3.45m5.19 0c1.34-.57 3.08.47 2.97 1.97.17 1.8-2.43 2.88-3.58 1.48-1.12-.95-.66-2.85.61-3.45m5.2 0c1.34-.57 3.07.47 2.97 1.97.16 1.8-2.43 2.88-3.58 1.48-1.12-.95-.67-2.85.61-3.45m5.19 0c1.34-.57 3.08.47 2.97 1.97.17 1.8-2.43 2.88-3.58 1.48-1.12-.95-.66-2.85.61-3.45m5.2 0c1.34-.57 3.07.47 2.97 1.97.16 1.8-2.43 2.88-3.58 1.48-1.12-.95-.67-2.85.61-3.45m5.19 0c1.34-.57 3.08.47 2.97 1.97.17 1.8-2.43 2.88-3.58 1.48-1.12-.95-.66-2.85.61-3.45m10.39 0c1.34-.57 3.08.47 2.97 1.97.17 1.8-2.43 2.88-3.58 1.48-1.12-.95-.66-2.85.61-3.45m10.39 0c1.34-.57 3.08.47 2.97 1.97.17 1.8-2.43 2.88-3.58 1.48-1.12-.95-.66-2.85.61-3.45m-145.46 5.19c1.34-.56 3.07.48 2.97 1.98.16 1.8-2.43 2.88-3.58 1.48-1.12-.96-.67-2.85.61-3.46m25.97 0c1.34-.56 3.08.48 2.97 1.98.17 1.8-2.43 2.88-3.58 1.48-1.12-.96-.66-2.85.61-3.46m5.2 0c1.34-.56 3.07.48 2.97 1.98.17 1.8-2.43 2.88-3.58 1.48-1.12-.96-.67-2.85.61-3.46m5.19 0c1.34-.56 3.08.48 2.97 1.98.17 1.8-2.43 2.88-3.58 1.48-1.12-.96-.66-2.85.61-3.46m10.39 0c1.34-.56 3.08.48 2.97 1.98.17 1.8-2.43 2.88-3.57 1.48-1.13-.96-.67-2.85.6-3.46m5.2 0c1.34-.56 3.07.48 2.97 1.98.17 1.8-2.43 2.88-3.58 1.48-1.12-.96-.66-2.85.61-3.46m10.39 0c1.34-.56 3.07.48 2.97 1.98.17 1.8-2.43 2.88-3.58 1.48-1.12-.96-.66-2.85.61-3.46m10.39 0c1.34-.56 3.07.48 2.97 1.98.17 1.8-2.43 2.88-3.58 1.48-1.12-.96-.66-2.85.61-3.46m10.39 0c1.34-.56 3.08.48 2.97 1.98.17 1.8-2.43 2.88-3.58 1.48-1.12-.96-.66-2.85.61-3.46m15.59 0c1.34-.56 3.07.48 2.97 1.98.16 1.8-2.43 2.88-3.58 1.48-1.12-.96-.67-2.85.61-3.46m5.19 0c1.34-.56 3.08.48 2.97 1.98.17 1.8-2.43 2.88-3.58 1.48-1.12-.96-.66-2.85.61-3.46m5.2 0c1.34-.56 3.07.48 2.97 1.98.16 1.8-2.43 2.88-3.58 1.48-1.12-.96-.67-2.85.61-3.46m5.19 0c1.34-.56 3.08.48 2.97 1.98.17 1.8-2.43 2.88-3.58 1.48-1.12-.96-.66-2.85.61-3.46m10.39 0c1.34-.56 3.08.48 2.97 1.98.17 1.8-2.43 2.88-3.58 1.48-1.12-.96-.66-2.85.61-3.46m10.39 0c1.34-.56 3.08.48 2.97 1.98.17 1.8-2.43 2.88-3.58 1.48-1.12-.96-.66-2.85.61-3.46m5.2 0c1.34-.56 3.07.48 2.97 1.98.17 1.8-2.43 2.88-3.58 1.48-1.12-.96-.67-2.85.61-3.46m-140.27 5.2c1.34-.57 3.07.47 2.97 1.97.16 1.8-2.43 2.88-3.58 1.48-1.12-.95-.67-2.85.61-3.45m5.19 0c1.34-.57 3.08.47 2.97 1.97.17 1.8-2.42 2.88-3.58 1.48-1.12-.95-.66-2.85.61-3.45m5.2 0c1.34-.57 3.07.47 2.97 1.97.16 1.8-2.43 2.88-3.58 1.48-1.12-.95-.67-2.85.61-3.45m25.97 0c1.34-.57 3.08.47 2.97 1.97.17 1.8-2.43 2.88-3.58 1.48-1.12-.95-.66-2.85.61-3.45m5.2 0c1.34-.57 3.07.47 2.97 1.97.17 1.8-2.43 2.88-3.58 1.48-1.12-.95-.66-2.85.61-3.45m5.19 0c1.34-.57 3.08.47 2.97 1.97.17 1.8-2.43 2.88-3.57 1.48-1.13-.95-.67-2.85.6-3.45m10.39 0c1.34-.57 3.08.47 2.98 1.97.16 1.8-2.44 2.88-3.58 1.48-1.13-.95-.67-2.85.6-3.45m15.59 0c1.34-.57 3.07.47 2.97 1.97.17 1.8-2.43 2.88-3.58 1.48-1.12-.95-.66-2.85.61-3.45m31.17 0c1.34-.57 3.08.47 2.97 1.97.17 1.8-2.43 2.88-3.58 1.48-1.12-.95-.66-2.85.61-3.45m41.56 0c1.34-.57 3.08.47 2.97 1.97.17 1.8-2.43 2.88-3.58 1.48-1.12-.95-.66-2.85.61-3.45M49.47 182.9c1.34-.56 3.08.48 2.97 1.98.17 1.8-2.42 2.88-3.58 1.48-1.12-.96-.66-2.85.61-3.46m5.2 0c1.34-.56 3.07.48 2.97 1.98.16 1.8-2.43 2.88-3.58 1.48-1.12-.96-.67-2.85.61-3.46m10.39 0c1.34-.56 3.07.48 2.97 1.98.16 1.8-2.43 2.88-3.58 1.48-1.12-.96-.67-2.85.61-3.46m15.58 0c1.34-.56 3.08.48 2.97 1.98.17 1.8-2.43 2.88-3.58 1.48-1.12-.96-.66-2.85.61-3.46m20.78 0c1.34-.56 3.08.48 2.98 1.98.16 1.8-2.44 2.88-3.58 1.48-1.13-.96-.67-2.85.6-3.46m5.2 0c1.34-.56 3.07.48 2.97 1.98.17 1.8-2.43 2.88-3.58 1.48-1.12-.96-.66-2.85.61-3.46m5.19 0c1.34-.56 3.08.48 2.98 1.98.16 1.8-2.44 2.88-3.58 1.48-1.13-.96-.67-2.85.6-3.46m15.59 0c1.34-.56 3.08.48 2.97 1.98.17 1.8-2.43 2.88-3.58 1.48-1.12-.96-.66-2.85.61-3.46m10.39 0c1.34-.56 3.08.48 2.97 1.98.17 1.8-2.43 2.88-3.58 1.48-1.12-.96-.66-2.85.61-3.46m5.2 0c1.34-.56 3.07.48 2.97 1.98.16 1.8-2.43 2.88-3.58 1.48-1.12-.96-.67-2.85.61-3.46m5.19 0c1.34-.56 3.08.48 2.97 1.98.17 1.8-2.43 2.88-3.58 1.48-1.12-.96-.66-2.85.61-3.46m10.39 0c1.34-.56 3.08.48 2.97 1.98.17 1.8-2.43 2.88-3.58 1.48-1.12-.96-.66-2.85.61-3.46m10.39 0c1.34-.56 3.08.48 2.97 1.98.17 1.8-2.43 2.88-3.58 1.48-1.12-.96-.66-2.85.61-3.46m20.78 0c1.34-.56 3.08.48 2.97 1.98.17 1.8-2.43 2.88-3.58 1.48-1.12-.96-.66-2.85.61-3.46m-145.46 5.2c1.34-.57 3.07.47 2.97 1.97.16 1.8-2.43 2.88-3.58 1.49-1.12-.96-.67-2.86.61-3.46m10.39 0c1.34-.57 3.07.47 2.97 1.97.16 1.8-2.43 2.88-3.58 1.49-1.12-.96-.67-2.86.61-3.46m5.19 0c1.34-.57 3.08.47 2.97 1.97.17 1.8-2.42 2.88-3.58 1.49-1.12-.96-.66-2.86.61-3.46m15.59 0c1.34-.57 3.07.47 2.97 1.97.17 1.8-2.43 2.88-3.58 1.49-1.12-.96-.67-2.86.61-3.46m5.19 0c1.34-.57 3.08.47 2.97 1.97.17 1.8-2.43 2.88-3.58 1.49-1.12-.96-.66-2.86.61-3.46m10.39 0c1.34-.57 3.08.47 2.97 1.97.17 1.8-2.43 2.88-3.57 1.49-1.13-.96-.67-2.86.6-3.46m5.2 0c1.34-.57 3.07.47 2.97 1.97.17 1.8-2.43 2.88-3.58 1.49-1.12-.96-.66-2.86.61-3.46m5.19 0c1.34-.57 3.08.47 2.98 1.97.16 1.8-2.44 2.88-3.58 1.49-1.13-.96-.67-2.86.6-3.46m15.59 0c1.34-.57 3.07.47 2.97 1.97.17 1.8-2.43 2.88-3.58 1.49-1.12-.96-.66-2.86.61-3.46m10.39 0c1.34-.57 3.08.47 2.97 1.97.17 1.8-2.43 2.88-3.58 1.49-1.12-.96-.66-2.86.61-3.46m5.19 0c1.35-.57 3.08.47 2.98 1.97.16 1.8-2.43 2.88-3.58 1.49-1.13-.96-.67-2.86.6-3.46m10.4 0c1.34-.57 3.07.47 2.97 1.97.16 1.8-2.43 2.88-3.58 1.49-1.12-.96-.67-2.86.61-3.46m10.39 0c1.34-.57 3.07.47 2.97 1.97.16 1.8-2.43 2.88-3.58 1.49-1.12-.96-.67-2.86.61-3.46m5.19 0c1.34-.57 3.08.47 2.97 1.97.17 1.8-2.43 2.88-3.58 1.49-1.12-.96-.66-2.86.61-3.46m10.39 0c1.34-.57 3.08.47 2.97 1.97.17 1.8-2.43 2.88-3.58 1.49-1.12-.96-.66-2.86.61-3.46m5.2 0c1.34-.57 3.07.47 2.97 1.97.16 1.8-2.43 2.88-3.58 1.49-1.12-.96-.67-2.86.61-3.46m5.19 0c1.34-.57 3.08.47 2.97 1.97.17 1.8-2.43 2.88-3.58 1.49-1.12-.96-.66-2.86.61-3.46m5.2 0c1.34-.57 3.07.47 2.97 1.97.17 1.8-2.43 2.88-3.58 1.49-1.12-.96-.67-2.86.61-3.46m5.19 0c1.34-.57 3.08.47 2.97 1.97.17 1.8-2.43 2.88-3.58 1.49-1.12-.96-.66-2.86.61-3.46"/><g id="_2225225024"><rect x="78.43" y="77.89" width="37.34" height="37.34" rx="4.51" ry="6.06" style="fill:#2b2a29"/><path d="m105.91 110.93 3.49-1.49-1.13-1.34-5.05 2.83zm1.44-3.98-5.47 3.98-2.64-.16 6.23-6.05zM90.44 86.86l-3.54-1.34-2.11-1.62 3.73.85zm2.82 3.35-4.1.19-1.22-4.07 3.44 1.64zm2.82 3.35-5.2 3.23-1.15-4.27 4.47-1.2zm2.82 3.35-6.31 6.28-1.14-4.27 5.56-4.25zm2.81 3.35-6.91 7.95-1.64-2.9 6.67-7.29zm2.82 3.35-6.4 6.53-2.22-1.29 6.74-7.48z" style="fill:#898988"/><path d="m108.27 108.1-1.02 2.83h1.58l.57-1.49zM85.42 82.18l-.63 1.72 2.11 1.62.59-1.62zm3.1 2.57-.58 1.58 1.22 4.07 1.28-3.54-1.32-1.57zm2.86 3.22-1.65 4.55 1.15 4.27 2.38-6.58zm2.82 3.35-2.75 7.6 1.14 4.27 3.49-9.63zm2.81 3.35-3.85 10.64 1.64 2.9 4.1-11.3zm2.82 3.35-3.92 10.83 2.22 1.29 3.58-9.88zm2.82 3.35-3.41 9.4c.24.11.48.16.76.16h1.88l2.65-7.32zm2.82 3.35-2.25 6.21h2.69l1.44-3.98z" style="fill:#b3b3b3"/></g><path class="fil1" d="M8.88 156.13c3.52-.51 7.09-.29 10.64-.34 3.17.04 6.4-.15 9.51.55 2.51.44 4.67 2.17 5.99 4.31 1.27 2.07 1.56 4.56 1.62 6.94.11 4.54.11 9.07-.02 13.6-.07 2.11-.39 4.27-1.42 6.15-1.65 3-5 4.91-8.4 5.03-4.86.19-9.72.17-14.58.02-2.3-.01-4.75.01-6.77-1.25-2.8-1.39-4.67-4.25-5.11-7.32-.55-4.19-.24-8.42-.33-12.63.07-3.09-.13-6.32 1.04-9.25 1.28-3.2 4.39-5.53 7.83-5.81m7.68 9.92c2.51-.55 5.21.19 7.14 1.86 2.39 2.11 3.4 5.66 2.42 8.69-1.01 3.38-4.44 5.9-7.99 5.69-4.23.12-8-3.72-7.99-7.92-.24-3.88 2.66-7.51 6.42-8.32m0-155.78c2.51-.56 5.21.19 7.14 1.86 2.39 2.11 3.4 5.65 2.42 8.69-1.01 3.38-4.44 5.9-7.99 5.69-4.23.12-8-3.72-7.99-7.92-.24-3.88 2.66-7.51 6.42-8.32m155.73 0c2.51-.56 5.21.19 7.15 1.86 2.38 2.11 3.39 5.65 2.41 8.69-1.01 3.38-4.44 5.9-7.98 5.69-4.24.12-8.01-3.72-8-7.92-.24-3.88 2.66-7.51 6.42-8.32M8.35 161.07c-2.08.5-3.29 2.69-3.41 4.72-.32 3.59-.14 7.22-.19 10.83.05 2.42-.1 4.88.44 7.27.53 2.33 2.96 3.75 5.24 3.73 5.28.2 10.58.19 15.86.03 2.46.06 4.96-1.67 5.34-4.18.48-2.69.31-5.45.36-8.17-.05-3.17.1-6.37-.2-9.53-.14-2.01-1.33-4.2-3.41-4.7-3.51-.74-7.11-.47-10.67-.52-3.12.05-6.29-.23-9.36.52m0-155.79c-2.08.51-3.29 2.7-3.41 4.72-.32 3.6-.14 7.23-.19 10.84.05 2.42-.1 4.88.44 7.26.53 2.33 2.96 3.76 5.24 3.73 5.28.2 10.58.19 15.86.03 2.46.07 4.96-1.67 5.34-4.17.48-2.7.31-5.45.36-8.17-.05-3.18.1-6.37-.2-9.53-.14-2.01-1.33-4.2-3.41-4.71-3.51-.73-7.11-.47-10.67-.51-3.12.05-6.29-.24-9.36.51m155.74 0c-2.09.51-3.29 2.7-3.42 4.72-.32 3.6-.14 7.23-.19 10.84.05 2.42-.1 4.88.44 7.26.53 2.33 2.96 3.76 5.24 3.73 5.29.2 10.58.19 15.86.03 2.46.07 4.97-1.67 5.35-4.17.47-2.7.3-5.45.35-8.17-.05-3.18.1-6.37-.2-9.53-.14-2.01-1.33-4.2-3.41-4.71-3.51-.73-7.11-.47-10.67-.51-3.12.05-6.29-.24-9.35.51M8.88.34C12.4-.17 15.97.06 19.52.01c3.17.03 6.4-.15 9.51.55 2.51.44 4.67 2.17 5.99 4.3 1.27 2.08 1.56 4.57 1.62 6.95.11 4.53.11 9.06-.02 13.6-.07 2.1-.39 4.27-1.42 6.14-1.65 3.01-5 4.92-8.4 5.04-4.86.19-9.72.17-14.58.02-2.3-.02-4.75 0-6.77-1.25-2.8-1.4-4.67-4.26-5.11-7.32-.55-4.19-.24-8.43-.33-12.63.07-3.1-.13-6.32 1.04-9.26C2.33 2.96 5.44.63 8.88.34m155.73 0c3.52-.51 7.09-.28 10.64-.33 3.17.03 6.4-.15 9.51.55 2.52.44 4.67 2.17 6 4.3 1.27 2.08 1.55 4.57 1.61 6.95.11 4.53.11 9.06-.01 13.6-.08 2.1-.4 4.27-1.43 6.14-1.65 3.01-5 4.92-8.4 5.04-4.86.19-9.72.17-14.58.02-2.3-.02-4.74 0-6.76-1.25-2.81-1.4-4.68-4.26-5.12-7.32-.55-4.19-.24-8.43-.33-12.63.08-3.1-.12-6.32 1.04-9.26 1.28-3.19 4.39-5.52 7.83-5.81"/></g></svg>